<svg width="25" height="25" viewBox="0 0 25 25" fill="none" xmlns="http://www.w3.org/2000/svg">
<path fill-rule="evenodd" clip-rule="evenodd" d="M12.2 24.4C18.9379 24.4 24.4 18.9379 24.4 12.2C24.4 5.46213 18.9379 0 12.2 0C5.46213 0 0 5.46213 0 12.2C0 18.9379 5.46213 24.4 12.2 24.4ZM9.728 15.2053C10.3031 15.3805 10.8978 15.4117 11.4972 15.4117C11.6895 15.4012 11.8821 15.3948 12.0745 15.3885C12.3718 15.3786 12.6685 15.3687 12.9622 15.3437C13.3833 15.2982 13.7998 15.2187 14.2072 15.106C14.7371 14.9762 15.1261 14.5405 15.1804 14.0159C15.266 13.4581 15.3331 12.9002 15.406 12.3423C15.4352 12.1221 15.4641 11.9019 15.4926 11.6816C15.5103 11.5445 15.5279 11.4075 15.5454 11.2704C15.5793 11.0048 15.6126 10.7391 15.6455 10.4734L15.658 10.3737C15.6968 10.0676 15.7358 9.76028 15.6721 9.45029C15.5483 8.84219 15.1479 8.47845 14.5694 8.26425C14.0333 8.07904 13.4667 7.98981 12.8973 8.00092C12.4218 8 11.9467 8.02496 11.4741 8.07568C10.8495 8.14478 10.236 8.28677 9.64697 8.49857C9.60165 8.50824 9.56244 8.53549 9.53857 8.57391C9.52924 8.58893 9.52258 8.6051 9.51868 8.62186C9.51575 8.6344 9.51437 8.64725 9.51459 8.66013C9.51483 8.67404 9.51691 8.68799 9.52087 8.70163C9.55304 8.89124 9.58301 9.08173 9.61212 9.27225C9.62741 9.37228 9.64246 9.47235 9.6575 9.57227L9.66119 9.59689L9.6655 9.62546C9.68863 9.78391 9.70139 9.79395 9.85757 9.75266C10.4779 9.57623 11.1134 9.45413 11.7564 9.38782C12.1151 9.35657 12.4808 9.33426 12.8279 9.45251C13.0912 9.51987 13.2846 9.73605 13.3151 9.99701C13.3258 10.1519 13.3203 10.3073 13.2989 10.4612C13.2787 10.4971 13.2423 10.5219 13.2005 10.5281C12.9498 10.566 12.6988 10.6019 12.4479 10.6378C12.3247 10.6554 12.2015 10.673 12.0784 10.6908C11.8911 10.718 11.7039 10.7456 11.5169 10.7747C10.931 10.8528 10.3551 10.9897 9.79858 11.183C8.39499 11.7063 8.10687 13.0899 8.39499 14.0494C8.58823 14.6887 9.10315 15.0145 9.728 15.2053ZM12.6172 11.8746C12.6877 11.8631 12.7585 11.8516 12.8297 11.8398C12.9275 11.8236 13.0259 11.807 13.1251 11.7896L13.1149 11.8812C13.0917 12.0895 13.0714 12.2712 13.0441 12.4546C12.9828 12.931 12.9226 13.4086 12.8543 13.8839C12.8456 13.9395 12.8105 13.9882 12.7595 14.0155C12.3131 14.1357 11.8444 14.1571 11.3883 14.078C10.7785 13.9608 10.5841 13.4956 10.6396 12.9913C10.6952 12.4869 11.0238 12.1924 11.5051 12.0808C11.8701 11.9965 12.239 11.9363 12.6172 11.8746ZM7.13654 8.00259H8.11356C8.17551 8.01096 8.23615 8.02679 8.2941 8.04974C8.28525 8.07474 8.27502 8.09921 8.26346 8.12308C8.25021 8.15042 8.23523 8.177 8.21857 8.20261C7.37451 9.21713 6.52924 10.2301 5.6828 11.2416C5.6489 11.2822 5.61539 11.3232 5.58185 11.3643L5.58112 11.3651C5.51212 11.4496 5.44296 11.5342 5.37012 11.6152C5.31378 11.6658 5.30759 11.7503 5.35596 11.8083C5.99942 12.9102 6.64056 14.0128 7.27933 15.1162C7.42447 15.3668 7.39731 15.4105 7.09879 15.4105H5.51288C5.31079 15.4247 5.12033 15.3171 5.03265 15.1392C4.38522 14.0082 3.73349 12.8795 3.07742 11.7531C2.96124 11.6032 2.97742 11.3926 3.11517 11.2611L5.66394 8.21753C5.78003 8.07495 5.95862 7.99438 6.14536 8.00031C6.47574 8.00146 6.80615 8.00259 7.13654 8.00259ZM15.8735 15.4077H16.8508C17.1861 15.4077 17.5213 15.4111 17.8577 15.4111C18.0299 15.4192 18.1962 15.3486 18.3074 15.2202C19.1651 14.1902 20.0263 13.1648 20.8911 12.144C21.0161 12.0206 21.0358 11.829 20.9384 11.6839L18.9247 8.1994C18.8564 8.07156 18.7183 7.99393 18.5706 8.00037H16.8001C16.6277 8.00153 16.5876 8.07169 16.6714 8.2178C17.3222 9.34286 17.9753 10.4668 18.6308 11.5895C18.6849 11.654 18.6792 11.748 18.6178 11.8058C17.6672 12.9378 16.7198 14.0717 15.7755 15.2075C15.7453 15.256 15.7219 15.3082 15.7059 15.3628C15.7298 15.3725 15.7543 15.3809 15.7791 15.3879C15.8101 15.3966 15.8416 15.4032 15.8735 15.4077Z" fill="#F1361D"/>
</svg>
