<svg width="193" height="19" viewBox="0 0 193 19" fill="none" xmlns="http://www.w3.org/2000/svg">
<path d="M24.1048 0.178711C19.8744 0.178711 16.5982 1.46401 16.5636 1.48636C16.4142 1.54224 16.3222 1.70989 16.3452 1.85519L16.7476 4.49283C16.7591 4.55989 16.7935 4.6046 16.8396 4.63813C16.897 4.66048 16.9545 4.67166 17.0234 4.6493C17.0465 4.6493 18.6789 4.16872 20.3688 3.8893C23.0473 3.45342 24.5648 3.56519 25.3234 4.25813C25.7488 4.63813 25.9097 5.20813 25.8178 5.94577L25.7488 6.44872C25.7488 6.44872 22.4725 6.87342 20.3227 7.25342C18.1615 7.6446 16.8281 8.09166 15.7935 8.75107C13.5747 10.1593 13.0344 12.8976 13.4598 14.8535C13.8276 16.5635 15.3796 18.6199 20.6791 18.6199H21.093C29.1975 18.6199 30.2551 17.2788 30.623 14.4288L31.1058 10.6511L31.7382 5.64401C31.9335 4.10166 31.6347 2.92813 30.83 2.04519C29.6803 0.793417 27.4732 0.178711 24.1048 0.178711ZM25.3119 9.85754C25.3119 9.85754 25.1165 11.3441 25.1165 11.3552L24.6337 15.1105L24.5648 15.1329C24.5302 15.1441 23.6681 15.4123 22.2426 15.4123H22.2311C21.6793 15.4123 20.5297 15.4123 19.8055 14.7082C19.3916 14.3058 19.1732 13.7358 19.1732 12.9982C19.1732 11.5005 20.0928 10.5617 21.9667 10.2264C23.8405 9.89107 25.3119 9.72342 25.3119 9.72342V9.85754Z" fill="#F1361D"/>
<path d="M97.5397 0.189887L96.9535 0.178711C92.6541 0.178711 89.7456 1.38577 88.2857 3.74401C87.1246 5.63283 86.5613 12.0146 86.5613 12.0817C86.4578 13.3223 86.5613 14.2499 86.8832 15.0882C88.0903 18.2176 92.2977 18.6311 94.7004 18.6088C99.0227 18.5864 101.943 17.4129 103.368 15.0993C103.805 14.3841 104.46 12.4058 105.047 7.02989L105.07 6.83989C105.196 5.72224 105.127 4.77224 104.863 3.94519C103.885 0.983417 100.345 0.268123 97.5397 0.189887ZM98.5284 11.8582L98.5169 11.9476C98.4249 12.6405 98.2295 13.6464 97.5283 14.3282C97.0455 14.7976 96.3442 15.0658 95.4361 15.1217C94.6314 15.1776 93.999 15.0658 93.5048 14.7864C92.8495 14.4288 92.4011 13.6799 92.3207 12.8864C92.2862 12.3835 92.746 9.25401 92.999 7.57754L93.1139 6.80636C93.2173 6.07989 93.5163 5.06283 94.4015 4.38107C94.9648 3.94519 95.6775 3.6993 96.4246 3.6993C97.1719 3.68813 97.7467 3.82224 98.2065 4.10166C98.9653 4.57107 99.1607 5.4093 99.1952 6.02401C99.2182 6.37048 98.9882 8.39342 98.5284 11.8582Z" fill="#F1361D"/>
<path d="M85.9527 0.324653H83.3892C81.228 0.324653 80.3658 1.53171 79.8945 2.10171L73.3764 9.96994L73.5489 9.50053L74.6983 0.548182C74.7099 0.481124 74.6868 0.425241 74.6409 0.380535C74.6064 0.33583 74.5489 0.313477 74.48 0.313477H69.123C68.9734 0.313477 68.8355 0.436418 68.8125 0.570535L66.5708 18.0059C66.5593 18.0729 66.5823 18.1288 66.6169 18.1623C66.6513 18.1959 66.7087 18.207 66.7663 18.207H69.5713C71.7325 18.207 72.6981 16.8435 73.043 16.4076L79.4117 8.34936L79.2047 8.84112L78.0437 17.9723C78.0322 18.0394 78.0552 18.0953 78.0896 18.14C78.1357 18.1847 78.1931 18.207 78.2621 18.207H83.6191C83.7685 18.207 83.9065 18.0841 83.9296 17.9388L86.1597 0.503477C86.1712 0.447594 86.1482 0.391712 86.1137 0.358182C86.0792 0.33583 86.0217 0.313477 85.9527 0.324653Z" fill="#F1361D"/>
<path d="M124.509 0.189865L119.049 0.8381C118.9 0.849277 118.75 0.994571 118.728 1.13987L117.956 7.24222L117.923 7.4881H112.703L113.611 0.379865C113.623 0.312806 113.6 0.2681 113.565 0.223394C113.531 0.189865 113.474 0.167512 113.404 0.178689L107.944 0.826924C107.795 0.8381 107.645 0.983394 107.622 1.12869L105.472 17.9604C105.472 18.0275 105.484 18.0834 105.53 18.1281C105.576 18.1728 105.633 18.1951 105.691 18.1951H111.048C111.197 18.1951 111.335 18.0722 111.358 17.9269L112.221 11.1875L112.232 11.1316H117.462L116.588 17.9492C116.577 18.0163 116.601 18.0722 116.647 18.1169C116.692 18.1616 116.738 18.184 116.807 18.184H118.152C120.624 18.184 122.44 17.8934 122.832 15.1216L124.728 0.357512C124.739 0.290453 124.716 0.245747 124.682 0.201042C124.635 0.189865 124.578 0.178689 124.509 0.189865Z" fill="#F1361D"/>
<path d="M66.7659 4.15773L67.2257 0.547728C67.2372 0.480669 67.2142 0.424787 67.1798 0.380081C67.1337 0.335375 67.0763 0.313022 67.0073 0.313022H46.6942C46.3953 0.313022 46.0504 0.44714 45.7286 0.760081L40.0497 7.52185H39.245L40.1531 0.424787C40.1646 0.357728 40.1417 0.313022 40.1071 0.268316C40.0726 0.234787 40.0151 0.212434 39.9577 0.22361L34.4972 0.871846C34.3478 0.883022 34.1982 1.02832 34.1868 1.17361L32.0026 17.9831C31.9911 18.0501 32.0141 18.106 32.0601 18.1507C32.106 18.1954 32.1636 18.2178 32.221 18.2178H37.5895C37.7389 18.2178 37.877 18.0948 37.8999 17.9495L38.7737 11.1654H39.6128L43.5099 17.9607C43.5789 18.0948 43.7858 18.2178 43.9467 18.2178H49.7636C49.8556 18.2178 49.9591 18.1731 49.8671 18.0166L44.5789 9.38832L48.9934 4.42597H55.3735L53.6377 17.9942C53.6262 18.0613 53.6492 18.1172 53.6836 18.1619C53.7297 18.2066 53.7871 18.2289 53.8446 18.2289H59.2132C59.3626 18.2289 59.5005 18.106 59.512 17.9607L61.2134 4.42597H66.4555C66.605 4.42597 66.7544 4.30303 66.7659 4.15773Z" fill="#F1361D"/>
<path d="M12.8275 0.313477H7.70032C7.26349 0.358182 6.9531 0.503477 6.76917 0.71583C6.76917 0.71583 0.503958 8.11465 0.366009 8.2823C0.0326308 8.67347 0.182076 9.087 0.274043 9.24347L5.25173 17.76C5.38967 18.0059 5.74604 18.2182 6.05643 18.2182H10.4938C10.8042 18.2182 10.9651 18.017 10.8157 17.7712L5.81502 9.26583L13.0459 0.704653C13.2298 0.481124 13.1379 0.313477 12.8275 0.313477Z" fill="#F1361D"/>
<path d="M138.488 9.28764L133.511 0.759993C133.372 0.514111 133.016 0.301758 132.706 0.301758H128.268C127.958 0.301758 127.809 0.502934 127.958 0.748817L132.948 9.26529L125.728 17.8264C125.532 18.0388 125.625 18.2176 125.934 18.2176H131.062C131.499 18.1617 131.809 18.0276 131.993 17.8041C131.993 17.8041 138.259 10.4053 138.396 10.2376C138.729 9.84646 138.581 9.44411 138.488 9.28764Z" fill="#F1361D"/>
<path d="M157.687 6.68462C156.985 7.72403 155.916 8.34991 154.26 8.66285L154.192 9.26638C154.514 9.36697 155.927 9.45638 156.847 10.4287C157.365 10.9652 157.698 11.714 157.698 12.9434C157.698 14.2287 157.226 15.4805 156.33 16.4417C154.916 17.9617 152.605 18.4981 150.397 18.4981C147.489 18.4981 145.247 17.9169 144.455 17.604C144.259 17.5034 144.133 17.3581 144.224 17.1234L144.742 15.8717C144.822 15.704 145.04 15.5811 145.236 15.6817C146.8 16.1846 148.788 16.4752 150.478 16.4752C151.915 16.4752 153.387 16.084 154.283 15.1675C154.904 14.4969 155.157 13.6699 155.157 12.7758C155.157 11.7587 154.777 11.2111 154.134 10.8199C153.133 10.2164 151.501 10.1381 149.616 9.9705C149.398 9.94814 149.214 9.84756 149.248 9.6352L149.398 8.40579C149.42 8.18226 149.593 8.0705 149.846 8.04814C151.789 7.90285 153.375 7.7352 154.444 7.13167C155.467 6.57285 155.904 5.67873 155.904 4.57226C155.904 3.75638 155.605 3.15285 155.088 2.76167C154.398 2.25873 153.329 2.07991 152.087 2.07991C149.753 2.07991 147.789 2.61638 146.501 2.97403C146.202 3.05226 146.075 2.92932 146.052 2.78403L145.88 1.55461C145.834 1.24167 145.984 1.11873 146.202 1.01814C147.191 0.626966 149.685 0.0234375 152.709 0.0234375C154.743 0.0234375 156.33 0.45932 157.33 1.33109C158.077 1.95697 158.468 2.85109 158.468 3.99109C158.457 4.91873 158.203 5.90226 157.687 6.68462Z" fill="#333333"/>
<path d="M173.24 2.57114C171.7 2.23584 170.481 2.06819 168.618 2.06819C166.606 2.06819 165.17 2.54878 164.17 3.61055C163.354 4.50466 162.848 5.81231 162.583 7.56702C162.663 7.54466 165.388 6.6729 167.722 6.6729C169.711 6.6729 171.378 7.10878 172.447 8.06996C173.32 8.84113 173.792 9.95878 173.792 11.5235C173.792 13.3118 173.24 15.2229 171.906 16.5194C170.492 17.8718 168.4 18.4753 165.94 18.4753C163.526 18.4753 161.939 17.9723 160.973 16.9329C160.055 15.9382 159.686 14.4406 159.686 12.4623C159.686 11.5235 159.755 10.4617 159.905 9.29937C160.273 6.18113 160.951 3.62172 162.733 1.97878C164.089 0.73819 166.078 0.0117188 169.113 0.0117188C171.849 0.0117188 173.688 0.54819 173.838 0.592896C173.964 0.615249 174.114 0.73819 174.057 0.883484L173.585 2.38114C173.539 2.50408 173.389 2.59349 173.24 2.57114ZM170.377 9.60113C169.677 8.9529 168.585 8.68466 167.25 8.68466C165.814 8.68466 163.768 9.01996 162.411 9.47819C162.261 10.4394 162.112 11.3894 162.112 12.3506C162.112 13.8706 162.411 14.9323 163.1 15.5918C163.768 16.24 164.768 16.5306 166.204 16.5306C168.216 16.5306 169.607 16.0053 170.401 14.8206C170.975 14.0047 171.217 12.8647 171.217 11.87C171.228 10.8305 170.929 10.1153 170.377 9.60113Z" fill="#333333"/>
<path d="M190.794 12.3276C189.874 15.7365 187.816 18.4859 182.368 18.4859C179.689 18.4859 177.999 17.8153 176.976 16.72C175.884 15.5576 175.539 13.8924 175.539 12.0818C175.539 10.0476 175.884 7.29824 176.561 5.36471C177.585 2.32471 179.747 0 184.712 0C187.299 0 188.966 0.625882 190 1.64294C191.174 2.80529 191.564 4.39235 191.564 6.32588C191.564 8.24823 191.3 10.4724 190.794 12.3276ZM187.988 3.10706C187.322 2.38059 186.172 2.00059 184.46 2.00059C180.781 2.00059 179.436 3.71059 178.746 6.76177C178.401 8.38235 178.125 10.26 178.125 11.9588C178.125 13.5012 178.379 14.7082 179.149 15.4906C179.85 16.1724 180.965 16.53 182.631 16.53C186.057 16.53 187.472 15.0324 188.219 12.3053C188.667 10.6176 188.989 8.31529 188.989 6.54941C188.989 5.04059 188.736 3.87824 187.988 3.10706Z" fill="#333333"/>
</svg>
