<svg width="186" height="36" viewBox="0 0 186 36" fill="none" xmlns="http://www.w3.org/2000/svg">
<g clip-path="url(#clip0_131_3562)">
<path d="M4.06154 4.15385H0V19.2H4.06154V13.2923H5.26154L9.41539 19.2H14.4L8.67692 11.5385L13.9385 4.15385H9.13846L5.26154 9.78462H4.06154V4.15385ZM20.4 19.4769C24.4615 19.4769 27.3231 18.5538 27.3231 13.8462V9.6C27.3231 4.98461 24.4615 4.06154 20.4 4.06154C16.3385 4.06154 13.4769 4.98461 13.4769 9.6V13.8462C13.3846 18.4615 16.3385 19.4769 20.4 19.4769ZM20.4 15.9692C18.2769 15.9692 17.5385 15.6923 17.5385 13.3846V9.96923C17.5385 7.75385 18.2769 7.47692 20.4 7.47692C22.5231 7.47692 23.2615 7.75385 23.2615 9.96923V13.3846C23.1692 15.6 22.4308 15.9692 20.4 15.9692ZM32.2154 15.0462H35.8154C39.9692 15.0462 40.9846 13.7538 40.9846 9.50769C40.9846 5.53846 39.6 4.15385 35.8154 4.15385H28.2462V19.2H32.3077V15.0462H32.2154ZM32.2154 7.47692H34.9846C36.5538 7.47692 36.8308 8.03077 36.8308 9.50769C36.8308 11.4462 36.5538 11.7231 34.9846 11.7231H32.2154V7.47692ZM41.6308 4.15385V19.2H45.6923V7.66154H50.9538V19.2H55.0154V4.15385H41.6308ZM62.6769 19.4769C66.7385 19.4769 69.6 18.5538 69.6 13.8462V9.6C69.6 4.98461 66.7385 4.06154 62.6769 4.06154C58.6154 4.06154 55.7539 4.98461 55.7539 9.6V13.8462C55.7539 18.4615 58.6154 19.4769 62.6769 19.4769ZM62.6769 15.9692C60.5539 15.9692 59.8154 15.6923 59.8154 13.3846V9.96923C59.8154 7.75385 60.5539 7.47692 62.6769 7.47692C64.8 7.47692 65.5385 7.75385 65.5385 9.96923V13.3846C65.5385 15.6 64.8 15.9692 62.6769 15.9692ZM74.5846 15.0462H78.1846C82.3385 15.0462 83.3539 13.7538 83.3539 9.50769C83.3539 5.53846 81.9692 4.15385 78.1846 4.15385H70.6154V19.2H74.5846V15.0462ZM74.5846 7.47692H77.3539C78.9231 7.47692 79.2 8.03077 79.2 9.50769C79.2 11.4462 78.9231 11.7231 77.3539 11.7231H74.5846V7.47692ZM92.5846 16.6154L93.3231 19.2H97.3846L92.7692 4.15385H86.7692L82.2462 19.2H86.4L87.1385 16.6154H92.5846ZM91.7539 13.7538H88.0615L89.9077 7.2L91.7539 13.7538ZM103.569 7.66154H107.631V4.15385H95.5385V7.66154H99.6V19.2H103.662V7.66154H103.569ZM111.877 4.15385H108.092V19.2H113.538L118.062 9.32308H118.246V19.2H122.031V4.15385H116.769L112.062 14.1231H111.877V4.15385ZM123.138 19.2H131.169C134.4 19.2 136.062 18.7385 136.062 14.9538C136.062 13.1077 135.692 11.7231 133.477 11.5385V11.3538C135.508 11.0769 135.877 9.78462 135.877 7.84615C135.877 4.52308 134.123 3.96923 131.077 3.96923H123.138V19.2ZM127.2 7.47692H130.615C131.723 7.47692 131.908 7.84615 131.908 8.76923C131.908 9.96923 131.538 10.2462 130.154 10.2462H127.292V7.47692H127.2ZM127.2 13.0154H130.338C131.631 13.0154 132.092 13.2 132.092 14.4C132.092 15.6 131.538 15.9692 130.246 15.9692H127.2V13.0154ZM140.862 4.15385H136.892V19.2H140.862V13.2923H146.123V19.2H150.092V4.15385H146.123V9.78462H140.862V4.15385ZM155.354 4.15385H151.292V19.2H159.046C162.092 19.2 163.662 17.9077 163.662 14.5846C163.662 11.1692 162.092 9.96923 159.046 9.96923H155.354V4.15385ZM155.354 13.1077H158.123C159.231 13.1077 159.692 13.3846 159.692 14.6769C159.692 15.8769 159.231 16.1538 158.123 16.1538H155.354V13.1077ZM169.938 4.15385H165.877V19.2H169.938V4.15385ZM174.923 4.15385H171.138V19.2H176.585L181.108 9.32308H181.292V19.2H185.077V4.15385H179.815L175.108 14.1231H174.923V4.15385ZM175.938 0H174.277C174.277 2.67692 175.569 3.04615 177.785 3.04615C180 3.04615 181.292 2.67692 181.292 0H179.631C179.631 1.10769 179.169 1.38462 177.785 1.38462C176.4 1.38462 175.938 1.10769 175.938 0Z" fill="black"/>
<path d="M3.96923 26.4001V20.7693H0V35.8155H3.96923V29.9078H6.36923V30.3693C6.36923 34.9847 9.23077 36.0001 13.2923 36.0001C17.3538 36.0001 20.3077 35.077 20.3077 30.3693V26.1232C20.3077 21.5078 17.4462 20.5847 13.3846 20.5847C9.32308 20.5847 6.36923 21.5078 6.36923 26.1232V26.4001H3.96923ZM13.3846 32.4924C11.2615 32.4924 10.5231 32.1232 10.5231 29.9078V26.4924C10.5231 24.3693 11.2615 24.0001 13.3846 24.0001C15.5077 24.0001 16.2462 24.277 16.2462 26.4924V29.9078C16.1538 32.1232 15.4154 32.4924 13.3846 32.4924ZM25.2 31.5693H28.8C32.9538 31.5693 33.9692 30.277 33.9692 26.0309C33.9692 22.0616 32.5846 20.677 28.8 20.677H21.2308V35.7232H25.2923V31.5693H25.2ZM25.2 24.0001H27.9692C29.5385 24.0001 29.8154 24.5539 29.8154 26.0309C29.8154 27.9693 29.5385 28.2463 27.9692 28.2463H25.2V24.0001ZM38.4 20.677H34.6154V35.7232H40.0615L44.5846 25.8463H44.6769V35.7232H48.4615V20.677H43.2L38.4923 30.6463H38.4V20.677ZM62.6769 26.1232V25.5693C62.6769 21.6924 60.5538 20.5847 56.4923 20.5847C52.0615 20.5847 49.3846 21.3232 49.3846 26.3078V30.1847C49.3846 35.7232 52.3385 36.0001 56.4923 36.0001C61.2 36.0001 62.6769 34.8924 62.6769 30.6463V30.1847H58.5231V30.6463C58.5231 32.4001 57.6923 32.4924 56.0308 32.4924C53.6308 32.4924 53.5385 31.5693 53.5385 29.2616V26.9539C53.5385 24.8309 53.7231 24.0924 56.0308 24.0924C57.4154 24.0924 58.5231 24.3693 58.5231 25.5693V26.1232H62.6769ZM70.9846 24.1847H75.0462V20.677H62.8615V24.1847H66.9231V35.7232H70.9846V24.1847Z" fill="black"/>
</g>
<defs>
<clipPath id="clip0_131_3562">
<rect width="185.077" height="36" fill="white"/>
</clipPath>
</defs>
</svg>
