<svg width="193" height="36" viewBox="0 0 193 36" fill="none" xmlns="http://www.w3.org/2000/svg">
<g clip-path="url(#clip0_119_127)">
<path d="M0.283465 33.7323C8.92913 33.7323 15.874 26.2205 15.874 16.8661C15.874 7.51181 8.92913 0 0.425197 0H0V33.7323H0.283465Z" fill="#62358C"/>
<path d="M33.7323 33.7323L17.8583 16.8661L33.7323 0V33.7323Z" fill="#62358C"/>
<path d="M42.2362 13.3227V1.70068H47.0551C49.0394 1.70068 50.315 2.83454 50.315 4.67706C50.315 6.09438 49.3228 7.08651 48.3307 7.36997C49.6063 7.51171 50.5984 8.7873 50.5984 10.2046C50.5984 12.1889 49.3228 13.3227 47.3386 13.3227H42.2362ZM49.1811 4.81879C49.1811 3.68494 48.3307 2.69281 46.9134 2.69281H43.2283V6.94478H46.9134C48.3307 6.94478 49.1811 5.95265 49.1811 4.81879ZM49.3228 10.0629C49.3228 8.92903 48.4724 7.79517 46.9134 7.79517H43.2283V12.3306H46.9134C48.4724 12.4723 49.3228 11.4802 49.3228 10.0629Z" fill="#3C3C3B"/>
<path d="M53.7165 4.96045V8.36202H56.9764C58.6772 8.36202 59.5276 9.49588 59.5276 10.9132C59.5276 12.1888 58.6772 13.4644 56.9764 13.4644H52.7244V4.96045H53.7165ZM53.7165 9.07069V12.4723H56.9764C58.1102 12.4723 58.6772 11.7636 58.6772 10.7715C58.6772 9.77935 58.1102 9.07069 56.9764 9.07069H53.7165ZM61.0866 13.3227V4.96045H62.0787V13.3227H61.0866Z" fill="#3C3C3B"/>
<path d="M64.3465 9.07095C64.3465 6.6615 65.9055 4.67725 68.4567 4.67725C69.874 4.67725 70.7244 5.24418 71.4331 6.09457L70.8661 6.6615C70.2992 5.8111 69.4488 5.52764 68.5984 5.52764C66.6142 5.52764 65.4803 7.0867 65.4803 9.07095C65.4803 11.0552 66.4724 12.756 68.4567 12.756C69.4488 12.756 70.1575 12.4725 70.7244 11.6221L71.2913 12.1891C70.5827 13.0395 69.7323 13.6064 68.315 13.6064C65.9055 13.4646 64.3465 11.6221 64.3465 9.07095Z" fill="#3C3C3B"/>
<path d="M84.0472 4.96045V13.3227H73.2756V4.96045H74.126V12.614H78.0945V4.96045H78.9449V12.614H82.9134V4.96045H84.0472Z" fill="#3C3C3B"/>
<path d="M92.2677 13.3229V12.3308C91.5591 13.1812 90.5669 13.4646 89.4331 13.4646C88.0157 13.4646 86.4567 12.4725 86.4567 10.63C86.4567 8.78748 87.874 7.79536 89.4331 7.79536C90.5669 7.79536 91.5591 8.22055 92.2677 8.92921V7.37016C92.2677 6.09457 91.2756 5.38591 90 5.38591C89.0079 5.38591 88.1575 5.8111 87.3071 6.6615L86.7402 6.09457C87.5906 5.10244 88.5827 4.67725 90 4.67725C91.7008 4.67725 93.1181 5.52764 93.1181 7.37016V13.3229H92.2677ZM92.2677 11.6221V9.77961C91.7008 9.07095 90.7087 8.64575 89.7165 8.64575C88.2992 8.64575 87.4488 9.49614 87.4488 10.7717C87.4488 11.9056 88.2992 12.8977 89.7165 12.8977C90.7087 12.756 91.7008 12.4725 92.2677 11.6221Z" fill="#3C3C3B"/>
<path d="M95.811 13.3227L98.0787 9.92108C96.6614 9.77935 95.811 8.92895 95.811 7.51163C95.811 6.09431 96.8032 4.96045 98.3622 4.96045H102.472V13.3227H101.48V9.92108H98.9291L96.6614 13.3227H95.811ZM101.622 9.07069V5.66911H98.5039C97.3701 5.66911 96.8032 6.37777 96.8032 7.3699C96.8032 8.36202 97.3701 9.07069 98.5039 9.07069H101.622Z" fill="#3C3C3B"/>
<path d="M120.614 4.96045V13.3227H109.843V4.96045H110.693V12.614H114.803V4.96045H115.654V12.614H119.622V4.96045H120.614Z" fill="#3C3C3B"/>
<path d="M129.26 13.3227L125.858 9.35415L124.299 10.7715V13.3227H123.449V4.96045H124.299V9.77935L129.26 4.96045H130.394L126.425 8.78722L130.394 13.3227H129.26Z" fill="#3C3C3B"/>
<path d="M131.669 9.07095C131.669 6.6615 133.228 4.67725 135.78 4.67725C138.331 4.67725 139.89 6.6615 139.89 9.07095C139.89 11.4804 138.331 13.4646 135.78 13.4646C133.228 13.4646 131.669 11.6221 131.669 9.07095ZM138.898 9.07095C138.898 7.22843 137.764 5.52764 135.78 5.52764C133.795 5.52764 132.661 7.22843 132.661 9.07095C132.661 10.9135 133.795 12.6143 135.78 12.6143C137.764 12.756 138.898 10.9135 138.898 9.07095Z" fill="#3C3C3B"/>
<path d="M141.024 12.7559C141.874 12.7559 142.441 11.7637 142.724 9.07082L143.291 4.81885H148.677V13.1811H147.827V5.66924H144.142L143.717 9.21255C143.291 12.3307 142.441 13.4645 141.024 13.4645V12.7559Z" fill="#3C3C3B"/>
<path d="M156.898 13.3229V12.3308C156.189 13.1812 155.197 13.4646 154.063 13.4646C152.646 13.4646 151.087 12.4725 151.087 10.63C151.087 8.78748 152.504 7.79536 154.063 7.79536C155.197 7.79536 156.189 8.22055 156.898 8.92921V7.37016C156.898 6.09457 155.906 5.38591 154.63 5.38591C153.638 5.38591 152.787 5.8111 151.937 6.6615L151.37 6.09457C152.22 5.10244 153.213 4.67725 154.63 4.67725C156.331 4.67725 157.748 5.52764 157.748 7.37016V13.3229H156.898ZM156.898 11.6221V9.77961C156.331 9.07095 155.339 8.64575 154.346 8.64575C152.929 8.64575 152.079 9.49614 152.079 10.7717C152.079 11.9056 152.929 12.8977 154.346 12.8977C155.339 12.756 156.331 12.4725 156.898 11.6221Z" fill="#3C3C3B"/>
<path d="M46.7717 27.2126H44.7874V32.5985H42.0945V19.8425H44.7874V24.8032H46.7717C47.3386 21.6851 49.8898 19.5591 53.2913 19.5591C57.1181 19.5591 59.9528 22.252 59.9528 26.0788C59.9528 29.9055 57.1181 32.5985 53.2913 32.5985C49.748 32.7402 47.1969 30.4725 46.7717 27.2126ZM57.1181 26.2205C57.1181 23.8111 55.5591 22.1103 53.2913 22.1103C50.8819 22.1103 49.4646 23.9528 49.4646 26.2205C49.4646 28.6299 51.0236 30.3307 53.2913 30.3307C55.7008 30.3307 57.1181 28.4882 57.1181 26.2205Z" fill="#3C3C3B"/>
<path d="M64.2047 31.323V36.0002H61.7953V23.386H64.2047V24.5199C64.9134 23.6695 65.9055 23.1025 67.0394 23.1025C69.4488 23.1025 71.1496 24.8033 71.1496 27.9214C71.1496 31.0395 69.4488 32.7403 67.0394 32.7403C65.9055 32.7403 64.9134 32.3151 64.2047 31.323ZM68.5984 27.9214C68.5984 26.3624 67.6063 25.2285 66.3307 25.2285C65.622 25.2285 64.6299 25.6537 64.2047 26.2206V29.4805C64.6299 30.0474 65.4803 30.4726 66.3307 30.4726C67.6063 30.6144 68.5984 29.4805 68.5984 27.9214Z" fill="#3C3C3B"/>
<path d="M72.8504 32.4567V23.2441H75.2598V28.7717L79.0866 23.2441H81.4961V32.4567H79.0866V26.6457L75.1181 32.4567H72.8504Z" fill="#3C3C3B"/>
<path d="M83.1969 27.9214C83.1969 25.0868 85.1811 23.1025 88.0157 23.1025C89.8583 23.1025 90.9921 23.9529 91.7008 24.8033L90.1417 26.2207C89.7165 25.512 89.0079 25.2285 88.1575 25.2285C86.7402 25.2285 85.6063 26.3624 85.6063 27.9214C85.6063 29.4805 86.5984 30.6144 88.1575 30.6144C89.0079 30.6144 89.7165 30.1892 90.1417 29.6222L91.7008 31.0395C91.1339 31.8899 90 32.7403 88.0157 32.7403C85.3228 32.7403 83.1969 30.7561 83.1969 27.9214Z" fill="#3C3C3B"/>
<path d="M94.9606 32.4567V25.3701H92.4094V23.2441H99.9213V25.3701H97.3701V32.4567H94.9606Z" fill="#3C3C3B"/>
<path d="M112.252 32.4567L109.843 28.9134L108.709 30.0473V32.4567H106.299V23.2441H108.709V27.3544L112.252 23.2441H115.228L111.543 27.3544L115.228 32.315H112.252V32.4567Z" fill="#3C3C3B"/>
<path d="M115.937 27.9214C115.937 25.3703 117.78 23.1025 120.756 23.1025C123.732 23.1025 125.575 25.3703 125.575 27.9214C125.575 30.4726 123.732 32.7403 120.756 32.7403C117.78 32.7403 115.937 30.4726 115.937 27.9214ZM123.165 27.9214C123.165 26.5041 122.315 25.2285 120.756 25.2285C119.197 25.2285 118.488 26.5041 118.488 27.9214C118.488 29.3388 119.339 30.6144 120.756 30.6144C122.173 30.6144 123.165 29.3388 123.165 27.9214Z" fill="#3C3C3B"/>
<path d="M135.78 32.4567V26.504L133.37 32.4567H132.236L129.827 26.504V32.4567H127.417V23.2441H130.535L132.803 28.7717L135.071 23.2441H138.331V32.4567H135.78Z" fill="#3C3C3B"/>
<path d="M146.835 32.4567V25.3701H143.008V32.4567H140.598V23.2441H149.244V32.4567H146.835Z" fill="#3C3C3B"/>
<path d="M157.181 32.4569V31.4647C156.614 32.1734 155.48 32.5986 154.205 32.5986C152.787 32.5986 150.945 31.6065 150.945 29.6222C150.945 27.4962 152.646 26.6458 154.205 26.6458C155.48 26.6458 156.472 27.071 157.181 27.7797V26.5041C157.181 25.512 156.331 24.9451 155.197 24.9451C154.205 24.9451 153.354 25.3703 152.504 26.0789L151.654 24.5199C152.787 23.5277 154.205 23.1025 155.622 23.1025C157.748 23.1025 159.591 23.9529 159.591 26.6458V32.5986H157.181V32.4569ZM157.181 30.3309V29.197C156.756 28.6301 156.047 28.3466 155.197 28.3466C154.205 28.3466 153.496 28.7718 153.496 29.764C153.496 30.6144 154.205 31.1813 155.197 31.1813C156.047 31.0395 156.756 30.7561 157.181 30.3309Z" fill="#3C3C3B"/>
<path d="M162 32.4567V23.2441H164.409V26.6457H168.236V23.2441H170.646V32.4567H168.236V28.7717H164.409V32.4567H162Z" fill="#3C3C3B"/>
<path d="M172.913 32.4567V23.2441H175.323V28.7717L179.15 23.2441H181.559V32.4567H179.15V26.6457L175.323 32.4567H172.913Z" fill="#3C3C3B"/>
<path d="M183.968 32.4567V23.2441H186.378V28.7717L190.205 23.2441H192.614V32.4567H190.205V26.6457L186.378 32.4567H183.968Z" fill="#3C3C3B"/>
</g>
<defs>
<clipPath id="clip0_119_127">
<rect width="192.614" height="36" fill="white"/>
</clipPath>
</defs>
</svg>
