<svg width="118" height="36" viewBox="0 0 118 36" fill="none" xmlns="http://www.w3.org/2000/svg">
<g clip-path="url(#clip0_131_3556)">
<path d="M91.3614 24.958C91.3614 29.1176 92.874 30.7815 96.6555 30.7815C98.0168 30.7815 99.3025 30.6303 100.664 30.2521C100.966 30.1765 101.042 30.1008 101.042 29.7227V27.605C101.042 27.3025 101.042 27.1513 101.042 27.0756C101.042 26.9244 100.966 26.8487 100.739 26.8487H100.134C99.605 26.8487 99.605 27 99.5294 27.4538C99.3025 29.1176 98.6218 29.7983 97.1849 29.7983C95.1429 29.7983 94.7647 28.3613 94.7647 24.7311C94.7647 21.479 95.3698 20.042 97.3361 20.042C98.6975 20.042 99.2269 20.6471 99.5294 21.9328C99.6807 22.5378 99.605 22.6891 100.134 22.6891H100.664C100.966 22.6891 100.966 22.5378 100.966 22.1597V20.7983C100.966 20.7227 100.966 20.5714 100.966 20.2689C100.966 19.8151 99.2269 19.2101 96.7311 19.2101C93.1008 19.2857 91.3614 21.0252 91.3614 24.958ZM80.5462 24.958C80.5462 29.1176 82.0588 30.7815 85.8403 30.7815C87.2017 30.7815 88.4874 30.6303 89.8487 30.2521C90.1513 30.1765 90.2269 30.1008 90.2269 29.7227V27.605C90.2269 27.3025 90.2269 27.1513 90.2269 27.0756C90.2269 26.9244 90.1513 26.8487 89.9244 26.8487H89.2437C88.7143 26.8487 88.7143 27 88.6387 27.4538C88.4118 29.1176 87.7311 29.7983 86.2941 29.7983C84.2521 29.7983 83.874 28.3613 83.874 24.7311C83.874 21.479 84.479 20.042 86.4454 20.042C87.8067 20.042 88.3361 20.6471 88.6387 21.9328C88.7899 22.5378 88.7143 22.6891 89.2437 22.6891H89.7731C90.0756 22.6891 90.0756 22.5378 90.0756 22.1597V20.7983C90.0756 20.7227 90.0756 20.5714 90.0756 20.2689C90.0756 19.8151 88.3361 19.2101 85.8403 19.2101C82.2101 19.2857 80.5462 21.0252 80.5462 24.958ZM72.7563 22.8403C72.7563 20.9496 73.2101 20.1933 74.4958 20.1933C75.7815 20.1933 76.2353 21.0252 76.2353 22.916V24.2773H72.7563V22.8403ZM69.2773 25.2605C69.2773 29.1933 70.7143 30.7815 74.3445 30.7815C77.3698 30.7815 78.958 29.7983 78.958 27.7563C78.958 27.3025 78.8824 27.1513 78.4286 27.1513H77.5966C76.9916 27.1513 77.0672 27.5294 76.916 28.0588C76.6134 29.2689 75.9328 29.7983 74.7983 29.7983C73.1345 29.7983 72.6807 28.6639 72.6807 26.0924C72.6807 25.7899 72.6807 25.4874 72.6807 25.1849H78.8067C79.1849 25.1849 79.2605 25.0336 79.2605 24.5798C79.2605 20.8739 78.0504 19.2857 74.4958 19.2857C70.7899 19.2857 69.2773 21.0252 69.2773 25.2605ZM57.0252 21.8571V28.2101C57.0252 29.1176 57.0252 29.4958 56.3445 29.5714L55.8151 29.6471C55.437 29.7227 55.3613 29.6471 55.3613 30.0252C55.3613 30.4034 55.437 30.5546 55.8151 30.5546C56.042 30.5546 57.4034 30.479 58.4622 30.479H65.3445C67.2353 30.479 67.3866 31.4622 67.6891 32.521C67.916 33.2773 67.8403 33.5798 68.2941 33.5798H68.521C68.7479 33.5798 68.8992 33.5042 68.8992 33.2017V30.2521C68.8992 29.5714 68.4454 29.6471 67.8403 29.6471C67.2353 29.6471 67.1597 29.4202 67.1597 27.9076V21.9328C67.1597 21.0252 67.1597 20.6471 67.8403 20.5714L68.3698 20.4958C68.7479 20.4202 68.8235 20.4958 68.8235 20.1176C68.8235 19.6639 68.7479 19.5882 68.3698 19.5882C68.1429 19.5882 67.2353 19.6639 65.7227 19.6639C64.2857 19.6639 63.3782 19.5882 63.0756 19.5882C62.6975 19.5882 62.6219 19.6639 62.6219 20.042C62.6219 20.4958 62.6975 20.4202 63.0756 20.4958L63.4538 20.5714C63.9076 20.6471 63.9832 20.6471 63.9832 21.7059V29.6471H60.3529V21.6303C60.3529 20.5714 60.3529 20.5714 60.8824 20.4958L61.2605 20.4202C61.6387 20.3445 61.7143 20.4202 61.7143 19.9664C61.7143 19.5882 61.6387 19.5126 61.2605 19.5126C60.958 19.5126 60.0504 19.5882 58.6134 19.5882C57.1008 19.5882 56.1933 19.5126 55.9664 19.5126C55.5882 19.5126 55.5126 19.5882 55.5126 20.042C55.5126 20.4958 55.5882 20.4202 55.9664 20.4202L56.4958 20.4958C57.0252 20.6471 57.0252 20.9496 57.0252 21.8571ZM47.1933 25.0336C47.1933 21.5546 47.2689 20.1176 49.3109 20.1176C51.3529 20.1176 51.4286 21.5546 51.4286 25.0336C51.4286 28.5126 51.2773 29.874 49.3109 29.874C47.3445 29.9496 47.1933 28.5126 47.1933 25.0336ZM43.7899 25.0336C43.7899 29.1176 45.2269 30.7815 49.3866 30.7815C53.4706 30.7815 54.9832 29.1176 54.9832 24.7311C54.9832 20.7983 53.395 19.2101 49.3866 19.2101C45.2269 19.2857 43.7899 20.9496 43.7899 25.0336ZM34.8655 24.5798C34.8655 21.7815 35.395 20.4202 36.9832 20.4202C38.7983 20.4202 39.1008 21.7815 39.1008 24.8824C39.1008 28.1345 38.7983 29.6471 36.9832 29.6471C35.0924 29.6471 34.8655 28.2101 34.8655 24.5798ZM31.6134 21.8571V33.7311C31.6134 34.6387 31.6134 35.0168 30.9328 35.0924L30.4034 35.1681C30.0252 35.2437 29.9496 35.1681 29.9496 35.6218C29.9496 36.0756 30.0252 36.0756 30.4034 36.0756C30.7815 36.0756 31.6891 36 33.2773 36C34.8655 36 35.7731 36.0756 36.1513 36.0756C36.5294 36.0756 36.5294 36 36.5294 35.6218C36.5294 35.2437 36.5294 35.2437 36.1513 35.1681L35.5462 35.0168C34.8655 34.9412 34.8655 34.563 34.8655 33.6555V29.6471C35.6975 30.479 36.605 30.8571 37.8908 30.8571C41.0672 30.8571 42.5798 28.9664 42.5798 25.0336C42.5798 21.1765 41.1429 19.2857 38.1176 19.2857C36.7563 19.2857 35.6218 19.7395 34.7143 20.7227V19.6639C34.7143 19.5126 34.6387 19.437 34.4874 19.437H34.4118H33.958C32.9748 19.5126 31.916 19.5882 30.9328 19.5882H30.3277C29.9496 19.5882 29.9496 19.5882 29.9496 20.042C29.9496 20.4202 29.9496 20.4958 30.3277 20.4958H30.8571C31.5378 20.5714 31.6134 20.8739 31.6134 21.8571ZM17.3193 21.8571V28.2101C17.3193 29.1176 17.3193 29.4958 16.6387 29.5714L16.1092 29.6471C15.7311 29.7227 15.6555 29.6471 15.6555 30.0252C15.6555 30.4034 15.7311 30.5546 16.1092 30.5546C16.3361 30.5546 17.2437 30.479 18.7563 30.479C20.1933 30.479 21.1008 30.5546 21.4034 30.5546C21.7815 30.5546 21.8571 30.479 21.8571 30.1008C21.8571 29.6471 21.7815 29.7227 21.4034 29.6471L21.0252 29.5714C20.5714 29.4958 20.4958 29.1933 20.4958 28.437V20.4958H24.2773V28.437C24.2773 29.1933 24.2773 29.4958 23.7479 29.5714L23.4454 29.6471C23.0672 29.7227 22.9916 29.6471 22.9916 30.1008C22.9916 30.479 23.0672 30.5546 23.4454 30.5546C23.7479 30.5546 24.6555 30.479 26.0924 30.479C27.605 30.479 28.5126 30.5546 28.7395 30.5546C29.1176 30.5546 29.1933 30.479 29.1933 30.0252C29.1933 29.5714 29.1176 29.6471 28.7395 29.6471L28.2101 29.5714C27.5294 29.4958 27.5294 29.1933 27.5294 28.2101V21.8571C27.5294 20.9496 27.5294 20.5714 28.2101 20.4958L28.7395 20.4202C29.1176 20.3445 29.1933 20.4202 29.1933 20.042C29.1933 19.5882 29.1176 19.5126 28.7395 19.5126C28.5126 19.5126 26.0168 19.5882 24.2773 19.5882H20.4958C18.7563 19.5882 16.3361 19.5126 16.0336 19.5126C15.6555 19.5126 15.5798 19.5882 15.5798 20.042C15.5798 20.4958 15.6555 20.4202 16.0336 20.4202L16.563 20.4958C17.2437 20.6471 17.3193 20.9496 17.3193 21.8571ZM17.6975 1.13445C17.6975 0.680672 17.6975 0.605042 17.2437 0.605042C17.0924 0.605042 16.6387 0.756303 14.9748 0.756303C13.3866 0.756303 12.5546 0.680672 12.4034 0.680672C11.9496 0.680672 11.9496 0.756303 11.9496 1.21008V1.36134C11.9496 1.66387 11.9496 1.7395 12.3277 1.7395H12.8571C13.4622 1.7395 13.6891 2.04202 13.6891 2.57143C13.6891 3.02521 13.5378 3.85714 12.8571 5.52101L10.5126 11.042L7.71429 4.84034C7.33613 3.93277 6.95798 3.32773 6.95798 2.64706C6.95798 2.04202 7.2605 1.7395 7.86555 1.66387H8.16807C8.62185 1.58824 8.69748 1.66387 8.69748 1.13445C8.69748 0.680672 8.62185 0.605042 8.16807 0.605042C7.94118 0.605042 6.65546 0.680672 4.31092 0.680672C2.04202 0.756303 0.756303 0.605042 0.529412 0.605042C0.0756302 0.605042 0 0.680672 0 1.13445C0 1.51261 0.0756302 1.66387 0.302521 1.66387L0.907563 1.7395C1.7395 1.81513 2.26891 2.4958 2.94958 3.93277C2.94958 3.93277 8.09244 13.9916 8.54622 14.9748C8.16807 15.8824 7.71429 16.7143 6.80672 16.7143C6.27731 16.7143 5.29412 16.2605 4.76471 16.2605C4.15966 16.2605 3.47899 16.4874 3.47899 17.7731C3.47899 19.1345 4.08403 19.5126 5.36975 19.5126C7.10924 19.5126 8.31933 17.9244 9.60504 15.6555C10.5126 14.0672 11.9496 11.1933 13.084 8.54622C16.0336 2.11765 16.4118 1.81513 16.9412 1.81513H17.3193C17.6975 1.66387 17.6975 1.66387 17.6975 1.13445ZM24.8067 5.52101C24.8067 5.06723 24.958 4.84034 23.3697 4.84034L19.9664 4.91597C18.2269 4.91597 16.3361 4.84034 16.1092 4.84034C15.7311 4.84034 15.7311 4.91597 15.7311 5.29412C15.7311 5.67227 15.8067 5.67227 16.1092 5.67227L16.563 5.7479C17.2437 5.82353 17.2437 6.12605 17.2437 7.03361V13.2353C17.2437 14.1429 17.2437 14.4454 16.563 14.521L16.1092 14.5966C15.7311 14.6723 15.7311 14.5966 15.7311 14.9748C15.7311 15.3529 15.8067 15.4286 16.1092 15.4286C16.3361 15.4286 17.2437 15.3529 18.6807 15.3529C20.1176 15.3529 21.3277 15.4286 21.6303 15.4286C21.9328 15.4286 22.0084 15.3529 22.0084 14.9748C22.0084 14.521 21.9328 14.5966 21.6303 14.521L20.9496 14.4454C20.4958 14.4454 20.4958 14.0672 20.4958 13.3109V5.67227H21.1008C23.2185 5.67227 23.2185 6.05042 23.521 7.18487C23.6723 7.86555 23.6723 7.94118 24.1261 7.94118H24.5042C24.7311 7.94118 24.8824 7.86555 24.8824 7.56303V5.52101H24.8067ZM32.7479 10.1345C32.7479 13.4622 32.5966 14.8992 30.6303 14.8992C28.6639 14.8992 28.5882 13.5378 28.5882 10.1345C28.5882 6.73109 28.6639 5.36975 30.6303 5.36975C32.5966 5.36975 32.7479 6.73109 32.7479 10.1345ZM36.0756 9.83193C36.0756 6.05042 34.4874 4.46218 30.6303 4.46218C26.6218 4.46218 25.1849 6.05042 25.1849 10.1345C25.1849 14.1429 26.6218 15.7311 30.6303 15.7311C34.6387 15.7311 36.0756 14.0672 36.0756 9.83193ZM46.8151 13.2353V7.03361C46.8151 6.12605 46.8151 5.82353 47.4958 5.7479L47.9496 5.67227C48.3277 5.59664 48.3277 5.67227 48.3277 5.29412C48.3277 4.91597 48.2521 4.84034 47.9496 4.84034C47.7227 4.84034 45.3025 4.91597 43.6387 4.91597H41.4454C40.3109 4.91597 38.7227 4.84034 38.4958 4.84034C38.1176 4.84034 38.1176 4.91597 38.1176 5.29412C38.1176 5.67227 38.1933 5.67227 38.5714 5.67227L39.0252 5.7479C39.7059 5.82353 40.084 6.20168 40.084 7.41177C40.084 7.94118 40.0084 9.60504 39.7815 10.8908C39.5546 12.0252 39.2521 13.3866 38.4958 13.3866C38.1176 13.3866 37.8908 13.2353 37.2857 13.2353C36.6807 13.2353 36.4538 13.6891 36.4538 14.3697C36.4538 15.1261 36.6807 15.5798 37.437 15.5798C38.9496 15.5798 39.6303 14.2941 40.1597 12.8571C40.7647 11.2689 40.916 8.92437 40.9916 7.33613C41.0672 6.27731 41.1429 5.59664 42.0504 5.59664H43.6387V13.3866C43.6387 14.1429 43.6387 14.4454 43.1849 14.521L42.5798 14.5966C42.2017 14.5966 42.2017 14.5966 42.2017 15.0504C42.2017 15.4286 42.2773 15.5042 42.5798 15.5042C42.8824 15.5042 44.0168 15.4286 45.3782 15.4286C46.8908 15.4286 47.7227 15.5042 47.9496 15.5042C48.3277 15.5042 48.3277 15.4286 48.3277 15.0504C48.3277 14.6723 48.2521 14.6723 47.9496 14.6723L47.4958 14.5966C46.8151 14.4454 46.8151 14.1429 46.8151 13.2353ZM56.1176 10.1345C56.1176 13.4622 55.9664 14.8992 54 14.8992C52.0336 14.8992 51.958 13.5378 51.958 10.1345C51.958 6.73109 52.0336 5.36975 54 5.36975C55.9664 5.36975 56.1176 6.73109 56.1176 10.1345ZM59.4454 9.83193C59.4454 6.05042 57.8571 4.46218 54 4.46218C49.9916 4.46218 48.5546 6.05042 48.5546 10.1345C48.5546 14.1429 49.9916 15.7311 54 15.7311C58.0084 15.7311 59.4454 14.0672 59.4454 9.83193ZM67.8403 12.479C67.8403 13.916 67.3109 14.5966 65.5714 14.5966C64.3613 14.5966 64.3613 14.4454 64.3613 13.4622V10.3613H65.2689C66.7815 10.3613 67.8403 10.5126 67.8403 12.479ZM67.4622 7.48739C67.4622 8.2437 67.3109 9.07563 66.479 9.37815C65.9496 9.60504 65.3445 9.60504 64.7395 9.60504H64.3613V6.5042C64.3613 5.82353 64.5882 5.67227 65.2689 5.67227C66.7815 5.67227 67.4622 6.05042 67.4622 7.48739ZM67.4622 9.90756V9.83193C68.6723 9.60504 70.563 9.07563 70.563 7.18487C70.563 4.91597 68.8235 4.84034 66.1008 4.84034C64.8151 4.84034 63.9832 4.91597 62.5462 4.91597C61.1092 4.91597 60.2017 4.84034 59.9748 4.84034C59.5966 4.84034 59.5966 4.91597 59.5966 5.29412C59.5966 5.67227 59.6723 5.67227 59.9748 5.67227H60.5042C61.1849 5.7479 61.1849 6.05042 61.1849 6.95798V13.1597C61.1849 14.0672 61.1849 14.3697 60.5042 14.4454L60.0504 14.521C59.6723 14.5966 59.6723 14.521 59.6723 14.8992C59.6723 15.2773 59.7479 15.3529 60.0504 15.3529C60.2773 15.3529 61.1849 15.2773 62.6219 15.2773C64.0588 15.2773 64.437 15.4286 65.7227 15.4286C69.2017 15.4286 71.0168 14.8235 71.0168 12.3277C71.0168 10.1345 68.521 10.0588 67.4622 9.90756ZM83.2689 13.2353V7.03361C83.2689 6.12605 83.2689 5.82353 83.9496 5.7479L84.4034 5.67227C84.7815 5.59664 84.7815 5.67227 84.7815 5.29412C84.7815 4.91597 84.7059 4.84034 84.4034 4.84034C84.1765 4.84034 83.2689 4.91597 81.8319 4.91597C80.395 4.91597 79.563 4.84034 79.2605 4.84034C78.8824 4.84034 78.8824 4.91597 78.8824 5.29412C78.8824 5.7479 78.958 5.67227 79.2605 5.7479L79.6387 5.82353C80.0924 5.89916 80.0924 5.89916 80.0924 6.95798V9.7563H76.3866V6.80672C76.3866 5.82353 76.3866 5.7479 76.8403 5.67227L77.2185 5.59664C77.5966 5.52101 77.5966 5.59664 77.5966 5.14286C77.5966 4.76471 77.521 4.68908 77.2185 4.68908C76.916 4.68908 76.0084 4.76471 74.6471 4.76471C73.1345 4.76471 72.3025 4.68908 72.0756 4.68908C71.6975 4.68908 71.6975 4.76471 71.6975 5.14286C71.6975 5.52101 71.7731 5.52101 72.0756 5.52101L72.5294 5.59664C73.2101 5.67227 73.2101 5.97479 73.2101 6.88235V13.084C73.2101 13.9916 73.2101 14.2941 72.5294 14.3697L72.0756 14.4454C71.6975 14.521 71.6975 14.4454 71.6975 14.8235C71.6975 15.2017 71.7731 15.2773 72.0756 15.2773C72.3025 15.2773 73.2101 15.2017 74.6471 15.2017C76.084 15.2017 76.916 15.2773 77.2185 15.2773C77.5966 15.2773 77.5966 15.2017 77.5966 14.8235C77.5966 14.3697 77.521 14.4454 77.2185 14.3697L76.8403 14.2941C76.3866 14.2185 76.3866 13.916 76.3866 13.1597V10.0588H80.0924V13.1597C80.0924 13.916 80.0924 14.2185 79.6387 14.2941L79.2605 14.3697C78.8824 14.4454 78.8824 14.3697 78.8824 14.8235C78.8824 15.2017 78.958 15.2773 79.2605 15.2773C79.563 15.2773 80.4706 15.2017 81.8319 15.2017C83.3445 15.2017 84.1765 15.2773 84.4034 15.2773C84.7815 15.2773 84.7815 15.2017 84.7815 14.8235C84.7815 14.4454 84.7059 14.4454 84.4034 14.4454L83.9496 14.3697C83.2689 14.4454 83.2689 14.1429 83.2689 13.2353ZM93.9328 12.479C93.9328 13.916 93.4034 14.6723 91.6639 14.6723C90.9832 14.6723 90.5294 14.521 90.5294 13.4622V9.98319C90.5294 9.98319 90.8319 9.90756 91.7395 9.90756C93.6303 9.90756 93.9328 11.042 93.9328 12.479ZM97.0336 12.2521C97.0336 9.68067 94.9916 9 92.7983 9C91.5126 9 90.4538 9.15126 90.4538 9.15126V7.03361C90.4538 6.12605 90.4538 5.82353 91.1345 5.7479L91.5882 5.67227C91.9664 5.59664 91.9664 5.67227 91.9664 5.29412C91.9664 4.91597 91.8908 4.84034 91.5882 4.84034C91.3613 4.84034 90.3025 4.91597 88.8655 4.91597C87.4286 4.91597 86.3698 4.84034 86.0672 4.84034C85.6891 4.84034 85.6891 4.91597 85.6891 5.29412C85.6891 5.67227 85.7647 5.67227 86.0672 5.67227L86.521 5.7479C87.2017 5.82353 87.2017 6.12605 87.2017 7.03361V13.2353C87.2017 14.1429 87.2017 14.4454 86.521 14.521L86.0672 14.5966C85.6891 14.6723 85.6891 14.5966 85.6891 14.9748C85.6891 15.3529 85.7647 15.4286 86.0672 15.4286C86.2941 15.4286 87.2017 15.3529 88.6387 15.3529C90.0756 15.3529 90.9832 15.5042 92.042 15.5042C95.5966 15.5042 97.0336 14.3697 97.0336 12.2521ZM101.798 13.2353V7.03361C101.798 6.12605 101.798 5.82353 102.479 5.7479L102.933 5.67227C103.311 5.59664 103.311 5.67227 103.311 5.29412C103.311 4.91597 103.235 4.84034 102.933 4.84034C102.706 4.84034 101.798 4.91597 100.361 4.91597C98.9244 4.91597 97.8655 4.84034 97.563 4.84034C97.1849 4.84034 97.1849 4.91597 97.1849 5.29412C97.1849 5.7479 97.2605 5.67227 97.563 5.7479L98.1681 5.82353C98.6219 5.89916 98.6218 5.89916 98.6218 6.95798V13.6134C98.6218 14.3697 98.6219 14.6723 98.1681 14.7479L97.563 14.8235C97.1849 14.8235 97.1849 14.8235 97.1849 15.2773C97.1849 15.6555 97.2605 15.7311 97.563 15.7311C97.8655 15.7311 99 15.6555 100.361 15.6555C101.874 15.6555 102.706 15.7311 102.933 15.7311C103.311 15.7311 103.311 15.6555 103.311 15.2773C103.311 14.8992 103.235 14.8992 102.933 14.8992L102.479 14.8235C101.798 14.4454 101.798 14.1429 101.798 13.2353ZM114.353 0.831933C114.353 0.151261 113.975 0 112.992 0C112.311 0 112.16 0.605042 112.16 0.983193C112.008 1.96639 112.008 2.72269 110.723 2.72269C109.437 2.72269 109.361 2.04202 109.21 0.983193C109.059 0.605042 108.908 0 108.303 0C107.319 0 106.941 0.151261 106.941 0.831933C106.941 1.43697 107.319 3.47899 110.647 3.47899C113.899 3.47899 114.353 1.43697 114.353 0.831933ZM117.303 5.21849C117.303 4.84034 117.227 4.76471 116.924 4.76471C116.697 4.76471 115.79 4.84034 114.353 4.84034C112.916 4.84034 112.084 4.76471 111.782 4.76471C111.403 4.76471 111.403 4.84034 111.403 5.21849C111.403 5.67227 111.479 5.59664 111.782 5.67227L112.16 5.7479C112.613 5.82353 112.613 5.82353 112.613 6.88235V7.03361L108.908 11.874V6.80672C108.908 5.82353 108.908 5.7479 109.361 5.67227L109.74 5.59664C110.118 5.52101 110.118 5.59664 110.118 5.14286C110.118 4.76471 110.042 4.68908 109.74 4.68908C109.437 4.68908 108.529 4.76471 107.168 4.76471C105.655 4.76471 104.824 4.68908 104.597 4.68908C104.218 4.68908 104.218 4.76471 104.218 5.14286C104.218 5.52101 104.294 5.52101 104.597 5.52101L105.05 5.59664C105.731 5.67227 105.731 5.97479 105.731 6.88235V13.084C105.731 13.9916 105.731 14.2941 105.05 14.3697L104.597 14.4454C104.218 14.521 104.218 14.4454 104.218 14.8235C104.218 15.2017 104.294 15.2773 104.597 15.2773C104.824 15.2773 105.731 15.2017 107.168 15.2017C108.605 15.2017 109.437 15.2773 109.74 15.2773C110.118 15.2773 110.118 15.2017 110.118 14.8235C110.118 14.3697 110.042 14.4454 109.74 14.3697L109.361 14.2941C108.908 14.2185 108.908 13.916 108.908 13.1597V12.9328L112.613 8.09244V13.1597C112.613 13.916 112.613 14.2185 112.16 14.2941L111.782 14.3697C111.403 14.4454 111.403 14.3697 111.403 14.8235C111.403 15.2017 111.479 15.2773 111.782 15.2773C112.084 15.2773 112.992 15.2017 114.353 15.2017C115.866 15.2017 116.697 15.2773 116.924 15.2773C117.303 15.2773 117.303 15.2017 117.303 14.8235C117.303 14.4454 117.227 14.4454 116.924 14.4454L116.471 14.3697C115.79 14.2941 115.79 13.9916 115.79 13.084V7.03361C115.79 6.12605 115.79 5.82353 116.471 5.7479L116.924 5.67227C117.303 5.59664 117.303 5.67227 117.303 5.21849Z" fill="#B6964A"/>
</g>
<defs>
<clipPath id="clip0_131_3556">
<rect width="117.303" height="36" fill="white"/>
</clipPath>
</defs>
</svg>
