<svg width="106" height="36" viewBox="0 0 106 36" fill="none" xmlns="http://www.w3.org/2000/svg">
<g clip-path="url(#clip0_119_106)">
<path d="M0.282353 33.6C8.89412 33.6 15.8118 26.1176 15.8118 16.8C15.9529 7.48235 8.89412 0 0.423529 0H0V33.6H0.282353Z" fill="#62358C"/>
<path d="M33.6 33.6L17.7882 16.8L33.6 0V33.6Z" fill="#62358C"/>
<path d="M41.6471 7.19992C41.6471 3.67051 44.1882 1.27051 47.5765 1.27051C49.4118 1.27051 50.8235 2.11757 51.8118 3.24698L50.8235 3.81168C50.1176 2.82345 48.8471 2.11757 47.4353 2.11757C44.7529 2.11757 42.6353 4.23521 42.6353 7.19992C42.6353 10.1646 44.7529 12.2823 47.4353 12.2823C48.8471 12.2823 50.1176 11.5764 50.8235 10.5882L51.6706 11.1529C50.6823 12.4234 49.2706 13.2705 47.4353 13.2705C44.1882 13.1293 41.6471 10.7293 41.6471 7.19992Z" fill="#3C3C3B"/>
<path d="M53.6471 12.9882V4.51758H54.4941V11.4352L59.2941 4.51758H60.1412V12.847H59.2941V5.78817L54.4941 12.847H53.6471V12.9882Z" fill="#3C3C3B"/>
<path d="M62.5412 8.75293C62.5412 6.35294 64.0941 4.37646 66.6353 4.37646C68.0471 4.37646 68.8941 4.94117 69.6 5.78823L69.0353 6.35294C68.4706 5.50588 67.6235 5.22352 66.7765 5.22352C64.8 5.22352 63.6706 6.77646 63.6706 8.75293C63.6706 10.7294 64.8 12.2823 66.7765 12.2823C67.7647 12.2823 68.4706 12 69.0353 11.1529L69.6 11.7176C68.8941 12.5647 68.0471 13.1294 66.6353 13.1294C64.2353 13.1294 62.5412 11.1529 62.5412 8.75293Z" fill="#3C3C3B"/>
<path d="M73.1294 12.9882V5.36464H70.7294V4.51758H76.5176V5.36464H73.9765V12.9882H73.1294Z" fill="#3C3C3B"/>
<path d="M77.9294 8.75294C77.9294 6.35294 79.6235 4.37646 82.0235 4.37646C84.5647 4.37646 85.9765 6.35294 85.9765 8.75294V9.03529H78.9176C79.0588 10.8706 80.1882 12.4235 82.1647 12.4235C83.1529 12.4235 84.1412 12 84.8471 11.2941L85.2706 11.8588C84.4235 12.7059 83.4353 13.2706 82.0235 13.2706C79.6235 13.1294 77.9294 11.2941 77.9294 8.75294ZM81.8824 5.08235C79.9059 5.08235 78.9176 6.77647 78.7765 8.32941H84.8471C84.9882 6.91764 84 5.08235 81.8824 5.08235Z" fill="#3C3C3B"/>
<path d="M95.2941 12.9882V5.78817L92.4706 12.9882H92.1882L89.2235 5.78817V12.9882H88.3765V4.51758H89.6471L92.3294 11.294L95.0118 4.51758H96.2823V12.847H95.2941V12.9882Z" fill="#3C3C3B"/>
<path d="M104.329 12.9882V12C103.624 12.8471 102.635 13.1294 101.506 13.1294C100.094 13.1294 98.5412 12.1412 98.5412 10.3059C98.5412 8.47058 99.9529 7.48235 101.506 7.48235C102.635 7.48235 103.624 7.90588 104.329 8.61176V7.05882C104.329 5.78823 103.341 5.08235 102.071 5.08235C101.082 5.08235 100.235 5.50588 99.3882 6.35294L98.8235 5.78823C99.6706 4.79999 100.659 4.37646 102.071 4.37646C103.765 4.37646 105.176 5.22352 105.176 7.05882V12.9882H104.329ZM104.329 11.2941V9.45882C103.765 8.75293 102.776 8.32941 101.788 8.32941C100.376 8.32941 99.5294 9.17647 99.5294 10.4471C99.5294 11.5765 100.376 12.5647 101.788 12.5647C102.776 12.4235 103.765 12.1412 104.329 11.2941Z" fill="#3C3C3B"/>
<path d="M46.5882 27.247H44.6118V32.6117H41.9294V20.047H44.6118V24.9882H46.5882C47.1529 21.8823 49.6941 19.7646 53.0823 19.7646C56.8941 19.7646 59.7176 22.447 59.7176 26.2588C59.7176 30.0705 56.8941 32.7529 53.0823 32.7529C49.5529 32.7529 47.0118 30.4941 46.5882 27.247ZM56.8941 26.2588C56.8941 23.8588 55.3412 22.1646 53.0823 22.1646C50.6823 22.1646 49.2706 23.9999 49.2706 26.2588C49.2706 28.6588 50.8235 30.3529 53.0823 30.3529C55.4823 30.4941 56.8941 28.6588 56.8941 26.2588Z" fill="#3C3C3B"/>
<path d="M63.9529 31.3411V35.9999H61.5529V23.4352H63.9529V24.5646C64.6588 23.7175 65.6471 23.1528 66.7765 23.1528C69.1765 23.1528 70.8706 24.8469 70.8706 27.9528C70.8706 31.0587 69.1765 32.7528 66.7765 32.7528C65.6471 32.7528 64.6588 32.3293 63.9529 31.3411ZM68.3294 27.9528C68.3294 26.3999 67.3412 25.2705 66.0706 25.2705C65.3647 25.2705 64.3765 25.694 63.9529 26.2587V29.647C64.3765 30.2117 65.2235 30.6352 66.0706 30.6352C67.3412 30.6352 68.3294 29.647 68.3294 27.9528Z" fill="#3C3C3B"/>
<path d="M72.5647 32.6118V23.4353H74.9647V28.9412L78.7765 23.4353H81.1765V32.6118H78.7765V26.8235L74.8235 32.6118H72.5647Z" fill="#3C3C3B"/>
<path d="M82.8706 27.9528C82.8706 25.1293 84.8471 23.1528 87.6706 23.1528C89.5059 23.1528 90.6353 23.9999 91.3412 24.847L89.7882 26.2587C89.3647 25.5528 88.6588 25.2705 87.8118 25.2705C86.4 25.2705 85.2706 26.3999 85.2706 27.9528C85.2706 29.5058 86.2588 30.6352 87.8118 30.6352C88.6588 30.6352 89.3647 30.2117 89.7882 29.6469L91.3412 31.0587C90.7765 31.9058 89.6471 32.7528 87.6706 32.7528C84.9882 32.7528 82.8706 30.7764 82.8706 27.9528Z" fill="#3C3C3B"/>
<path d="M94.5882 32.6118V25.5529H92.0471V23.4353H99.5294V25.5529H96.9882V32.6118H94.5882Z" fill="#3C3C3B"/>
</g>
<defs>
<clipPath id="clip0_119_106">
<rect width="105.176" height="36" fill="white"/>
</clipPath>
</defs>
</svg>
