<svg width="77" height="36" viewBox="0 0 77 36" fill="none" xmlns="http://www.w3.org/2000/svg">
<g clip-path="url(#clip0_131_3761)">
<path d="M63.3782 19.6134C63.7311 19.5126 64.2857 19.4118 64.9916 19.4622C65.7983 19.563 67.3109 19.9664 67.2605 23.1429C67.1597 26.3697 65.5462 26.5714 64.6891 26.4706C64.084 26.4202 63.6807 26.1176 63.3782 25.7647V19.6134ZM64.9916 13.3109H58.6891V14.1176H59.5966C59.8992 14.1176 60.2521 14.1176 60.3025 14.5714C60.3529 14.6723 60.3529 14.7731 60.3529 14.9244V15.2269V25.1597V25.5126C60.3529 25.6134 60.3529 25.7143 60.3025 25.8151C60.2521 26.2185 59.8992 26.2185 59.5966 26.2185H58.6891V27.0252H63.3782C63.9328 27.0756 64.4874 27.126 65.0924 27.126C67.0588 27.126 70.6891 26.8235 70.6891 22.9412C70.6387 19.4118 66.7563 17.8487 63.3782 18.7563V15.2269V14.9244C63.3782 14.7731 63.3782 14.7227 63.4286 14.5714C63.479 14.1176 63.8824 14.1176 64.1345 14.1176H64.9916V13.3109ZM33.3277 20.1681C33.3277 14.0168 36.4034 13.8655 37.1092 13.8655C37.7647 13.8655 40.8403 14.0168 40.8403 20.1681C40.8403 26.3193 37.7647 26.4706 37.1092 26.4706C36.3529 26.521 33.3277 26.3697 33.3277 20.1681ZM29.8487 20.1681C29.8487 24.0504 32.521 27.2773 37.1092 27.2773C41.6471 27.2773 44.3193 24.0504 44.3193 20.1681C44.3193 16.3361 41.5966 13.0084 37.1092 13.0084C32.521 13.0588 29.8487 16.3361 29.8487 20.1681ZM28.7395 13.3109H14.5714V14.1176H15.479C15.7815 14.1176 16.1345 14.1176 16.1849 14.5714C16.2353 14.6723 16.2353 14.7731 16.2353 14.9244V15.2269V25.1597V25.5126C16.2353 25.6134 16.2353 25.7143 16.1849 25.8151C16.1345 26.2185 15.7815 26.2185 15.479 26.2185H14.5714V27.0252H20.874V26.2185H20.0168C19.7647 26.2185 19.3613 26.2185 19.3109 25.8151C19.2605 25.6639 19.2605 25.6134 19.2605 25.5126V25.1597V15.2269V14.9244C19.2605 14.7731 19.2605 14.7227 19.3109 14.5714C19.3613 14.1176 19.7647 14.1176 20.0168 14.1176H23.395C23.6975 14.1176 24.0504 14.1176 24.1008 14.5714C24.1513 14.6723 24.1513 14.7731 24.1513 14.9244V15.2269V25.1597V25.5126C24.1513 25.6134 24.1513 25.7143 24.1008 25.8151C24.0504 26.2185 23.6975 26.2185 23.395 26.2185H22.5378V27.0252H28.7395V26.2185H27.8824C27.5798 26.2185 27.2269 26.2185 27.1765 25.8151C27.1765 25.6639 27.1765 25.6134 27.1765 25.5126V25.1597V15.2269V14.9244C27.1765 14.7731 27.1765 14.7227 27.1765 14.5714C27.2269 14.1176 27.5798 14.1176 27.8824 14.1176H28.7395V13.3109ZM0.302521 20.2689C0.302521 23.3445 1.91597 27.0756 6.85714 27.2773C8.77311 27.3781 11.5462 27.0252 12.958 22.7395L12.0504 22.437C11.3445 24.2521 10.2857 26.0168 8.06723 26.0168C6 26.0672 3.73109 24.605 3.73109 20.3193C3.68067 16.2857 5.2437 14.1176 7.41177 13.8655C9.22689 13.6639 11.042 15.2773 11.0924 16.7899L11.1429 17.395H12.1008L11.8992 13.2605H10.9916L11.042 13.8151C9.63025 13.1092 8.36975 13.0084 7.46219 13.0084C2.72269 13.0588 0.302521 16.4874 0.302521 20.2689ZM7.05882 2.42017H7.61345V0.15126H0V2.36975H0.554622V2.01681C0.554622 1.61345 1.56303 0.605042 2.52101 0.705882C2.72269 0.705882 2.77311 0.857143 2.77311 0.957983V7.81513V8.01681V8.21849C2.72269 8.47059 2.47059 8.47059 2.31933 8.47059H1.76471V8.97479H5.84874V8.47059H5.2437C5.09244 8.47059 4.84034 8.47059 4.78992 8.21849V8.01681V7.81513V0.957983C4.78992 0.857143 4.89076 0.705882 5.04202 0.705882C5.94958 0.655462 7.05882 1.56303 7.05882 2.01681V2.42017ZM14.521 2.72269C14.521 5.29412 12.5546 5.19328 11.7983 4.9916V1.0084C12 0.806723 12.3529 0.655462 12.8571 0.655462C13.563 0.655462 14.5714 1.0084 14.521 2.72269ZM16.7899 2.97479C16.7899 1.76471 16.0336 0.10084 13.1092 0.10084C13.0588 0.10084 12.5042 0.10084 11.7983 0.15126H8.77311V0.655462H9.32773C9.52941 0.655462 9.73109 0.655462 9.78151 0.957983C9.78151 1.0084 9.78151 1.10924 9.78151 1.15966V1.36134V7.76471V7.96639C9.78151 8.01681 9.78151 8.06723 9.78151 8.16807C9.73109 8.42017 9.52941 8.42017 9.32773 8.42017H8.77311V8.92437H12.8067V8.42017H12.2521C12.0504 8.42017 11.8487 8.42017 11.7983 8.16807C11.7983 8.06723 11.7983 8.01681 11.7983 7.96639C11.7983 7.15966 11.7983 6.35294 11.7983 5.54622C12.1008 5.59664 12.7059 5.59664 13.0588 5.64706C15.8319 5.79832 16.7899 4.33613 16.7899 2.97479ZM26.1176 0.705882H26.521V0.201681H23.2437V0.705882H23.8992C24 0.705882 24.2521 0.705882 24.2521 1.31092C24.2521 2.11765 23.5966 3.68067 23.4454 4.03361L22.8403 5.44538L20.6723 1.36134C20.6723 1.31092 20.6219 1.2605 20.6219 1.21008C20.6219 1.15966 20.6218 1.15966 20.5714 1.10924C20.521 0.705882 21.0252 0.705882 21.1261 0.705882H21.6303V0.201681H17.3445V0.705882H17.6975H17.7479C17.7983 0.705882 17.8487 0.705882 17.9496 0.705882C18 0.705882 18.1008 0.705882 18.1513 0.756302C18.2521 0.806723 18.3529 0.907563 18.4034 1.0084C18.4538 1.10924 18.5042 1.21008 18.605 1.31092C18.605 1.41176 18.6555 1.46218 18.7059 1.56303L20.6723 5.34454L21.7815 7.36134C21.5294 7.86555 21.0756 8.42017 20.7227 8.36975C20.6218 8.31933 20.4202 8.21849 20.4202 7.91597C20.4202 7.86555 20.4202 7.71429 20.4202 7.66387C20.4706 7.10924 20.1176 6.5042 19.3613 6.5042C18.7059 6.5042 18.2521 6.95798 18.2521 7.61345C18.2521 8.26891 18.8067 9.12605 20.0168 9.12605C21.1261 9.17647 21.8319 8.62185 22.4874 7.21008L24.4538 2.92437C24.4538 2.87395 24.4538 2.82353 24.5042 2.77311C24.5546 2.67227 24.605 2.52101 24.7059 2.42017C24.7563 2.21849 24.9076 2.01681 24.958 1.81513C25.4118 0.857143 25.6639 0.705882 25.8151 0.605042H26.1176V0.705882ZM31.6134 8.01681C31.6134 8.11765 31.6134 8.16807 31.6134 8.21849C31.563 8.47059 31.3109 8.47059 31.1597 8.47059H28.084C28.0336 8.47059 27.6303 8.47059 27.6807 8.06723C27.6807 8.06723 27.6807 7.91597 27.8824 7.46218C28.0336 7.05882 28.1345 6.70588 28.2857 6.35294C28.7899 4.9916 29.1429 3.27731 29.4454 2.11765C29.4958 1.91597 29.4958 1.71429 29.5462 1.5126C29.6975 0.806723 29.8487 0.756302 30.2521 0.756302H31.2101C31.563 0.756302 31.6134 0.756302 31.6134 1.41176V7.86555V8.01681ZM34.2353 11.1429H34.7899V8.47059H34.0336C33.8824 8.47059 33.5798 8.47059 33.5798 7.81513V1.41176V1.21008V1.0084C33.6303 0.705882 33.8824 0.705882 34.0336 0.705882H34.6387V0.201681H27.6807V0.705882H28.2857C28.9412 0.705882 29.042 0.907563 29.042 1.36134C28.9916 2.82353 27.6807 8.57143 26.0168 8.52101L25.8655 11.1933H26.4706L26.521 10.5882C26.5714 9.78151 28.9916 9.07563 30.3529 9.07563C31.5126 9.07563 34.2857 9.63025 34.2857 10.5882V11.1429H34.2353ZM42.7563 4.58824C42.7563 8.57143 40.7899 8.67227 40.3361 8.67227C39.8824 8.67227 37.916 8.57143 37.916 4.58824C37.916 0.655462 39.8824 0.504202 40.3361 0.504202C40.7899 0.504202 42.7563 0.655462 42.7563 4.58824ZM45.0252 4.58824C45.0252 2.11765 43.2605 0 40.3361 0C37.4118 0 35.6471 2.11765 35.6471 4.58824C35.6471 7.05882 37.4118 9.17647 40.3361 9.17647C43.2605 9.17647 45.0252 7.10924 45.0252 4.58824ZM50.0168 14.6218C50.3193 14.3193 50.874 14.0672 51.6303 14.0672C52.6891 14.0672 54.2521 14.6218 54.2521 17.2941C54.2521 21.2773 51.2269 21.126 50.0168 20.8235V14.6218ZM50.0168 13.3109H45.3782V14.1176H46.2857C46.5882 14.1176 46.9412 14.1176 46.9916 14.5714C47.042 14.6723 47.042 14.7731 47.042 14.9244V15.2269V25.1597V25.5126C47.042 25.6134 47.042 25.7143 46.9916 25.8151C46.9412 26.2185 46.5882 26.2185 46.2857 26.2185H45.3782V27.0252H51.6807V26.2185H50.8235C50.521 26.2185 50.1681 26.2185 50.1176 25.8151C50.0672 25.6639 50.0672 25.6134 50.0672 25.5126C50.1177 24.2521 50.0672 22.9916 50.0672 21.7311C50.521 21.7815 51.4286 21.8319 51.9832 21.8824C56.2689 22.0336 57.7815 19.7647 57.7815 17.6975C57.7815 15.8319 56.6219 13.2605 52.1345 13.2101C51.9832 13.2101 51.1261 13.2101 50.0168 13.3109ZM51.7311 6.40336C51.7311 7.81513 51.0756 8.52101 50.1176 8.57143C49.5126 8.57143 49.0588 8.31933 48.8571 8.16807V4.38655H49.9664C51.5798 4.38655 51.7311 5.59664 51.7311 6.40336ZM50.4202 3.83193H50.1176H49.9664H48.8571V1.10924C49.1597 0.857143 49.5126 0.705882 49.9664 0.705882C50.9748 0.705882 51.5294 1.36134 51.5294 2.31933C51.5798 3.17647 51.1261 3.78151 50.4202 3.83193ZM51.479 4.18487C52.5882 4.13445 53.6975 3.42857 53.6975 2.26891C53.6975 1.61345 53.3445 0.0504202 50.2185 0.10084C49.7143 0.10084 49.1092 0.15126 48.6555 0.15126H45.8824V0.655462H46.437C46.6387 0.655462 46.8403 0.655462 46.8908 0.957983C46.8908 1.0084 46.8908 1.10924 46.8908 1.15966V1.36134V7.76471V7.96639C46.8908 8.01681 46.8908 8.06723 46.8908 8.16807C46.8403 8.42017 46.6387 8.42017 46.437 8.42017H45.8824V8.92437H48.9076C49.2101 8.92437 49.5126 8.92437 49.7647 8.92437C50.0672 8.97479 50.3698 8.97479 50.7227 8.97479C52.9412 8.97479 54 7.91597 54.0504 6.45378C54 4.94118 52.6387 4.23529 51.479 4.18487ZM60.9076 6.5042C60.8571 8.57143 59.7983 8.72269 59.2437 8.67227C58.8403 8.62185 58.5882 8.42017 58.3866 8.21849V4.23529C58.6387 4.18487 58.9916 4.08403 59.395 4.13445C59.9496 4.18487 60.958 4.43697 60.9076 6.5042ZM63.1261 6.40336C63.1261 4.13445 60.605 3.12605 58.437 3.68067V1.41176V1.21008C58.437 1.10924 58.437 1.05882 58.437 1.0084C58.4874 0.705882 58.7395 0.705882 58.8908 0.705882H59.4454V0.201681H55.4118V0.705882H55.9664C56.1681 0.705882 56.3698 0.705882 56.4202 1.0084C56.4202 1.05882 56.4202 1.15966 56.4202 1.21008V1.41176V7.81513V8.01681C56.4202 8.06723 56.4202 8.11765 56.4202 8.21849C56.3698 8.47059 56.1681 8.47059 55.9664 8.47059H55.4118V8.97479H58.437C58.7899 9.02521 59.1933 9.02521 59.5462 9.02521C60.8067 9.07563 63.1765 8.92437 63.1261 6.40336ZM63.1261 9.02521H67.1597V8.52101H66.605C66.4034 8.52101 66.2017 8.52101 66.1513 8.26891C66.1513 8.16807 66.1513 8.11765 66.1513 8.06723V7.86555V1.41176V1.21008C66.1513 1.10924 66.1513 1.05882 66.1513 1.0084C66.2017 0.705882 66.4034 0.705882 66.605 0.705882H67.1597V0.201681H63.1261V0.705882H63.6807C63.8824 0.705882 64.084 0.705882 64.1345 1.0084C64.1849 1.05882 64.1849 1.15966 64.1849 1.21008V1.41176V7.81513V8.01681C64.1849 8.06723 64.1849 8.11765 64.1345 8.21849C64.084 8.47059 63.8824 8.47059 63.6807 8.47059H63.1261V9.02521ZM71.4454 7.96639V4.58824C72.1008 4.58824 73.5126 4.63866 73.7647 5.09244V5.19328V5.84874H74.3193V2.87395H73.7647V3.37815V3.47899C73.7143 3.63025 73.5126 3.93277 72.3529 4.03361C72.1513 4.03361 72 4.03361 71.7983 4.03361H71.4958V1.21008V1.15966C71.4958 1.10924 71.4958 1.05882 71.4958 1.0084C71.4958 0.907563 71.5966 0.705882 72.1008 0.705882C72.8571 0.705882 75.0756 1.10924 75.1261 1.76471L75.1765 2.26891H75.7815L75.6303 0.15126H68.4706V0.655462H69.0252C69.2269 0.655462 69.4286 0.655462 69.479 0.957983C69.479 1.0084 69.479 1.10924 69.479 1.15966V1.36134V7.76471V7.96639C69.479 8.01681 69.479 8.06723 69.479 8.16807C69.4286 8.42017 69.2269 8.42017 69.0252 8.42017H68.4706V8.92437H75.6303L76.0336 6.70588L75.4286 6.60504L75.2773 7.15966C75.1765 7.5126 74.2689 8.42017 72.1513 8.36975C72.0504 8.36975 71.8992 8.36975 71.7983 8.36975C71.7479 8.36975 71.6471 8.36975 71.5462 8.31933C71.4454 8.31933 71.4454 8.11765 71.4454 7.96639ZM75.3277 15.2269V14.9244C75.3277 14.7731 75.3277 14.7227 75.3782 14.5714C75.4286 14.1176 75.7815 14.1176 76.084 14.1176H76.9916V13.3109H70.6891V14.1176H71.5462C71.8487 14.1176 72.2017 14.1176 72.2521 14.5714C72.3025 14.6723 72.3025 14.7731 72.3025 14.9244V15.2269V25.1597V25.5126C72.3025 25.6134 72.3025 25.7143 72.2521 25.8151C72.2017 26.2185 71.8487 26.2185 71.5462 26.2185H70.6891V27.0252H76.9916V26.2185H76.084C75.8319 26.2185 75.4286 26.2185 75.3782 25.8151C75.3277 25.6639 75.3277 25.6134 75.3277 25.5126V25.1597V15.2269Z" fill="black"/>
<path d="M0.756348 36.0002H76.3866V30.4036L0.756348 32.975V36.0002Z" fill="#B02B1E"/>
</g>
<defs>
<clipPath id="clip0_131_3761">
<rect width="76.9412" height="36" fill="white"/>
</clipPath>
</defs>
</svg>
