<svg width="25" height="25" viewBox="0 0 25 25" fill="none" xmlns="http://www.w3.org/2000/svg">
<g clip-path="url(#clip0_123_717)">
<path d="M10.2949 5.96188L10.2642 5.93115C9.74177 6.57649 9.43447 7.37548 9.43447 8.23594C9.40374 11.8621 14.4435 14.1362 14.4435 17.4244C14.4435 17.6702 14.4128 17.9468 14.3206 18.1312L14.3513 18.1619C14.9045 17.6702 15.2118 16.6254 15.2118 15.9186C15.2118 12.0465 10.2027 10.4485 10.2027 6.91453L10.2949 5.96188Z" fill="#282727"/>
<path d="M12.2 0C5.47003 0 0 5.47003 0 12.2C0 18.93 5.47003 24.4 12.2 24.4C18.93 24.4 24.4 18.93 24.4 12.2C24.4 5.47003 18.93 0 12.2 0ZM10.8171 20.6509C9.6801 20.6509 8.32796 20.0977 8.32796 18.8071C8.32796 18.1003 8.91184 17.4242 9.64937 17.4242C10.3869 17.4242 10.9093 18.0695 10.9093 18.7763C10.9093 19.0529 10.7864 19.2987 10.6635 19.5139C10.9093 19.729 11.2166 19.8519 11.5547 19.8519C12.3229 19.8519 12.9375 19.1144 12.9375 18.3768C12.9375 15.7033 7.92846 14.0438 7.92846 9.77229C7.92846 6.88363 10.7864 3.68766 13.798 3.68766C14.9043 3.68766 16.2564 4.21008 16.2564 5.47002C16.2564 6.17683 15.6725 6.69924 14.9657 6.69924C14.2589 6.69924 13.7673 6.1461 13.7673 5.47002C13.7673 5.22418 13.8287 5.00907 13.9824 4.76322C13.7673 4.54811 13.5521 4.39446 13.2141 4.39446C12.4151 4.39446 11.8927 5.00907 11.8927 5.7466C11.8927 8.45088 16.5637 9.89521 16.5637 14.2897C16.5023 17.3013 13.9209 20.6509 10.8171 20.6509Z" fill="#282727"/>
</g>
<defs>
<clipPath id="clip0_123_717">
<rect width="24.4" height="24.4" fill="white"/>
</clipPath>
</defs>
</svg>
