<svg width="25" height="25" viewBox="0 0 25 25" fill="none" xmlns="http://www.w3.org/2000/svg">
<g clip-path="url(#clip0_40_294)">
<path d="M12.2 0C5.5 0 0 5.5 0 12.2C0 18.9 5.5 24.4 12.2 24.4C18.9 24.4 24.4 19 24.4 12.2C24.4 5.4 19 0 12.2 0ZM16.2 17.6C12.5 17.4 11.2 14.6 11.2 12.3C11.2 11.2 11.5 10.1 12.1 9.2V9.1C12.1 8.5 10.8 7.4 9.7 7.5C9.5 7.5 9.4 7.7 9.4 7.8V16.1V16.4V16.6C9.4 17 9.8 17 9.9 17H10.6V17.6H5.7V17H6.4C6.6 17 6.9 17 7 16.7V16.5V16.2V7.8C7 7.7 6.9 7.5 6.7 7.5C5.5 7.4 4.2 8.6 4.2 9.1V9.5H3.5V6.8H12.8V8.3C13.7 7.4 15 6.8 16.6 6.8C17.3 6.8 18.2 6.9 19.3 7.4V7H20L20.2 10.1H19.5V9.7C19.5 8.5 18.1 7.3 16.7 7.5C15 7.7 13.9 9.3 13.9 12.4C13.9 15.7 15.6 16.8 17.2 16.7C18.9 16.7 19.7 15.4 20.2 14L20.9 14.2C19.8 17.4 17.7 17.7 16.2 17.6Z" fill="#B02B1E"/>
</g>
<defs>
<clipPath id="clip0_40_294">
<rect width="24.4" height="24.4" fill="white"/>
</clipPath>
</defs>
</svg>
