<svg width="17" height="7" viewBox="0 0 17 7" fill="none" xmlns="http://www.w3.org/2000/svg">
<path fill-rule="evenodd" clip-rule="evenodd" d="M8.02513 7C7.45904 7 6.89732 6.97049 6.35418 6.80505C5.76404 6.62486 5.27773 6.31716 5.09523 5.71335C4.82311 4.80711 5.09523 3.50044 6.42084 3.00622C6.94642 2.82361 7.49032 2.69435 8.04371 2.62054C8.57265 2.53835 9.10377 2.46775 9.6338 2.38766C9.67331 2.38175 9.70768 2.35835 9.72669 2.32443C9.74697 2.17917 9.7521 2.03231 9.74199 1.88607C9.7132 1.6396 9.53052 1.43542 9.2819 1.37183C8.95405 1.26013 8.60871 1.2812 8.26993 1.31071C7.66262 1.37334 7.0624 1.48867 6.47658 1.65529C6.32904 1.69428 6.31702 1.6848 6.29517 1.53516C6.25145 1.24432 6.20774 0.952427 6.15856 0.662641C6.14671 0.621925 6.15276 0.578299 6.1753 0.542018C6.19783 0.505737 6.23486 0.48 6.27768 0.470856C6.83398 0.270831 7.41343 0.136723 8.00328 0.0714777C8.44961 0.0235835 8.89839 1.19011e-05 9.34747 0.000875218C9.88517 -0.00963809 10.4203 0.0746414 10.9266 0.249564C11.4731 0.451888 11.8512 0.795416 11.9681 1.36972C12.0348 1.69428 11.9823 2.01568 11.943 2.33602C11.8701 2.92473 11.7947 3.51308 11.7168 4.10109C11.6479 4.62797 11.5845 5.15485 11.5036 5.68174C11.4524 6.17718 11.085 6.5887 10.5846 6.71127C10.1998 6.81764 9.80645 6.89272 9.40867 6.93572C8.95186 6.97471 8.48741 6.97471 8.02513 7ZM9.56276 3.57947C9.03492 3.6722 8.53003 3.73964 8.03278 3.8545C7.57816 3.95988 7.26779 4.23807 7.21534 4.71438C7.16288 5.19068 7.34648 5.6301 7.92241 5.74075C8.35318 5.81544 8.79588 5.79527 9.21742 5.68174C9.26565 5.65591 9.29875 5.60998 9.30704 5.55739C9.37152 5.10849 9.42834 4.65747 9.48626 4.20752C9.51577 4.00941 9.53653 3.81341 9.56276 3.57947Z" fill="white"/>
<path fill-rule="evenodd" clip-rule="evenodd" d="M3.90675 0.00245958C4.21433 0.00245958 4.52191 0.00245958 4.82949 0.00245958C4.888 0.0103496 4.94528 0.0253003 5 0.046967C4.98205 0.0976224 4.95811 0.146073 4.92868 0.191345C4.13149 1.14952 3.33319 2.10625 2.53377 3.06153C2.4357 3.17877 2.34098 3.30035 2.23845 3.41433C2.18526 3.46215 2.1794 3.54201 2.22507 3.59671C2.83281 4.63738 3.43832 5.67878 4.04159 6.72091C4.17867 6.95756 4.15304 6.99881 3.87108 6.99881C3.37182 6.99881 2.8681 6.99881 2.37329 6.99881C2.18243 7.01227 2.00254 6.91066 1.91972 6.74262C1.30827 5.67444 0.692737 4.60844 0.0731148 3.5446C-0.0365993 3.40302 -0.0213312 3.2041 0.108776 3.07999C0.911164 2.12181 1.71355 1.16363 2.51594 0.205457C2.6256 0.0707968 2.79426 -0.00530835 2.97063 0.000288488C3.28267 0.00137403 3.59471 0.00245958 3.90675 0.00245958Z" fill="white"/>
<path fill-rule="evenodd" clip-rule="evenodd" d="M13.0813 6.99615C12.7736 6.99615 12.466 6.99615 12.1583 6.99615C12.1039 6.98858 12.0507 6.97434 12 6.95378C12.0151 6.90224 12.0372 6.85291 12.0658 6.8071C12.9576 5.73439 13.8524 4.66349 14.7501 3.5944C14.8081 3.5398 14.8135 3.45097 14.7624 3.39015C14.1433 2.32975 13.5265 1.26826 12.9119 0.205694C12.8327 0.0677121 12.8706 0.00143723 13.0334 0.000350757C13.5908 0.000350757 14.1482 0.000350757 14.7055 0.000350757C14.845 -0.00572709 14.9755 0.0675927 15.04 0.188311L16.9418 3.47924C17.0338 3.61626 17.0152 3.79727 16.8972 3.91383C16.0804 4.87789 15.267 5.8463 14.4569 6.81905C14.3519 6.94036 14.1949 7.00704 14.0322 6.99941C13.7145 6.99941 13.3979 6.99615 13.0813 6.99615Z" fill="white"/>
</svg>
