<svg width="29" height="28" viewBox="0 0 29 28" fill="none" xmlns="http://www.w3.org/2000/svg">
<path fill-rule="evenodd" clip-rule="evenodd" d="M14.4693 0C22.1586 0 28.3919 6.23614 28.3919 13.9288C28.3919 21.6215 22.1586 27.8576 14.4693 27.8576C6.7801 27.8576 0.546753 21.6215 0.546753 13.9288C0.546753 6.23614 6.7801 0 14.4693 0ZM19.3135 11.9614C19.3182 12.0658 19.3205 12.1703 19.3205 12.2748C19.3036 14.1353 18.5409 15.9112 17.2036 17.2041C15.8662 18.497 14.0661 19.1988 12.2069 19.1521C10.8541 19.1545 9.5277 18.7775 8.3782 18.0639C8.57619 18.0887 8.77561 18.1004 8.97513 18.0987C10.0952 18.104 11.1857 17.7399 12.0781 17.0628C11.022 17.0564 10.0854 16.3824 9.74349 15.3826C9.89828 15.4147 10.0562 15.4293 10.2142 15.4261C10.4359 15.4269 10.6568 15.4006 10.8721 15.3478C9.72326 15.1354 8.88493 14.1399 8.87072 12.9712V12.9451C9.21968 13.1315 9.60659 13.2357 10.0019 13.2498C9.31171 12.8099 8.89267 12.0488 8.88986 11.2301C8.89083 10.8035 9.00785 10.3852 9.22835 10.02C10.5211 11.54 12.3869 12.4544 14.3797 12.5446C14.3367 12.365 14.3151 12.1809 14.3153 11.9962C14.3254 11.3435 14.5945 10.7217 15.0633 10.2677C15.5321 9.81371 16.1621 9.56488 16.8144 9.57605C17.5021 9.57311 18.1616 9.84958 18.6418 10.3421C19.1999 10.2329 19.7363 10.0329 20.2298 9.75016C20.0401 10.3167 19.649 10.7938 19.1308 11.0908C19.6251 11.0319 20.1085 10.9029 20.5666 10.7078C20.2278 11.1978 19.8033 11.6225 19.3135 11.9614Z" fill="white"/>
</svg>
