<svg width="210" height="24" viewBox="0 0 210 24" fill="none" xmlns="http://www.w3.org/2000/svg">
<path d="M22.4113 0.687012C20.0018 0.689646 17.6118 1.11759 15.3511 1.95114C15.2833 1.98223 15.2269 2.03358 15.1895 2.09811C15.1521 2.16264 15.1357 2.23717 15.1425 2.31142L15.5218 4.83969C15.5259 4.86778 15.5359 4.89468 15.5512 4.91864C15.5664 4.9426 15.5866 4.96308 15.6102 4.97874C15.6359 4.99107 15.664 4.99747 15.6924 4.99747C15.7209 4.99747 15.7489 4.99107 15.7746 4.97874C16.8145 4.6793 17.8694 4.43456 18.9349 4.24555C21.4632 3.81574 22.8664 3.92951 23.5743 4.5995C23.7771 4.81477 23.9231 5.07712 23.9993 5.3629C24.0754 5.64869 24.0792 5.94892 24.0104 6.23656L23.9472 6.71693C23.9472 6.71693 20.8817 7.12777 18.8907 7.50069C17.3959 7.69331 15.9542 8.18102 14.6495 8.93548C12.5763 10.2881 12.0643 12.9301 12.4626 14.8137C12.8102 16.4634 14.2639 18.4354 19.2257 18.4354H19.5859C27.1707 18.4354 28.1631 17.1397 28.4981 14.3965L28.9468 10.7432L29.541 5.92684C29.7243 4.44149 29.4525 3.30377 28.694 2.46312C27.6195 1.26219 25.5653 0.687012 22.4113 0.687012ZM23.53 9.99735C23.53 9.99735 23.3783 11.4258 23.3783 11.4448L22.9296 15.0539H22.8664C22.1603 15.2465 21.4301 15.3359 20.6984 15.3194C19.8812 15.3942 19.0666 15.152 18.4229 14.643C18.2192 14.4229 18.0622 14.1638 17.9612 13.8814C17.8601 13.599 17.8173 13.2991 17.8351 12.9997C17.8351 11.5586 18.6947 10.6547 20.4519 10.326C22.209 9.99735 23.6122 9.84566 23.6122 9.84566L23.53 9.99735Z" fill="white"/>
<path d="M91.1455 0.692749H90.5893C86.5693 0.692749 83.8388 1.84943 82.4798 4.12487C81.3864 5.9389 80.8618 12.0889 80.8554 12.1521C80.7366 13.1276 80.8403 14.1173 81.1588 15.047C82.2902 18.0619 86.2154 18.4665 88.4718 18.4412C92.5234 18.4412 95.2602 17.2845 96.5939 15.0659C97.0047 14.3833 97.6052 12.4745 98.1614 7.29784V7.11454C98.2935 6.18409 98.2268 5.23619 97.9655 4.33345C97.0932 1.45123 93.7749 0.768597 91.1455 0.692749ZM92.0746 11.9183V12.0067C92.0241 12.8495 91.7001 13.6528 91.1518 14.2948C90.6183 14.7834 89.9221 15.056 89.1987 15.0596C88.5754 15.1347 87.9439 15.0225 87.3847 14.7373C87.0703 14.5396 86.8068 14.2706 86.6158 13.9522C86.4247 13.6337 86.3113 13.2747 86.2849 12.9043C86.247 12.4176 86.6831 9.40895 86.9169 7.79086L87.0244 7.04502C87.1118 6.14264 87.5416 5.30802 88.2253 4.71269C88.769 4.29607 89.4366 4.07355 90.1215 4.08063C90.7043 4.04294 91.2851 4.17935 91.7902 4.47251C92.0804 4.68344 92.3154 4.96145 92.475 5.28282C92.6346 5.6042 92.7141 5.9594 92.7067 6.31814C92.7193 6.63417 92.5044 8.58726 92.0746 11.9183Z" fill="white"/>
<path d="M80.3217 0.81765H77.9135C77.267 0.800293 76.6268 0.948564 76.0537 1.24837C75.4807 1.54817 74.9938 1.98955 74.6394 2.53055L68.5336 10.1154L68.698 9.66026L69.7725 1.05152C69.7776 1.02305 69.7757 0.993762 69.7669 0.966214C69.7581 0.938667 69.7426 0.9137 69.7219 0.893498C69.7036 0.871108 69.6804 0.853202 69.6541 0.841151C69.6278 0.8291 69.5992 0.823223 69.5702 0.823971H64.5516C64.4834 0.827042 64.4182 0.85305 64.3666 0.897786C64.315 0.942522 64.2799 1.00337 64.2672 1.07048L62.1687 17.8455C62.1652 17.8725 62.1673 17.8999 62.1749 17.926C62.1825 17.9521 62.1955 17.9764 62.213 17.9972C62.2541 18.0305 62.3055 18.0483 62.3584 18.0478H64.9814C65.6255 18.0551 66.261 17.8997 66.829 17.5958C67.397 17.2919 67.879 16.8495 68.2303 16.3096L74.197 8.55415L74.001 9.03452L72.9139 17.8202C72.9078 17.8766 72.9237 17.9332 72.9581 17.9783C72.9792 18.0006 73.0047 18.0184 73.033 18.0303C73.0613 18.0423 73.0917 18.0482 73.1224 18.0478H78.1347C78.2039 18.0444 78.2698 18.0175 78.3215 17.9715C78.3733 17.9255 78.4077 17.8632 78.4192 17.795L80.505 1.00727C80.5107 0.981769 80.5102 0.955278 80.5036 0.929995C80.497 0.904713 80.4845 0.881367 80.4671 0.861895C80.4259 0.829392 80.374 0.813594 80.3217 0.81765Z" fill="white"/>
<path d="M116.409 0.688284L111.296 1.32035C111.222 1.33219 111.154 1.3665 111.101 1.41856C111.048 1.47063 111.012 1.53789 110.999 1.6111L110.272 7.483L110.234 7.72319H105.348L106.195 0.877904C106.199 0.850933 106.196 0.823515 106.189 0.797398C106.181 0.771281 106.168 0.747036 106.151 0.726208C106.13 0.710317 106.107 0.698755 106.082 0.692234C106.057 0.685712 106.031 0.684368 106.005 0.688284L100.892 1.32035C100.819 1.33219 100.75 1.3665 100.697 1.41856C100.644 1.47063 100.608 1.53789 100.595 1.6111L98.6102 17.8173C98.607 17.8457 98.6099 17.8745 98.6186 17.9017C98.6273 17.929 98.6417 17.954 98.6608 17.9753C98.6791 17.9977 98.7023 18.0156 98.7286 18.0277C98.7549 18.0397 98.7836 18.0456 98.8125 18.0448H103.831C103.901 18.0429 103.969 18.0166 104.022 17.9705C104.075 17.9244 104.11 17.8613 104.122 17.792L104.931 11.3007V11.2501H109.823L109.008 17.8173C109.005 17.8457 109.007 17.8745 109.016 17.9017C109.025 17.929 109.039 17.954 109.058 17.9753C109.077 17.9977 109.1 18.0156 109.126 18.0277C109.152 18.0397 109.181 18.0456 109.21 18.0448H110.474C112.787 18.0448 114.488 17.7667 114.848 15.0931L116.624 0.877904C116.63 0.851403 116.629 0.823942 116.623 0.797641C116.616 0.771339 116.604 0.746899 116.586 0.726208C116.563 0.705111 116.534 0.690526 116.503 0.683878C116.472 0.677231 116.439 0.678749 116.409 0.688284Z" fill="white"/>
<path d="M62.3499 4.5153L62.7797 1.03261C62.7833 1.00418 62.7807 0.97529 62.772 0.947988C62.7632 0.920685 62.7486 0.895632 62.7291 0.874595C62.7096 0.852065 62.6852 0.834147 62.6579 0.822126C62.6306 0.810105 62.601 0.80428 62.5711 0.805068H43.5522C43.2049 0.820961 42.8779 0.973122 42.6421 1.22855L37.3264 7.74516H36.5679L37.4212 0.906199C37.4261 0.880195 37.4246 0.8534 37.4169 0.82809C37.4092 0.80278 37.3955 0.779704 37.3769 0.760823C37.3578 0.74272 37.3347 0.729304 37.3095 0.721627C37.2842 0.713951 37.2576 0.712223 37.2316 0.716579L32.1182 1.34865C32.0443 1.35959 31.9758 1.3936 31.9224 1.44582C31.8691 1.49804 31.8336 1.5658 31.8211 1.6394L29.8048 17.8266C29.7983 17.8546 29.7989 17.8837 29.8067 17.9113C29.8144 17.9389 29.829 17.9641 29.849 17.9846C29.8689 18.0068 29.8933 18.0245 29.9205 18.0365C29.9478 18.0485 29.9773 18.0545 30.0071 18.0542H35.0636C35.1324 18.0497 35.1977 18.0224 35.2492 17.9766C35.3007 17.9308 35.3355 17.8691 35.348 17.8013L36.1634 11.2658H36.9471L40.5942 17.8077C40.6389 17.8777 40.6993 17.9365 40.7706 17.9792C40.8419 18.022 40.9221 18.0477 41.005 18.0542H46.4471C46.5356 18.0542 46.6241 18.0099 46.5482 17.8582L41.5675 9.55287L45.7013 4.76813H51.6743L50.0499 17.8266C50.0434 17.8546 50.044 17.8837 50.0518 17.9113C50.0595 17.9389 50.0741 17.9641 50.0941 17.9846C50.114 18.0068 50.1383 18.0245 50.1656 18.0365C50.1929 18.0485 50.2224 18.0545 50.2521 18.0542H55.2708C55.3403 18.052 55.4068 18.0255 55.4588 17.9793C55.5107 17.9331 55.5449 17.8701 55.5552 17.8013L57.1543 4.76813H62.0591C62.1294 4.76618 62.1968 4.7399 62.2498 4.69379C62.3028 4.64768 62.3382 4.58459 62.3499 4.5153Z" fill="white"/>
<path d="M11.8583 0.811646H7.06089C6.72913 0.824683 6.41581 0.967718 6.18863 1.20985L0.196645 8.49125C0.0870848 8.61514 0.019523 8.77052 0.00362862 8.93514C-0.0122657 9.09976 0.0243221 9.26519 0.108156 9.40775L4.76649 17.6246C4.84595 17.7539 4.95628 17.8614 5.08756 17.9375C5.21884 18.0137 5.36697 18.056 5.51864 18.0607H9.67132C9.96839 18.0607 10.1138 17.8711 9.96839 17.6373L5.29742 9.42039L12.0605 1.20353C12.2375 0.975983 12.149 0.811646 11.8583 0.811646Z" fill="white"/>
<path d="M129.476 9.48136L124.817 1.2645C124.737 1.13597 124.627 1.02904 124.496 0.953024C124.364 0.877007 124.217 0.834212 124.065 0.828369H119.906C119.616 0.828369 119.47 1.01799 119.609 1.25185L124.287 9.46872L117.523 17.6982C117.34 17.9005 117.429 18.0711 117.726 18.0711H122.523C122.853 18.0565 123.163 17.9136 123.389 17.6729L129.387 10.3915C129.494 10.2673 129.559 10.1133 129.575 9.95042C129.591 9.78756 129.556 9.62379 129.476 9.48136Z" fill="white"/>
<path d="M136.597 17.8243L138.74 0.391882C138.759 0.281948 138.817 0.182368 138.902 0.110681C138.988 0.0389941 139.096 -0.000200504 139.208 7.71359e-07H153.063C153.112 0.000597232 153.161 0.0114948 153.205 0.0319945C153.25 0.0524942 153.29 0.0821435 153.323 0.119041C153.356 0.155938 153.38 0.199269 153.395 0.246255C153.41 0.29324 153.415 0.342843 153.41 0.391882L151.261 17.8243C151.253 17.9299 151.206 18.0288 151.129 18.1014C151.052 18.1739 150.95 18.2149 150.844 18.2162H149.194C149.141 18.2209 149.088 18.214 149.038 18.1961C148.988 18.1782 148.942 18.1496 148.905 18.1123C148.867 18.075 148.837 18.03 148.819 17.9802C148.8 17.9305 148.792 17.8773 148.796 17.8243L150.743 2.02261H141.009L139.05 17.8243C139.042 17.931 138.994 18.0308 138.915 18.1035C138.836 18.1762 138.733 18.2165 138.626 18.2162H136.976C136.925 18.2191 136.873 18.2109 136.825 18.192C136.777 18.1732 136.733 18.1442 136.697 18.107C136.661 18.0698 136.634 18.0253 136.616 17.9765C136.599 17.9277 136.593 17.8758 136.597 17.8243Z" fill="white"/>
<path d="M167.442 11.7553C166.88 16.3188 165.401 18.5373 160.913 18.5373C159.69 18.5432 158.472 18.3859 157.291 18.0696L157.386 19.5486L156.994 22.709C156.982 22.8037 156.939 22.8918 156.872 22.9593C156.804 23.0269 156.716 23.07 156.621 23.0819L154.972 23.4232C154.75 23.4738 154.624 23.3031 154.649 23.0819L156.545 7.72267C156.665 6.63552 156.861 6.21836 158.119 5.77591C159.721 5.25589 161.391 4.97891 163.075 4.95422C164.75 4.95422 165.837 5.32082 166.551 6.0161C167.366 6.79986 167.638 8.01342 167.638 9.51142C167.62 10.2627 167.554 11.0121 167.442 11.7553ZM164.806 7.66579C164.339 6.90099 163.473 6.75561 162.278 6.75561C161.129 6.81734 159.99 6.99737 158.878 7.29287L157.759 16.4325C158.78 16.7027 159.832 16.8345 160.888 16.8244C163.574 16.8244 164.611 15.6425 165.078 11.7679C165.169 11.0825 165.217 10.3923 165.224 9.70104C165.271 8.99741 165.127 8.29411 164.806 7.66579Z" fill="white"/>
<path d="M181.079 9.22113L180.289 15.6556C180.067 17.4064 179.6 17.7983 177.849 18.1838C176.771 18.417 175.671 18.5335 174.568 18.5315C173.317 18.6133 172.064 18.4191 170.896 17.9626C170.381 17.7098 169.952 17.3088 169.666 16.811C169.38 16.3133 169.25 15.7415 169.291 15.1689C169.293 14.3311 169.46 13.502 169.784 12.7291C170.574 11.0541 172.129 10.8329 173.999 10.5611L178.734 9.79631C178.823 9.22487 178.88 8.64874 178.904 8.07077C178.917 7.84334 178.853 7.61826 178.724 7.43071C178.595 7.24316 178.407 7.10372 178.19 7.03418C177.504 6.82744 176.787 6.74398 176.073 6.78768C174.565 6.84788 173.069 7.07254 171.61 7.45767C171.521 7.48017 171.43 7.49706 171.338 7.50823C171.283 7.50997 171.228 7.48981 171.187 7.45204C171.145 7.41426 171.121 7.36186 171.117 7.30597L171.016 6.04184C171.01 5.96065 171.033 5.87994 171.082 5.8148C171.131 5.74965 171.202 5.70454 171.282 5.68788C173.018 5.21165 174.809 4.96306 176.61 4.94836C178.386 4.94836 179.492 5.19487 180.181 5.61203C180.512 5.80113 180.785 6.07854 180.968 6.41334C181.151 6.74814 181.237 7.12718 181.218 7.50823C181.224 7.96332 181.123 8.84821 181.079 9.22113ZM172.053 13.2727C171.796 13.7679 171.67 14.3205 171.686 14.8781C171.674 15.1452 171.724 15.4115 171.834 15.6553C171.944 15.8991 172.11 16.1136 172.318 16.2813C172.95 16.7996 173.949 16.8502 174.846 16.8502C175.887 16.8631 176.925 16.7226 177.925 16.433L178.557 11.5471L174.094 12.2614C173.209 12.3751 172.495 12.4952 172.053 13.2727Z" fill="white"/>
<path d="M183.338 13.1901C183.317 11.1653 183.818 9.1693 184.792 7.394C186.024 5.37139 188.338 4.95422 190.386 4.95422C193.546 4.95422 195.689 5.96553 195.689 8.74662C195.689 10.6428 194.601 11.7047 192.655 11.907V12.2988C193.245 12.3984 193.78 12.7103 194.157 13.1758C194.534 13.6413 194.728 14.2285 194.703 14.8271C194.703 17.5387 192.174 18.55 189.102 18.55C183.831 18.5373 183.338 15.7246 183.338 13.1901ZM192.509 14.5932C192.509 13.1395 191.669 12.7413 189.595 12.7413C189.204 12.7413 188.761 12.7413 188.268 12.7919L185.651 12.9183C185.62 13.1465 185.605 13.3768 185.607 13.6072C185.607 15.6994 185.974 16.8624 189.305 16.8624C191.176 16.8624 192.509 16.2429 192.509 14.5932ZM185.835 11.376L188.793 11.2243C191.801 11.0789 193.401 10.6618 193.401 8.66445C193.401 7.23598 192.269 6.66712 190.171 6.66712C186.814 6.67977 186.05 8.89832 185.835 11.376Z" fill="white"/>
<path d="M209.012 11.7557C208.569 15.4786 207.558 18.5378 202.331 18.5378C200.264 18.5378 198.981 18.0701 198.216 17.2737C197.451 16.4773 197.129 15.2258 197.129 13.8479C197.138 13.145 197.197 12.4438 197.306 11.7494C197.748 8.00757 198.76 4.94836 203.987 4.94836C205.978 4.94836 207.261 5.39081 208.051 6.15561C208.841 6.92041 209.214 8.21615 209.214 9.61302C209.193 10.3309 209.126 11.0466 209.012 11.7557ZM206.104 7.33126C205.436 6.84079 204.609 6.61559 203.785 6.69919C200.435 6.69919 200.062 8.64596 199.67 11.7557C199.568 12.4678 199.511 13.1856 199.499 13.9048C199.415 14.6678 199.626 15.4341 200.087 16.0475C200.425 16.3258 200.814 16.5344 201.233 16.6614C201.652 16.7883 202.092 16.831 202.527 16.787C205.883 16.787 206.25 14.8402 206.648 11.7304C206.745 10.9945 206.802 10.2539 206.819 9.51189C206.859 9.12058 206.817 8.72509 206.694 8.35143C206.57 7.97777 206.37 7.6344 206.104 7.3439V7.33126Z" fill="white"/>
</svg>
