<svg width="25" height="25" viewBox="0 0 25 25" fill="none" xmlns="http://www.w3.org/2000/svg">
<g clip-path="url(#clip0_40_296)">
<path d="M12.2 0C5.5 0 0 5.5 0 12.2C0 18.9 5.5 24.4 12.2 24.4C18.9 24.4 24.4 19 24.4 12.2C24.4 5.4 19 0 12.2 0ZM21.2 15.5C21.5 15.6 21.8 15.7 22.2 15.7V16.4H17.2V15.7C17.6 15.7 17.8 15.7 18.1 15.6C18.5 15.5 18.7 15.1 18.7 14.7V7.4H14.4V14.7C14.4 15.2 14.6 15.5 15 15.6C15.3 15.7 15.5 15.7 15.9 15.7V16.4H13.1H11H7.8V15.9C8.3 15.9 9.2 15.7 9.2 15.5C9.2 15.4 9.2 15.3 9.1 15.2L8.3 13.1H5.3C5.1 13.5 4.9 14.1 4.8 14.5C4.7 14.8 4.7 15.1 4.7 15.3C4.7 15.7 5.8 15.9 6.3 15.9V16.4H2.3V15.9C2.6 15.9 3 15.8 3.2 15.7C3.6 15.5 3.8 15.2 4 14.7C5 12.3 6.2 9.3 7.2 6.6H8.4C9.9 10.3 11.1 13.7 11.7 15C11.8 15.2 11.9 15.4 12.1 15.5C12.5 15.3 12.6 15 12.6 14.6V8.4C12.6 7.9 12.4 7.6 12 7.5C11.7 7.4 11.4 7.3 11 7.3V6.6H22.2V7.3C21.8 7.3 21.5 7.4 21.2 7.5C20.8 7.7 20.6 8 20.6 8.4V14.5C20.7 15 20.9 15.3 21.2 15.5Z" fill="#2B5480"/>
<path d="M5.60001 12.5H8.20001L6.80001 9.19995L5.60001 12.5Z" fill="#2B5480"/>
</g>
<defs>
<clipPath id="clip0_40_296">
<rect width="24.4" height="24.4" fill="white"/>
</clipPath>
</defs>
</svg>
