<svg width="109" height="37" viewBox="0 0 109 37" fill="none" xmlns="http://www.w3.org/2000/svg">
<g clip-path="url(#clip0_131_3758)">
<path d="M89.3368 12.0448H83.2237V12.8316C83.6474 12.8316 84.0711 12.9527 84.4342 13.1342C84.9184 13.3158 85.1605 13.679 85.1605 14.2842V21.7895C85.1605 22.3342 84.9184 22.6974 84.4342 22.9395C84.0711 23.1211 83.6474 23.1816 83.2237 23.2421V24.029H89.3368V23.2421C88.8526 23.2421 88.55 23.1816 88.1868 23.0605C87.7026 22.879 87.4605 22.5158 87.4605 21.9105V18.2184H88.429C89.6395 18.2184 90.4868 19.3079 90.9711 20.5184C91.4553 21.729 91.8789 22.6974 92.2421 23.9684H96.6605V23.1816C95.8737 23.1816 94.9053 23.0605 94.4816 22.2737C94.3605 22.0316 93.7553 20.8211 93.5132 20.1553C92.8474 18.5211 91.5763 17.8553 90.3658 17.6737V17.5527C91.4553 16.9474 91.9395 15.979 92.4842 14.4053C92.7868 13.4974 92.9079 13.3158 93.0289 13.2553C93.0289 13.8 93.0895 15.0105 94.3605 15.0105C95.2684 15.0105 95.6316 14.2842 95.6316 13.3763C95.6316 12.4684 94.9658 11.7421 93.9368 11.7421C92.6053 11.7421 92.0605 12.5895 91.4553 14.2237C90.9105 15.7369 90.2447 17.1895 88.429 17.1895H87.4605V14.1027C87.4605 13.5579 87.6421 13.1342 88.1868 12.9527C88.55 12.8316 88.8526 12.8316 89.3368 12.7711V12.0448ZM67.1842 12.0448H55.8658V15.6763H56.5921C56.8342 14.4658 57.2579 13.4974 57.8026 13.2553C58.4079 13.0132 58.8316 12.9527 59.8605 12.9527H60.4053V21.85C60.4053 22.3948 60.2237 22.8184 59.6789 23C59.3158 23.1211 58.8316 23.1211 58.3474 23.1816V23.9684H64.7632V23.1816C64.2789 23.1816 63.7947 23.1211 63.4316 23C62.9474 22.8184 62.7053 22.4553 62.7053 21.85V12.9527H63.25C64.3395 12.9527 64.7026 12.9527 65.3079 13.2553C65.8526 13.4369 66.2158 14.4658 66.5184 15.6763H67.2447V12.0448H67.1842ZM47.7553 12.0448H41.7026V12.8316C42.1263 12.8316 42.55 12.9527 42.9132 13.1342C43.3974 13.3158 43.6395 13.679 43.6395 14.2842V21.7895C43.6395 22.3342 43.3974 22.6974 42.9132 22.9395C42.55 23.1211 42.1263 23.1816 41.7026 23.2421V24.029H47.8158V23.2421C47.3316 23.2421 47.0289 23.1816 46.6658 23.0605C46.1816 22.879 45.9395 22.5158 45.9395 21.9105V18.2184H46.9079C48.1184 18.2184 48.9658 19.3079 49.45 20.5184C49.9342 21.729 50.3579 22.6974 50.7211 23.9684H55.1395V23.1816C54.3526 23.1816 53.3842 23.0605 52.9605 22.2737C52.8395 22.0316 52.2342 20.8211 51.9921 20.1553C51.3263 18.5211 50.0553 17.8553 48.8447 17.6737V17.5527C49.9342 16.9474 50.4184 15.979 50.9632 14.4053C51.2658 13.4974 51.3868 13.3158 51.5079 13.2553C51.5079 13.8 51.5684 15.0105 52.8395 15.0105C53.7474 15.0105 54.1105 14.2842 54.1105 13.3763C54.1105 12.4684 53.4447 11.7421 52.4158 11.7421C51.0842 11.7421 50.5395 12.5895 49.9342 14.2237C49.3895 15.7369 48.7237 17.1895 46.9079 17.1895H45.9395V14.1027C45.9395 13.5579 46.1211 13.1342 46.6658 12.9527C47.0289 12.8316 47.3316 12.8316 47.8158 12.7711V12.0448H47.7553ZM13.7395 12.0448H0V12.8316C0.423684 12.8316 0.847368 12.9527 1.21053 13.1342C1.69474 13.3158 1.93684 13.679 1.93684 14.2842V21.7895C1.93684 22.3342 1.69474 22.6974 1.21053 22.9395C0.847368 23.1211 0.423684 23.1816 0 23.2421V24.029H6.11316V23.2421C5.62895 23.2421 5.32632 23.1816 4.96316 23.0605C4.47895 22.879 4.23684 22.5158 4.23684 21.9105V12.9527H9.44211V21.85C9.44211 22.3948 9.26053 22.8184 8.71579 23C8.35263 23.1211 8.05 23.1211 7.56579 23.1816V23.9684H13.6789V23.1816C13.2553 23.1816 12.8316 23.0605 12.4684 22.879C11.9842 22.6974 11.7421 22.3342 11.7421 21.729V14.2842C11.7421 13.7395 11.9842 13.3763 12.4684 13.1342C12.8316 12.9527 13.2553 12.8921 13.6789 12.8316V12.0448H13.7395ZM17.4316 3.45002C17.4316 4.41844 16.9474 5.08423 15.7368 5.08423H15.5553V1.75528H15.9789C17.0079 1.75528 17.4316 2.36055 17.4316 3.45002ZM7.86842 5.32634H5.56842L6.71842 2.36055L7.86842 5.32634ZM19.3684 3.20792C19.3684 1.93686 18.4 1.3316 16.5237 1.3316H12.4684V1.69476C12.65 1.69476 13.1342 1.81581 13.3158 1.87634C13.6184 1.99739 13.6789 2.17897 13.6789 2.42107V7.80792C13.6789 8.05002 13.6184 8.2316 13.3158 8.35265C12.8921 8.47371 12.4079 8.4737 12.4079 8.4737C12.1658 8.4737 11.8632 8.35265 11.6211 8.2316C11.3184 8.05002 11.1368 7.86844 11.0763 7.62634C10.5921 6.41581 9.44211 3.38949 8.11053 0.0605469H7.08158C6.05263 2.42107 4.96316 5.14476 4.11579 7.3237C3.93421 7.74739 3.69211 7.98949 3.38947 8.17107C3.14737 8.29213 2.78421 8.35265 2.54211 8.41318V8.83686H6.17368V8.41318C5.75 8.41318 4.78158 8.29213 4.78158 7.86844C4.78158 7.68686 4.84211 7.44476 4.90263 7.14213C5.02368 6.83949 5.20526 6.29476 5.32632 5.9316H8.17105L8.89737 7.74739C8.89737 7.80792 8.9579 7.92897 8.9579 8.05002C8.9579 8.29213 8.11053 8.41318 7.68684 8.41318V8.83686H12.4684H16.7053V8.4737C16.5237 8.4737 16.0395 8.35265 15.8579 8.29213C15.6158 8.17107 15.4947 7.98949 15.4947 7.74739V5.56844H16.0395C17.7342 5.56844 19.3684 4.84213 19.3684 3.20792ZM23.4237 5.02371H23.8474C25.0579 5.02371 25.5421 5.68949 25.5421 6.65792C25.5421 7.74739 24.9368 8.35265 24.2105 8.35265C23.6658 8.35265 23.4842 8.05002 23.4842 7.68686V5.02371H23.4237ZM23.4237 4.53949V1.75528H24.5132C24.8763 1.75528 25.1789 1.75528 25.4211 1.81581C25.9053 1.87634 26.5105 2.78423 26.6921 3.26844H27.1158V1.3316H20.3368V1.69476C20.5184 1.69476 21.0632 1.75528 21.1842 1.81581C21.4263 1.93686 21.5474 2.11844 21.5474 2.36055V7.74739C21.5474 7.98949 21.4868 8.17107 21.1842 8.29213C21.0026 8.35265 20.5789 8.4737 20.3368 8.4737V8.83686H24.5737C26.5105 8.83686 27.4789 8.05002 27.4789 6.77897C27.4789 5.08423 25.8447 4.60002 24.15 4.60002H23.4237V4.53949ZM25.7842 18.0974C25.7842 21.5474 24.3316 23.4237 22.3342 23.4237C20.6395 23.4237 19.7316 22.2737 19.4895 21.4869V14.3448C20.0947 13.6184 20.9421 13.0737 22.1526 13.0737C24.7553 13.0737 25.7842 15.6158 25.7842 18.0974ZM28.4474 18.0974C28.4474 14.2237 26.0263 11.6816 23.0605 11.6816C21.4263 11.6816 20.1553 12.7711 19.55 13.3763H19.4289V12.0448L19.2474 11.8632L15.0105 12.1658V12.9527C15.4947 12.9527 16.1 13.1342 16.4632 13.3158C16.8868 13.6184 17.0684 14.0421 17.1289 14.5869V27.6C17.1289 28.1448 16.9474 28.629 16.4632 28.8105C16.1 28.9316 15.4947 28.9921 15.0105 28.9921V29.779H21.9711V29.0527C21.4868 29.0527 20.5789 28.8711 20.2158 28.6895C19.7316 28.5079 19.4895 28.0842 19.4895 27.479V23.4842H19.6105C20.2158 23.9079 21.0632 24.2711 22.5763 24.2711C25.6026 24.3316 28.4474 21.729 28.4474 18.0974ZM33.6526 8.83686H37.7079V8.4737C37.5263 8.4737 37.0421 8.41318 36.9211 8.29213C36.6789 8.17107 36.5579 7.98949 36.5579 7.74739V2.36055C36.5579 2.11844 36.6184 1.93686 36.9211 1.81581C37.1026 1.75528 37.4658 1.69476 37.7079 1.69476V1.3316H33.6526V1.69476C33.8342 1.69476 34.2579 1.81581 34.4395 1.87634C34.6816 1.99739 34.8026 2.17897 34.8026 2.42107L31.7158 6.77897V2.36055C31.7158 2.11844 31.7763 1.93686 32.0789 1.81581C32.2605 1.75528 32.6842 1.69476 32.8658 1.69476V1.3316H28.8105V1.69476C28.9921 1.69476 29.4158 1.81581 29.5974 1.87634C29.8395 1.99739 29.9605 2.17897 29.9605 2.42107V7.80792C29.9605 8.05002 29.9 8.2316 29.5974 8.35265C29.4763 8.41318 29.0526 8.41318 28.8105 8.4737V8.83686H32.8658V8.4737C32.6842 8.4737 32.2 8.35265 32.0789 8.29213C31.8368 8.17107 31.7158 7.98949 31.7158 7.74739V7.62634L34.8026 3.26844V7.80792C34.8026 8.05002 34.7421 8.2316 34.4395 8.35265C34.3184 8.41318 33.8342 8.41318 33.6526 8.4737V8.83686ZM36.5579 17.3711L36.4368 21.6684C35.8316 22.3948 35.2263 23 33.8342 23C32.7447 23 32.0789 22.3948 32.0789 21.0632C32.0789 18.9448 33.9553 18.0974 36.5579 17.3711ZM38.7974 21.6079C38.7974 20.7605 38.9184 17.9763 38.9184 15.6763C38.9184 12.2263 36.9816 11.7421 34.4395 11.7421C32.5026 11.7421 30.1421 13.0132 30.1421 14.5869C30.1421 15.3132 30.4447 15.979 31.2921 15.979C32.2 15.979 32.8053 15.4342 32.8053 14.829C32.8053 14.2842 32.5632 13.6184 32.5632 13.2553C32.8053 13.0132 33.4105 12.65 34.2579 12.65C36.3763 12.65 36.4974 14.7684 36.4974 15.2527V16.4027C35.4079 16.9474 33.5316 17.4921 32.0789 18.0369C30.8079 18.5211 29.5368 19.3079 29.5368 21.5474C29.5368 23.2421 30.7474 24.3921 32.5632 24.3921C34.1368 24.3921 35.5289 23.6658 36.4974 22.6369H36.5579C36.9816 23.8474 37.6474 24.3921 38.8579 24.3921C39.5237 24.3921 40.1289 24.2105 40.5526 23.9079L40.3711 22.8184C40.25 22.9395 40.1289 23 39.9474 23C39.0395 22.879 38.7974 21.9105 38.7974 21.6079ZM45.8184 3.45002H46.2421V1.3316H39.0395V3.45002H39.4632C39.6447 2.96581 40.1895 1.87634 40.6737 1.81581C40.9158 1.75528 41.2789 1.75528 41.5211 1.75528H41.7632V7.74739C41.7632 7.98949 41.7026 8.2316 41.4 8.29213C41.2789 8.35265 40.6737 8.41318 40.4921 8.41318V8.77634H44.7895V8.4737C44.6079 8.4737 44.0026 8.35265 43.8816 8.29213C43.6395 8.17107 43.5184 7.98949 43.5184 7.74739V1.75528H43.7605C44.0632 1.75528 44.3658 1.75528 44.6079 1.81581C45.0921 1.87634 45.6368 2.96581 45.8184 3.45002ZM52.4158 3.45002C52.4158 4.41844 51.9316 5.08423 50.7211 5.08423H50.5395V1.75528H50.9632C52.0526 1.75528 52.4158 2.36055 52.4158 3.45002ZM54.4132 3.20792C54.4132 1.93686 53.4447 1.3316 51.5079 1.3316H47.4526V1.69476C47.6342 1.69476 48.1184 1.81581 48.3 1.87634C48.6026 1.99739 48.6632 2.17897 48.6632 2.42107V7.80792C48.6632 8.05002 48.6026 8.2316 48.3 8.35265C48.179 8.41318 47.6342 8.4737 47.4526 8.4737V8.83686H51.629V8.4737C51.4474 8.4737 50.9632 8.35265 50.7816 8.29213C50.5395 8.17107 50.4184 7.98949 50.4184 7.74739V5.56844H50.9632C52.7184 5.56844 54.4132 4.84213 54.4132 3.20792ZM58.65 5.81055H56.6526L57.6211 3.26844L58.65 5.81055ZM72.3289 8.83686H75.1737V8.4737C74.9921 8.4737 74.75 8.41318 74.5079 8.41318C74.3263 8.35265 74.0842 8.29213 73.9026 7.80792L73.2974 6.23423C72.9342 5.32634 72.0868 5.02371 71.3605 4.90265V4.7816C72.0263 4.41844 72.3289 3.81318 72.6921 2.78423C72.8132 2.36055 72.8737 2.23949 72.9947 2.17897C72.9947 2.54213 73.1158 3.20792 73.9632 3.20792C74.5079 3.20792 74.8105 2.78423 74.8105 2.23949C74.8105 1.69476 74.5079 1.15002 73.7211 1.15002C72.8737 1.15002 72.5105 1.69476 72.1474 2.7237C71.8447 3.6316 71.3 4.66055 70.15 4.66055H69.8474V2.36055C69.8474 2.11844 69.9079 1.93686 70.2105 1.81581C70.3921 1.75528 70.8158 1.69476 70.9974 1.69476V1.3316H66.8816V1.69476C67.0632 1.69476 67.4868 1.75528 67.6684 1.81581C67.9711 1.87634 68.0316 2.11844 68.0316 2.36055V4.66055H67.7895C66.6395 4.66055 66.0947 3.6316 65.7921 2.7237C65.4289 1.69476 65.0658 1.15002 64.2184 1.15002C63.4316 1.15002 63.129 1.69476 63.129 2.23949C63.129 2.78423 63.4921 3.20792 63.9763 3.20792C64.8842 3.20792 64.9447 2.54213 64.9447 2.17897C65.0053 2.23949 65.1263 2.36055 65.2474 2.78423C65.6105 3.81318 65.9132 4.41844 66.5789 4.7816V4.84213C65.7921 4.96318 64.9447 5.26581 64.6421 6.1737L64.0368 7.74739C63.8553 8.29213 63.6132 8.35265 63.4316 8.35265C63.1895 8.41318 62.8263 8.41318 62.5842 8.41318V8.4737C62.4026 8.4737 62.1 8.41318 61.9184 8.29213C61.6763 8.11055 61.4947 7.98949 61.4342 7.74739C60.95 6.71844 59.9211 4.05528 58.8316 1.21055H57.9237C57.0763 3.32897 56.1684 5.62897 55.3816 7.50528C55.2605 7.86844 55.0184 8.11055 54.7763 8.2316C54.5947 8.35265 54.2316 8.41318 54.05 8.41318V8.77634H57.1974V8.4737C56.8342 8.4737 55.9868 8.35265 55.9868 7.98949C55.9868 7.80792 56.0474 7.62634 56.1079 7.38423C56.1684 7.0816 56.35 6.65792 56.4711 6.29476H58.8921L59.4974 7.86844C59.4974 7.92897 59.5579 8.05002 59.5579 8.11055C59.5579 8.29213 58.8316 8.41318 58.4684 8.41318V8.77634H62.5237H62.5842H65.6105C65.7921 7.98949 65.9132 7.3237 66.2158 6.59739C66.5184 5.81055 67.1237 5.08423 67.9105 5.08423H68.0921V7.68686C68.0921 7.92897 68.0316 8.11055 67.729 8.2316C67.6079 8.29213 67.1237 8.35265 66.9421 8.41318V8.77634H71.0579V8.4737C70.8763 8.4737 70.3921 8.35265 70.2711 8.29213C70.0289 8.17107 69.9079 7.98949 69.9079 7.74739V5.14476H70.0895C70.8763 5.14476 71.4211 5.87107 71.7842 6.65792C72.0263 7.38423 72.2079 8.05002 72.3289 8.83686ZM78.0184 13.8605L72.3895 20.579V14.1632C72.3895 13.6184 72.5711 13.1948 73.1158 13.0132C73.479 12.8921 73.7816 12.8921 74.2658 12.8316V12.0448H68.1526V12.8316C68.5763 12.8316 69 12.9527 69.3632 13.1342C69.8474 13.3158 70.0895 13.679 70.0895 14.2842V21.7895C70.0895 22.3342 69.8474 22.6974 69.3632 22.9395C69 23.1211 68.5763 23.1816 68.1526 23.2421V24.029H74.2658V23.2421C73.7816 23.2421 73.479 23.1816 73.1158 23.0605C72.6921 22.9395 72.45 22.5763 72.3895 22.1527L78.0184 15.3737V21.9105C78.0184 22.4553 77.8368 22.879 77.2921 23.0605C76.9289 23.1816 76.6263 23.1816 76.1421 23.2421V24.029H82.3158V23.2421C81.8921 23.2421 81.4684 23.1211 81.1053 22.9395C80.6211 22.7579 80.379 22.3948 80.379 21.7895V14.2842C80.379 13.7395 80.6211 13.3763 81.1053 13.1342C81.4684 12.9527 81.8921 12.8921 82.3158 12.8316V12.0448H76.2026V12.8316C76.6868 12.8316 76.9895 12.8921 77.3526 13.0132C77.7158 13.1342 77.9579 13.4369 78.0184 13.8605ZM81.3474 8.83686H85.4026V8.4737C85.2211 8.4737 84.7368 8.41318 84.6158 8.29213C84.3737 8.17107 84.2526 7.98949 84.2526 7.74739V2.36055C84.2526 2.11844 84.3132 1.93686 84.6158 1.81581C84.7974 1.75528 85.1605 1.69476 85.4026 1.69476V1.3316H81.3474V1.69476C81.5289 1.69476 81.9526 1.81581 82.1342 1.87634C82.3763 1.99739 82.4974 2.17897 82.4974 2.42107V4.66055H79.4105V2.36055C79.4105 2.11844 79.4711 1.93686 79.7737 1.81581C79.9553 1.75528 80.379 1.69476 80.5605 1.69476V1.3316H76.5053V1.69476C76.6868 1.69476 77.1105 1.81581 77.2921 1.87634C77.5342 1.99739 77.6553 2.17897 77.6553 2.42107V7.80792C77.6553 8.05002 77.5947 8.2316 77.2921 8.35265C77.1711 8.41318 76.7474 8.41318 76.5053 8.4737V8.83686H80.5605V8.4737C80.379 8.4737 79.8947 8.35265 79.7737 8.29213C79.5316 8.17107 79.4105 7.98949 79.4105 7.74739V5.20528H82.4974V7.86844C82.4974 8.11055 82.4368 8.29213 82.1342 8.41318C82.0132 8.4737 81.5289 8.47371 81.3474 8.53423V8.83686ZM90.7289 5.81055H88.7316L89.7 3.26844L90.7289 5.81055ZM90.4868 8.83686H94.7842L94.7237 8.4737C94.5421 8.4737 94.1184 8.41318 93.9368 8.29213C93.6947 8.11055 93.5132 7.98949 93.4526 7.74739C93.0289 6.71844 92 4.05528 90.9105 1.21055H90.0026C89.1553 3.32897 88.2474 5.62897 87.4605 7.50528C87.3395 7.86844 87.0974 8.11055 86.8553 8.2316C86.6737 8.35265 86.3105 8.41318 86.129 8.41318V8.77634H89.2763V8.4737C88.9132 8.4737 88.0658 8.35265 88.0658 7.98949C88.0658 7.80792 88.1263 7.62634 88.1868 7.38423C88.2474 7.0816 88.429 6.65792 88.55 6.29476H90.9711L91.5763 7.86844C91.5763 7.92897 91.6368 8.05002 91.6368 8.11055C91.6368 8.29213 90.9105 8.41318 90.4868 8.41318V8.83686ZM100.05 4.96318H99.8684C98.9 4.96318 98.1132 4.41844 98.1132 3.20792C98.1132 2.23949 98.7184 1.75528 99.6868 1.75528H100.111V4.96318H100.05ZM98.9 8.83686H103.076V8.4737C102.895 8.4737 102.35 8.41318 102.229 8.35265C101.987 8.2316 101.866 8.05002 101.866 7.80792V2.42107C101.866 2.17897 101.926 1.99739 102.229 1.87634C102.411 1.81581 102.895 1.69476 103.076 1.69476V1.3316H98.9605C97.0237 1.3316 96.0553 1.99739 96.0553 3.20792C96.0553 4.41844 96.9632 4.90265 98.1737 5.14476V5.26581C97.4474 5.44739 96.6605 5.68949 96.3579 6.59739C96.1763 7.02107 95.9342 7.68686 95.8737 7.80792C95.6921 8.2316 95.5711 8.35265 95.2079 8.41318C95.0263 8.4737 94.7842 8.4737 94.6632 8.4737V8.83686H97.5684C97.75 8.05002 97.8711 7.50528 98.1737 6.71844C98.5368 5.87107 99.0816 5.38686 99.8684 5.38686H99.9895V7.74739C99.9895 7.98949 99.929 8.17107 99.6263 8.29213C99.5053 8.35265 99.0211 8.41318 98.8395 8.4737V8.83686H98.9ZM108.645 23.7263L108.463 22.6369C108.342 22.7579 108.221 22.8184 108.039 22.8184C107.192 22.8184 106.889 21.85 106.889 21.5474C106.889 20.7 107.011 17.9158 107.011 15.6158C107.011 12.1658 105.074 11.6816 102.532 11.6816C100.595 11.6816 98.2342 12.9527 98.2342 14.5263C98.2342 15.2527 98.5368 15.9184 99.3842 15.9184C100.292 15.9184 100.897 15.3737 100.897 14.7684C100.897 14.2237 100.655 13.5579 100.655 13.1948C100.897 12.9527 101.503 12.5895 102.35 12.5895C104.468 12.5895 104.589 14.7079 104.589 15.1921V16.3421C103.5 16.8869 101.624 17.4316 100.171 17.9763C98.9 18.4605 97.629 19.2474 97.629 21.4869C97.629 23.1816 98.8395 24.3316 100.655 24.3316C101.139 24.3316 101.624 24.2711 102.047 24.15C102.047 24.15 104.226 23.3632 103.984 23C103.682 22.7579 103.863 22.6974 103.621 22.6974C103.682 22.6369 103.258 22.7579 103.258 22.7579C102.895 22.9395 102.471 23 101.987 23C100.897 23 100.232 22.3948 100.232 21.0632C100.232 18.9448 102.108 18.1579 104.711 17.3711L104.589 21.6684C104.589 22.2132 104.711 22.5763 104.711 22.5763C105.134 23.7869 105.8 24.3316 107.011 24.3316C107.616 24.2711 108.221 24.0895 108.645 23.7263Z" fill="#2B5480"/>
<path d="M60.8893 29.8395C60.5261 29.8395 60.4656 29.6579 60.4656 29.2947C60.4656 29.0526 60.5261 28.6289 61.0103 28.0842C61.3735 27.6605 61.7366 27.4789 61.9788 27.4789C62.2814 27.4789 62.4024 27.6 62.4024 28.0842C62.4024 28.0842 62.4024 28.4474 62.1603 28.8711C61.7366 29.5974 61.1919 29.8395 60.8893 29.8395ZM51.6288 29.9605C50.963 31.05 50.3577 31.8974 49.813 31.8974C49.3288 31.8974 49.4498 30.7474 50.1156 29.6579C50.8419 28.5684 51.7498 27.7211 52.113 27.7816C52.5366 27.7211 52.4156 28.5684 51.6288 29.9605ZM50.3577 32.9868C49.5103 34.9237 48.5419 36.2553 48.3603 36.0132C48.1788 35.7105 48.7235 33.9553 50.3577 32.9868ZM64.2182 30.9289C64.3998 30.5658 64.3998 30.2632 64.3393 30.1421C64.2788 30.0211 64.2182 30.0211 64.1577 30.1421C63.734 31.05 63.0077 31.8974 62.463 31.8974C62.0393 31.8974 62.0393 31.3526 62.3419 30.6868C62.6445 30.0211 63.3103 29.0526 63.5524 28.5079C63.8551 27.8421 63.734 27.2974 63.5524 27.1158C63.4919 26.9947 63.3709 27.0553 63.2498 27.1763C63.1288 27.3579 63.0077 27.5395 62.8866 27.7816C62.8866 27.4789 62.463 26.9342 61.8577 26.9342C61.313 26.9342 60.6472 27.0553 60.1024 27.7211C59.5577 28.3868 59.4972 28.9921 59.4972 29.1132C59.4972 29.7184 60.0419 30.1421 60.6472 30.1421C61.0103 30.1421 61.3735 30.0211 61.6761 29.8395C61.1314 30.7474 60.4656 31.6553 59.9814 31.6553C59.7998 31.6553 59.6182 31.4737 59.6182 31.2921C59.6182 31.2316 59.6182 31.2316 59.6182 30.8684C59.6182 30.6263 59.4366 30.3237 59.3156 30.2026C59.3156 30.1421 59.3156 30.0816 59.2551 30.0816C59.1945 29.9605 59.134 29.9605 59.0735 30.0816C58.8919 30.0816 58.8314 30.2026 58.7709 30.5658C58.3472 31.2921 57.863 31.8368 57.3788 31.8368C56.8945 31.8368 56.834 31.4132 57.1366 30.6868L58.1656 27.9632C58.3472 27.5395 58.3472 27.0553 58.1051 26.8132C57.984 26.6921 57.8024 26.6921 57.6814 26.8737L56.2893 29.0526C54.9577 31.1105 54.3524 31.8974 53.9893 31.8974C53.7472 31.8974 53.7472 31.4132 53.9288 30.9289C54.1709 30.5658 54.2314 30.3237 54.1709 30.2026C54.1709 30.0816 54.0498 30.0816 53.9288 30.2026C53.4445 30.8684 52.7182 31.5947 51.6288 32.1395C52.1735 30.9289 52.9603 29.3553 53.3235 28.6289C53.6261 28.0237 53.5656 27.4789 53.3235 27.2368C53.263 27.1158 53.0814 27.1158 53.0209 27.2974C52.8998 27.5395 52.7788 27.7211 52.5972 28.0237C52.5972 27.6 52.3551 27.1763 51.8709 27.1763C51.6287 27.1763 51.2656 27.2974 50.9024 27.4789C49.3893 28.0842 45.1524 27.2974 44.5472 27.2974C43.2761 27.2974 43.034 28.1447 42.913 28.5684C42.913 28.6895 42.913 28.8105 43.0945 28.75C43.3366 28.6895 43.5182 28.1447 44.4866 28.1447C45.8182 28.1447 47.513 28.5079 48.9656 28.5079C49.2682 28.5079 49.5709 28.4474 49.813 28.4474C49.6314 28.6895 49.3893 28.9316 49.2077 29.2342C48.1788 30.7474 48.4209 32.3211 49.5709 32.3211C50.0551 32.3211 50.4788 32.0789 50.8419 31.7158C50.7209 32.0184 50.5998 32.3211 50.4788 32.5632C49.2077 33.0474 48.1182 33.8342 47.7551 34.9842C47.513 35.7105 47.7551 36.1947 47.9972 36.5579C48.2393 36.8605 48.4814 36.921 48.7235 36.8C49.7524 36.3763 50.6603 34.3789 51.3261 32.6842C52.0524 32.4421 52.6577 32.1395 53.2024 31.7158C53.2024 32.0789 53.384 32.3816 53.9288 32.3816C54.5945 32.3816 55.4419 31.5342 56.5314 29.4763H56.6524C55.563 31.7158 55.9261 32.3816 57.1366 32.3816C57.7419 32.3816 58.3472 31.9579 58.7709 31.4737C58.9524 31.8974 59.3156 32.3211 59.8603 32.3211C60.5261 32.3211 60.9498 31.8368 61.313 31.2316L61.2524 31.3526C61.2524 31.9579 61.6156 32.3816 62.2814 32.3816C63.0682 32.3211 63.8551 31.6553 64.2182 30.9289ZM72.0866 28.9921C71.9051 28.8105 71.7235 28.4474 71.784 28.0842C71.8445 27.7211 72.0866 27.6605 72.1472 28.0237C72.2077 28.2658 72.1472 28.6289 72.0866 28.9921ZM71.7235 29.1737C71.784 29.2342 71.9051 29.2947 71.9656 29.3553C71.8445 29.6579 71.7235 30.0211 71.5419 30.3842C70.9366 31.5342 70.1498 32.0184 69.7866 31.7158C69.484 31.4132 69.6656 30.2632 70.2103 29.2947C70.4524 28.8105 70.8761 28.3868 71.1787 28.0842C71.1787 28.5684 71.4814 28.9921 71.7235 29.1737ZM73.1761 29.3553C73.2366 29.2947 73.2366 29.2342 73.1156 29.2342C72.9945 29.2342 72.934 29.2342 72.8735 29.2342V28.9316C72.934 28.0237 72.5709 27.9026 72.2682 27.5395C72.0261 27.1763 71.784 27.0553 71.4209 27.1158C70.634 27.1763 69.9077 27.9026 69.4235 28.75C69.363 28.8711 69.3024 28.9921 69.2419 29.1132C68.8788 29.2342 68.4551 29.2947 68.0919 29.4158C68.2735 29.1132 68.3945 28.8711 68.5156 28.6289C68.8182 27.9632 68.6972 27.4184 68.5156 27.2368C68.3945 27.1158 68.334 27.1763 68.213 27.2974C67.8498 27.7816 67.3656 28.6895 66.9419 29.5974C66.5788 29.6579 66.4577 30.1421 66.6998 30.1421C66.6393 30.3237 66.5788 30.5053 66.5182 30.6868C66.2761 31.4737 66.3972 31.8974 66.5788 32.0789C66.6998 32.2 66.7603 32.2 66.7603 32.0789C67.063 31.4132 67.4261 30.6868 67.7893 29.9605C68.213 29.9 68.6972 29.7789 69.0603 29.6579C68.8787 30.3842 68.8788 31.05 69.2419 31.5342C69.7261 32.2 70.3919 32.2605 70.8156 32.0789C71.784 31.7763 72.5709 30.5053 72.813 29.4158C72.934 29.4763 73.0551 29.4158 73.1761 29.3553ZM97.9314 28.9921C97.7498 28.8105 97.5682 28.4474 97.6287 28.0842C97.6893 27.7211 97.9314 27.6605 97.9919 28.0237C98.0524 28.2658 97.9919 28.6289 97.9314 28.9921ZM97.5682 29.1737C97.6287 29.2342 97.7498 29.2947 97.8103 29.3553C97.6893 29.6579 97.5682 30.0211 97.3866 30.3842C96.7814 31.5342 95.9945 32.0184 95.6314 31.7158C95.3287 31.4132 95.5103 30.2632 96.0551 29.2947C96.2972 28.8105 96.6603 28.3868 97.0235 28.0842C97.0235 28.5684 97.3261 28.9921 97.5682 29.1737ZM74.2656 31.6553C73.9024 31.3526 73.963 30.6263 74.2656 29.7789C74.4472 29.5368 74.5682 29.2947 74.6893 29.0526C75.2945 28.0842 76.0814 27.4184 76.384 27.6C76.6866 27.7816 76.5656 28.8105 76.0814 29.8395C75.5366 31.05 74.6893 31.9579 74.2656 31.6553ZM98.9603 29.2342C98.8393 29.2342 98.7788 29.2342 98.7182 29.2342C98.7182 29.1132 98.7182 29.0526 98.7182 28.9316C98.7788 28.0237 98.4156 27.9026 98.113 27.5395C97.8709 27.1763 97.6287 27.0553 97.2656 27.1158C96.4787 27.1763 95.7524 27.9026 95.2682 28.75C95.0261 29.2342 94.8445 29.6579 94.784 30.1421C94.2998 31.05 93.6945 31.8368 93.2103 31.8368C92.7261 31.8368 92.5445 31.2921 92.9077 30.5658C93.2103 29.9 93.8761 29.1132 94.0577 28.5079C94.2998 27.8421 94.2393 27.1158 93.7551 27.1158C93.3314 27.1158 92.484 27.7211 91.8787 28.3263C92.0603 27.7816 91.8182 27.1158 91.3945 27.0553C90.9103 27.0553 90.0024 27.7816 89.3972 28.4474C89.5787 27.9632 89.6393 27.4184 89.3972 27.1158C89.3366 26.9947 89.2156 26.9947 89.1551 27.1158C88.5498 27.9632 87.9445 29.1737 87.5209 30.0816L87.4603 30.1421C86.9156 30.9289 86.0077 31.9579 84.9787 31.9579C84.2524 31.9579 83.9498 30.8684 84.6761 29.4763C85.2209 28.3263 86.1893 27.4789 86.4314 27.6605C86.613 27.7816 86.2498 28.3263 86.0682 28.8105C85.8866 29.3553 86.0682 29.7789 86.3709 29.9C86.5524 29.9605 86.613 29.9605 86.613 29.7789C86.8551 29.1132 87.3998 28.4474 87.0972 27.9026C86.9156 27.6 86.734 27.4184 86.3709 27.1763C85.7051 26.8132 84.434 27.4789 83.6472 29.1132C83.4656 29.4763 83.3445 29.8395 83.284 30.2026C82.7998 31.1105 82.134 31.8974 81.5893 31.9579C81.1051 31.9579 81.1051 31.4737 81.4077 30.7474C81.7103 30.0816 82.3156 29.1737 82.6182 28.5684C82.9209 27.9026 82.7998 27.3579 82.6182 27.1158C82.4972 26.9947 82.4366 26.9947 82.3156 27.1763C81.8919 27.7211 81.5287 28.6289 80.7419 29.9C80.0761 30.9895 79.3498 31.8974 78.8656 31.8368C78.563 31.8368 78.563 31.3526 78.8051 30.7474C79.0472 30.1421 79.3498 29.6579 79.7735 28.8711C80.2577 28.1447 80.3182 27.6 80.0156 27.1763C79.8945 27.0553 79.7735 27.0553 79.713 27.1763C78.9866 28.2053 78.3814 29.2947 78.0788 30.0816C78.0182 30.0816 78.0182 30.1421 77.9577 30.2026C77.534 31.05 76.8077 31.9579 75.5366 32.0789C76.0209 31.7763 76.5051 31.171 76.8682 30.3237C77.3524 29.2947 77.5945 28.1447 76.9893 27.4789C76.4445 26.9342 75.7182 27.2368 75.113 27.7211C75.113 27.4789 75.113 27.2974 75.0524 27.1763C74.9919 26.9947 74.8709 26.9947 74.7498 27.1763C73.963 28.2658 71.784 32.2605 71.4209 33.5316C71.1788 34.3184 71.2393 34.6816 71.4209 34.9237C71.4814 35.0447 71.6024 34.9842 71.663 34.9237C72.2682 33.5316 72.934 32.2 73.5393 31.1105C73.5998 31.4132 73.7209 31.7158 73.963 31.9579C74.3866 32.3816 74.9314 32.5026 75.7787 32.4421C76.5656 32.3816 77.2919 32.0789 77.7761 31.4737C77.8366 31.9579 78.0182 32.3211 78.563 32.3211C79.2893 32.3816 79.9551 31.7158 80.3787 31.1105C80.2577 31.8368 80.6209 32.3816 81.4077 32.3816C82.134 32.3816 82.8603 31.8368 83.2235 31.1711C83.4051 31.8974 83.9498 32.3816 84.8577 32.3816C85.584 32.3816 86.3709 32.0184 86.9156 31.4737C86.8551 31.8368 86.9761 32.1395 87.1577 32.3211C87.2787 32.4421 87.3393 32.3816 87.3998 32.2605C87.884 31.05 88.4893 29.9 89.2761 29.0526C90.063 28.1447 90.7288 27.8421 90.8498 27.9026C91.0919 27.9632 89.7603 29.7184 89.3366 30.8079C88.9735 31.7158 89.1551 32.2 89.3366 32.3816C89.4577 32.5026 89.5788 32.4421 89.6393 32.3211C90.184 31.1105 90.7893 29.9 91.8787 28.8711C92.7261 28.0237 93.1498 27.9026 93.2103 27.9632C93.3919 28.0237 92.2419 29.4763 91.8182 30.5053C91.334 31.5342 91.7577 32.4421 92.8472 32.4421C93.513 32.4421 94.2998 31.8974 94.663 31.2316C94.7235 31.4132 94.784 31.5947 94.9051 31.7763C95.3893 32.4421 96.0551 32.5026 96.4787 32.3211C97.4472 32.0184 98.234 30.7474 98.4761 29.6579C98.5972 29.6579 98.7182 29.5974 98.8393 29.4763C99.0814 29.2947 99.0814 29.2342 98.9603 29.2342ZM101.866 26.3895C102.713 24.4526 103.681 23.1211 103.863 23.3632C104.105 23.6658 103.5 25.4211 101.866 26.3895ZM102.41 27.5395C102.895 27.5395 102.895 28.5684 102.35 29.7789C101.805 30.8684 101.139 31.7158 100.595 31.7763C100.11 31.7763 99.9893 30.6868 100.655 29.4763C101.2 28.3263 101.926 27.5395 102.41 27.5395ZM104.105 22.9395C103.863 22.6368 103.621 22.5763 103.379 22.6974C102.35 23.1211 101.563 25.1789 100.776 26.8132C100.716 26.9342 100.655 27.1158 100.595 27.2368C100.11 27.5395 99.6261 27.7816 99.1419 27.9026C99.0209 27.9026 98.9603 28.0237 99.0814 28.0842C99.1419 28.1447 99.4445 28.1447 99.8682 28.1447C99.9893 28.1447 100.11 28.0842 100.292 27.9632C99.6866 29.3553 99.4445 29.8395 99.4445 30.4447C99.4445 31.6553 100.11 32.2605 101.018 32.2605C101.684 32.2605 102.35 31.8974 103.137 30.3237C103.802 28.9316 103.802 27.2368 102.652 27.2368C102.168 27.2368 101.745 27.4789 101.381 27.9026C101.502 27.6 101.623 27.3579 101.745 27.0553C101.805 27.0553 101.805 26.9947 101.866 26.9947C103.076 26.5105 104.166 25.7237 104.529 24.6342C104.65 23.7868 104.408 23.3026 104.105 22.9395Z" fill="#CFB186"/>
</g>
<defs>
<clipPath id="clip0_131_3758">
<rect width="108.645" height="36.8" fill="white"/>
</clipPath>
</defs>
</svg>
