<svg width="234" height="36" viewBox="0 0 234 36" fill="none" xmlns="http://www.w3.org/2000/svg">
<g clip-path="url(#clip0_40_307)">
<path d="M101.382 14.8412C99.8774 14.8412 99.0752 13.7381 99.0752 11.7325V11.532C99.0752 9.5264 99.8774 8.52361 101.382 8.52361C102.585 8.52361 103.086 9.12528 103.287 10.2283H107.097C106.897 6.61832 104.189 5.3147 101.281 5.3147C97.7716 5.3147 94.9638 7.6211 94.9638 11.532V11.7325C94.9638 15.7437 97.6713 17.8495 101.181 17.8495C104.992 17.8495 107.097 15.8439 107.198 12.8356H103.487C103.287 14.1392 102.485 14.8412 101.382 14.8412Z" fill="#363C42"/>
<path d="M107.699 8.42328H111.109V17.5486H115.12V8.42328H118.429V5.61548H107.699V8.42328Z" fill="#363C42"/>
<path d="M74.8078 5.3147C73.0028 5.3147 71.7994 6.31748 71.0975 7.42055V5.61553H66.9861V21.5598H71.0975V15.8439C71.6992 17.0473 73.0028 17.8495 74.8078 17.8495C77.6156 17.8495 79.8217 15.8439 79.8217 11.7325V11.532C79.8217 7.42055 77.5153 5.3147 74.8078 5.3147ZM75.61 11.6322C75.61 13.6378 74.8078 14.6406 73.3036 14.6406C71.7994 14.6406 70.8969 13.6378 70.8969 11.6322V11.4317C70.8969 9.42612 71.7994 8.32305 73.3036 8.32305C74.7075 8.32305 75.61 9.32584 75.61 11.4317V11.6322Z" fill="#363C42"/>
<path d="M135.476 5.61548H131.265L128.056 10.3286V5.61548H123.944V17.5486H128.056V12.3341L131.265 17.5486H135.777L131.565 10.9302L135.476 5.61548Z" fill="#363C42"/>
<path d="M56.9582 1.00269C52.9471 1.00269 49.6379 3.50965 48.8357 7.42051H47.3315V1.20324H42.6184V17.4484H47.3315V11.0305H48.8357C49.4373 15.0417 52.4457 17.7492 56.9582 17.7492C61.9721 17.7492 65.3816 14.3397 65.3816 9.32581V9.12525C65.2813 4.11132 61.6713 1.00269 56.9582 1.00269ZM60.3677 9.42608C60.3677 12.3342 59.0641 14.1392 56.9582 14.1392C54.9526 14.1392 53.5487 12.4344 53.5487 9.42608V9.22553C53.5487 6.21717 54.8524 4.61271 56.9582 4.61271C58.9638 4.61271 60.3677 6.31745 60.3677 9.22553V9.42608Z" fill="#363C42"/>
<path d="M85.5376 12.8355V5.61548H81.4262V17.5486H85.5376L89.2479 10.2283V17.5486H93.2591V5.61548H89.2479L85.5376 12.8355Z" fill="#363C42"/>
<path d="M212.089 12.8355V5.61548H207.978V17.5486H212.089L215.799 10.2283V17.5486H219.811V5.61548H215.799L212.089 12.8355Z" fill="#363C42"/>
<path d="M201.66 10.0277H198.15V5.61548H194.039V17.5486H198.15V12.8355H201.66V17.5486H205.772V5.61548H201.66V10.0277Z" fill="#363C42"/>
<path d="M142.295 5.3147C138.585 5.3147 135.777 7.72138 135.777 11.532V11.7325C135.777 15.5431 138.585 17.8495 142.295 17.8495C146.006 17.8495 148.813 15.5431 148.813 11.6322V11.4317C148.713 7.6211 145.905 5.3147 142.295 5.3147ZM144.602 11.6322C144.602 13.6378 143.799 14.7409 142.295 14.7409C140.691 14.7409 139.889 13.6378 139.889 11.532V11.3314C139.889 9.32584 140.691 8.22277 142.295 8.22277C143.799 8.22277 144.602 9.32584 144.602 11.3314V11.6322Z" fill="#363C42"/>
<path d="M229.838 5.61548L226.128 12.8355V5.61548H222.117V17.5486H226.128L229.838 10.2283V17.5486H233.95V5.61548H229.838Z" fill="#363C42"/>
<path d="M157.838 11.5319L155.532 5.61548H150.318V17.5486H153.526V9.82718L156.535 17.5486H158.039L161.148 9.82718V17.5486H165.159V5.61548H160.245L157.838 11.5319Z" fill="#363C42"/>
<path d="M167.365 17.5486H171.476V8.42328H174.786V17.5486H178.897V5.61548H167.365V17.5486Z" fill="#363C42"/>
<path d="M186.518 5.3147C183.309 5.3147 181.003 6.7186 180.802 9.62667H184.613C184.713 8.92473 185.114 8.22277 186.217 8.22277C187.521 8.22277 187.822 8.92473 187.822 10.1281V10.4289H186.719C182.708 10.4289 180.401 11.532 180.401 14.3398C180.401 16.8467 182.306 17.9498 184.412 17.9498C186.318 17.9498 187.421 17.1476 187.922 16.2451V17.649H191.933V9.82723C191.933 6.61832 189.827 5.3147 186.518 5.3147ZM187.822 13.337C187.822 14.3398 186.919 15.0417 185.816 15.0417C184.813 15.0417 184.412 14.6406 184.412 13.9387C184.412 12.9359 185.114 12.635 186.819 12.635H187.922V13.337H187.822Z" fill="#363C42"/>
<path d="M0.401114 0H0V34.4958H0.300836H0.401114C9.12535 34.4958 16.2451 26.7744 16.2451 17.2479C16.2451 7.72145 9.22563 0 0.401114 0Z" fill="#471485"/>
<path d="M34.4958 34.4958V0L18.2507 17.2479L34.4958 34.4958Z" fill="#471485"/>
<path d="M47.9331 28.8801C47.9331 28.2785 47.9331 27.4762 47.9331 26.9749H42.5181C42.5181 27.376 42.6184 27.9776 42.6184 28.6796V33.493H43.6212C43.6212 32.8913 43.5209 32.0891 43.5209 31.1866V28.9804C43.5209 28.5793 43.5209 28.1782 43.5209 27.8774C44.5237 27.8774 46.1281 27.8774 47.1309 27.8774C47.1309 28.1782 47.1309 28.479 47.1309 28.7799V33.5932H48.1337C48.1337 32.9916 48.0334 32.1893 48.0334 31.2868V28.8801H47.9331Z" fill="#363C42"/>
<path d="M52.1448 29.2812C51.5432 29.2812 50.9415 29.6824 50.7409 29.9832L50.5404 29.4818L49.7382 29.5821C49.7382 29.8829 49.8384 30.1838 49.8384 30.4846V35.8996H50.7409C50.7409 35.5988 50.7409 35.298 50.7409 34.9971V33.4929C51.0418 33.5932 51.3426 33.5932 51.7437 33.5932C53.0474 33.5932 53.9499 32.6907 53.9499 31.1865C53.7493 30.1838 53.2479 29.2812 52.1448 29.2812ZM51.4429 32.791C51.1421 32.791 50.8412 32.6907 50.6407 32.5904V31.1865C50.6407 30.3843 51.0418 29.9832 51.7437 29.9832C52.546 29.9832 52.8468 30.5849 52.8468 31.3871C52.8468 32.2896 52.4457 32.791 51.4429 32.791Z" fill="#363C42"/>
<path d="M57.961 30.4846C57.961 29.6824 57.3593 29.2812 56.6574 29.2812C55.9554 29.2812 55.3538 29.4818 54.9526 29.7826L55.2535 30.4846C55.6546 30.284 56.156 30.0835 56.4568 30.0835C56.8579 30.0835 57.1588 30.284 57.1588 30.7854V31.0863C56.0557 31.1865 54.7521 31.6879 54.7521 32.6907C54.7521 33.2924 55.1532 33.6935 55.8552 33.6935C56.4568 33.6935 56.8579 33.2924 57.0585 32.9916H57.1588L57.2591 33.5932L58.0613 33.4929C58.0613 33.2924 57.961 32.791 57.961 32.3899C57.8607 31.6879 57.961 31.0863 57.961 30.4846ZM57.1588 31.7882C57.1588 32.3899 56.6574 32.8913 56.0557 32.8913C55.7549 32.8913 55.5543 32.6907 55.5543 32.3899C55.5543 31.7882 56.3565 31.5877 57.0585 31.6879V31.7882H57.1588Z" fill="#363C42"/>
<path d="M62.8747 29.3816H61.8719C61.8719 29.3816 61.1699 30.2841 60.8691 30.5849C60.6685 30.7855 60.3677 30.986 60.2674 30.986V29.3816H59.3649C59.3649 29.6824 59.3649 29.9833 59.3649 30.2841V33.3927H60.2674C60.2674 33.0919 60.2674 32.7911 60.2674 32.4902V31.4874C60.468 31.4874 60.6685 31.5877 60.7688 31.7883L61.8719 33.3927H62.9749C62.7744 33.1922 61.1699 31.2869 61.1699 31.1866C61.7716 30.7855 62.8747 29.3816 62.8747 29.3816Z" fill="#363C42"/>
<path d="M63.4763 30.1838C63.8774 30.0835 64.4791 30.0835 64.9805 30.0835C64.9805 30.1838 64.9805 30.2841 64.9805 30.3844V33.3927H65.883C65.883 33.0919 65.7827 32.5905 65.7827 32.2897V30.3844C65.7827 30.2841 65.7827 30.1838 65.7827 30.0835C66.2841 30.0835 66.8858 30.0835 67.2869 30.1838V29.3816H63.376V30.1838H63.4763Z" fill="#363C42"/>
<path d="M72.2006 29.3816H71.298C70.8969 30.0835 70.0947 31.3872 69.3928 32.2897V29.3816H68.4902C68.4902 29.6824 68.4902 29.9833 68.4902 30.2841V33.3927H69.3928C69.9944 32.3899 70.6964 31.4874 71.298 30.5849V33.3927H72.2006C72.2006 33.0919 72.2006 32.7911 72.2006 32.4902V29.3816Z" fill="#363C42"/>
<path d="M76.8134 29.3816H75.9109C75.9109 29.6824 76.0111 29.9833 76.0111 30.2841V30.4847C76.0111 30.986 75.7103 31.4874 75.1086 31.4874C74.507 31.4874 74.3064 30.986 74.3064 30.3844V29.3816H73.4039C73.4039 29.7827 73.4039 30.1838 73.4039 30.6852C73.4039 31.7883 74.0056 32.2897 74.8078 32.2897C75.4095 32.2897 75.7103 32.0891 76.0111 31.688V33.3927H76.9136C76.9136 33.0919 76.9136 32.7911 76.9136 32.4902V29.3816H76.8134Z" fill="#363C42"/>
<path d="M80.1226 29.2812C78.9192 29.2812 78.0167 30.284 78.0167 31.5877C78.0167 32.8913 78.7187 33.6935 79.922 33.6935C80.624 33.6935 81.1253 33.4929 81.4262 33.1921L81.1254 32.5904C80.9248 32.6907 80.624 32.8913 80.1226 32.8913C79.4206 32.8913 78.9192 32.3899 78.9192 31.5877H81.4262C81.5265 31.3871 81.5265 31.0863 81.5265 30.7854C81.5265 29.8829 81.0251 29.2812 80.1226 29.2812ZM80.624 30.7854L78.9192 30.8857C79.0195 30.284 79.4206 29.8829 80.0223 29.8829C80.5237 29.8829 80.7242 30.284 80.624 30.7854Z" fill="#363C42"/>
<path d="M84.4345 29.9831C84.9359 29.9831 85.2368 30.1837 85.4373 30.284L85.8384 29.582C85.5376 29.3815 85.0362 29.1809 84.5348 29.1809C83.3315 29.1809 82.429 30.1837 82.429 31.4873C82.429 32.7909 83.1309 33.5932 84.3343 33.5932C85.0362 33.5932 85.5376 33.3926 85.8384 33.0918L85.5376 32.4901C85.337 32.5904 85.0362 32.7909 84.5348 32.7909C83.8329 32.7909 83.3315 32.2895 83.3315 31.387C83.2312 30.4845 83.8329 29.9831 84.4345 29.9831Z" fill="#363C42"/>
<path d="M90.4513 29.3816H89.4485C89.4485 29.3816 88.7465 30.2841 88.4457 30.5849C88.2451 30.7855 87.9443 30.986 87.844 30.986V29.3816H86.9415C86.9415 29.6824 86.9415 29.9833 86.9415 30.2841V33.3927H87.844C87.844 33.0919 87.844 32.7911 87.844 32.4902V31.4874C88.0446 31.4874 88.2451 31.5877 88.3454 31.7883L89.4485 33.3927H90.5515C90.351 33.1922 88.7465 31.2869 88.7465 31.1866C89.3482 30.7855 90.4513 29.3816 90.4513 29.3816Z" fill="#363C42"/>
<path d="M95.1643 29.3816H94.2618C93.8607 30.0835 93.0585 31.3872 92.3565 32.2897V29.3816H91.454C91.454 29.6824 91.454 29.9833 91.454 30.2841V33.3927H92.3565C92.9582 32.3899 93.6602 31.4874 94.2618 30.5849V33.3927H95.2646C95.2646 33.0919 95.2646 32.7911 95.2646 32.4902V29.3816H95.1643Z" fill="#363C42"/>
<path d="M98.5738 28.8801C99.6769 28.8801 99.9777 28.0779 99.9777 27.8773L99.2758 27.6768C99.2758 27.777 99.0752 28.2784 98.5738 28.2784C98.0724 28.2784 97.9721 27.777 97.9721 27.6768L97.1699 27.777C97.1699 28.0779 97.3705 28.8801 98.5738 28.8801Z" fill="#363C42"/>
<path d="M100.379 29.3816H99.4763C99.0752 30.0835 98.273 31.3872 97.571 32.2897H97.4707V29.3816H96.5682C96.5682 29.6824 96.5682 29.9833 96.5682 30.2841V33.3927H97.4707C98.0724 32.3899 98.7744 31.4874 99.376 30.5849V33.3927H100.279C100.279 33.0919 100.279 32.7911 100.279 32.4902V29.3816H100.379Z" fill="#363C42"/>
<path d="M107.9 31.1866C108.401 30.6852 109.604 29.3816 109.604 29.3816H108.602C108.602 29.3816 108 30.2841 107.599 30.5849C107.398 30.7855 107.097 30.986 106.997 31.0863V29.3816H106.095C106.095 29.6824 106.095 29.9833 106.095 30.2841V31.0863C105.994 30.986 105.694 30.8858 105.493 30.5849C105.092 30.1838 104.49 29.3816 104.49 29.3816H103.487C103.487 29.3816 104.591 30.6852 105.192 31.1866C105.092 31.2869 103.487 33.1922 103.387 33.3927H104.49L105.593 31.7883C105.794 31.5877 105.994 31.4874 106.095 31.4874V33.3927H106.997C106.997 33.0919 106.997 32.7911 106.997 32.4902V31.4874C107.198 31.4874 107.398 31.5877 107.499 31.7883L108.602 33.3927H109.705C109.504 33.1922 108 31.2869 107.9 31.1866Z" fill="#363C42"/>
<path d="M112.412 32.4902C112.011 31.688 111.51 30.2841 111.209 29.3816H110.106C110.407 29.9833 111.309 32.0891 111.911 33.6936C111.61 34.3955 111.309 34.9972 110.908 34.9972C110.708 34.9972 110.507 34.8969 110.407 34.8969L110.106 35.6991C110.206 35.7994 110.507 36 110.908 36C111.911 36 112.513 34.195 112.914 33.0919C113.415 31.688 114.017 30.1838 114.318 29.4819H113.315C113.415 29.883 112.813 31.3872 112.412 32.4902Z" fill="#363C42"/>
<path d="M117.928 29.2812C117.326 29.2812 116.724 29.6824 116.524 29.9832L116.323 29.4818L115.521 29.5821C115.621 29.8829 115.621 30.1838 115.621 30.4846V35.8996H116.524C116.524 35.5988 116.524 35.298 116.524 34.9971V33.4929C116.825 33.5932 117.125 33.5932 117.526 33.5932C118.83 33.5932 119.733 32.6907 119.733 31.1865C119.532 30.1838 119.031 29.2812 117.928 29.2812ZM117.226 32.791C116.925 32.791 116.624 32.6907 116.423 32.5904V31.1865C116.423 30.3843 116.825 29.9832 117.526 29.9832C118.329 29.9832 118.63 30.5849 118.63 31.3871C118.63 32.2896 118.228 32.791 117.226 32.791Z" fill="#363C42"/>
<path d="M124.446 29.3816H123.543C123.543 29.6824 123.643 29.9833 123.643 30.2841V31.0863H121.638V29.4819H120.735C120.735 29.7827 120.735 30.0835 120.735 30.3844V33.493H121.638C121.638 33.1922 121.638 32.8913 121.638 32.5905V31.688C122.139 31.688 123.042 31.688 123.643 31.688V33.493H124.546C124.546 33.1922 124.446 32.8913 124.446 32.5905V29.3816Z" fill="#363C42"/>
<path d="M128.958 30.4846C128.958 29.6824 128.357 29.2812 127.655 29.2812C126.953 29.2812 126.351 29.4818 125.95 29.7826L126.251 30.4846C126.652 30.284 127.153 30.0835 127.454 30.0835C127.855 30.0835 128.156 30.284 128.156 30.7854V31.0863C127.053 31.1865 125.749 31.6879 125.749 32.6907C125.749 33.2924 126.15 33.6935 126.852 33.6935C127.454 33.6935 127.855 33.2924 128.056 32.9916H128.156L128.256 33.5932L129.058 33.4929C129.058 33.2924 128.958 32.791 128.958 32.3899C128.858 31.6879 128.958 31.0863 128.958 30.4846ZM128.156 31.7882C128.156 32.3899 127.655 32.8913 127.053 32.8913C126.752 32.8913 126.552 32.6907 126.552 32.3899C126.552 31.7882 127.354 31.5877 128.056 31.6879V31.7882H128.156Z" fill="#363C42"/>
<path d="M133.772 29.3816H130.864V30.0835C130.864 30.5849 130.763 31.8886 130.563 32.2897C130.362 32.5905 130.162 32.7911 129.861 32.7911L130.162 33.5933C130.563 33.5933 130.964 33.2925 131.265 32.7911C131.465 32.2897 131.666 31.0863 131.666 30.0835C132.067 30.0835 132.568 30.0835 132.969 30.0835V30.2841V33.3927H133.872C133.872 33.0919 133.872 32.7911 133.872 32.4902V29.3816H133.772Z" fill="#363C42"/>
<path d="M140.891 32.5906V29.4819H137.983V30.0836C137.983 30.585 137.883 31.8886 137.682 32.2897C137.482 32.5906 137.281 32.7911 136.981 32.7911H136.579C136.68 33.3928 136.68 34.0947 136.78 34.6964H137.382C137.482 34.3956 137.482 33.7939 137.482 33.4931H140.891C140.891 33.7939 140.891 34.3956 140.891 34.6964H141.493C141.493 34.0947 141.593 33.3928 141.694 32.7911H140.891V32.5906ZM139.989 30.2842V32.6908H138.184C138.485 32.2897 138.685 30.9861 138.685 29.9833C139.086 29.9833 139.588 29.9833 139.989 29.9833V30.2842Z" fill="#363C42"/>
<path d="M146.106 29.3816H143.198V30.0835C143.198 30.5849 143.097 31.8886 142.897 32.2897C142.696 32.5905 142.496 32.7911 142.195 32.7911L142.496 33.5933C142.897 33.5933 143.298 33.2925 143.599 32.7911C143.799 32.2897 144 31.0863 144 30.0835C144.401 30.0835 144.902 30.0835 145.304 30.0835V30.2841V33.3927H146.206C146.206 33.0919 146.106 32.7911 146.106 32.4902V29.3816Z" fill="#363C42"/>
<path d="M150.618 29.3816H148.914C148.111 29.3816 147.51 29.883 147.51 30.5849C147.51 31.1866 147.911 31.5877 148.312 31.7883C148.212 31.8886 148.011 31.9888 147.911 32.1894C147.409 32.7911 146.908 33.3927 146.808 33.493H147.911C148.212 33.0919 148.914 31.8886 149.214 31.8886H149.515V33.493H150.418C150.418 33.1922 150.418 32.8913 150.418 32.5905V29.3816H150.618ZM149.816 31.2869H149.214C148.713 31.2869 148.412 31.0863 148.412 30.6852C148.412 30.1838 148.713 30.0835 149.315 30.0835H149.816C149.816 30.1838 149.816 30.2841 149.816 30.3844V31.2869Z" fill="#363C42"/>
<path d="M158.139 29.2812C156.936 29.2812 156.134 29.9832 155.933 31.0863H154.93V29.4818H154.028C154.028 29.7826 154.028 30.0835 154.028 30.3843V33.4929H154.93C154.93 33.1921 154.93 32.8913 154.93 32.5904V31.6879C155.231 31.6879 155.632 31.6879 155.933 31.6879C156.033 32.791 156.735 33.5932 158.039 33.5932C159.443 33.5932 160.245 32.6907 160.245 31.3871C160.245 30.1838 159.543 29.2812 158.139 29.2812ZM158.039 32.8913C157.237 32.8913 156.836 32.1893 156.836 31.3871C156.836 30.5849 157.237 29.8829 158.039 29.8829C158.841 29.8829 159.242 30.5849 159.242 31.3871C159.343 32.2896 158.942 32.8913 158.039 32.8913Z" fill="#363C42"/>
<path d="M163.855 29.2812C163.253 29.2812 162.652 29.6824 162.451 29.9832L162.251 29.4818L161.448 29.5821C161.448 29.8829 161.549 30.1838 161.549 30.4846V35.8996H162.451C162.451 35.5988 162.451 35.298 162.451 34.9971V33.4929C162.752 33.5932 163.053 33.5932 163.454 33.5932C164.758 33.5932 165.66 32.6907 165.66 31.1865C165.56 30.1838 165.058 29.2812 163.855 29.2812ZM163.153 32.791C162.852 32.791 162.552 32.6907 162.351 32.5904V31.1865C162.351 30.3843 162.752 29.9832 163.454 29.9832C164.256 29.9832 164.557 30.5849 164.557 31.3871C164.657 32.2896 164.156 32.791 163.153 32.791Z" fill="#363C42"/>
<path d="M170.474 29.3816H169.571C169.17 30.0835 168.368 31.3872 167.666 32.2897V29.3816H166.763C166.763 29.6824 166.763 29.9833 166.763 30.2841V33.3927H167.666C168.267 32.3899 168.969 31.4874 169.571 30.5849V33.3927H170.474C170.474 33.0919 170.474 32.7911 170.474 32.4902V29.3816Z" fill="#363C42"/>
<path d="M173.682 29.9831C174.184 29.9831 174.485 30.1837 174.685 30.284L175.086 29.582C174.785 29.3815 174.284 29.1809 173.783 29.1809C172.579 29.1809 171.677 30.1837 171.677 31.4873C171.677 32.7909 172.379 33.5932 173.582 33.5932C174.284 33.5932 174.785 33.3926 175.086 33.0918L174.785 32.4901C174.585 32.5904 174.284 32.7909 173.783 32.7909C173.081 32.7909 172.579 32.2895 172.579 31.387C172.479 30.4845 173.081 29.9831 173.682 29.9831Z" fill="#363C42"/>
<path d="M175.788 30.1838C176.189 30.0835 176.791 30.0835 177.292 30.0835C177.292 30.1838 177.292 30.2841 177.292 30.3844V33.3927H178.195C178.195 33.0919 178.095 32.5905 178.095 32.2897V30.3844C178.095 30.2841 178.095 30.1838 178.095 30.0835C178.596 30.0835 179.198 30.0835 179.599 30.1838V29.3816H175.688V30.1838H175.788Z" fill="#363C42"/>
<path d="M183.61 32.2896C183.61 31.6879 183.61 31.0863 183.61 30.4846C183.61 29.6824 183.008 29.2812 182.306 29.2812C181.604 29.2812 181.003 29.4818 180.602 29.7826L180.903 30.4846C181.304 30.284 181.805 30.0835 182.106 30.0835C182.507 30.0835 182.808 30.284 182.808 30.7854V31.0863C181.705 31.1865 180.401 31.6879 180.401 32.6907C180.401 33.2924 180.802 33.6935 181.504 33.6935C182.106 33.6935 182.507 33.2924 182.708 32.9916H182.808L182.908 33.5932L183.71 33.4929C183.71 33.0918 183.61 32.5904 183.61 32.2896ZM182.908 31.7882C182.908 32.3899 182.407 32.8913 181.805 32.8913C181.504 32.8913 181.304 32.6907 181.304 32.3899C181.304 31.7882 182.106 31.5877 182.808 31.6879V31.7882H182.908Z" fill="#363C42"/>
</g>
<defs>
<clipPath id="clip0_40_307">
<rect width="233.95" height="36" fill="white"/>
</clipPath>
</defs>
</svg>
