<svg width="214" height="36" viewBox="0 0 214 36" fill="none" xmlns="http://www.w3.org/2000/svg">
<g clip-path="url(#clip0_131_2031)">
<path d="M0.280156 33.3385C8.8249 33.3385 15.6887 25.9144 15.6887 16.6693C15.6887 7.42412 8.8249 0 0.420233 0H0V33.3385H0.280156Z" fill="#62358C"/>
<path d="M33.3385 33.3385L17.6498 16.6693L33.3385 0V33.3385Z" fill="#62358C"/>
<path d="M48.7472 13.5875L43.9845 8.12442L42.7238 9.5252V13.5875H41.7433V2.10107H42.7238V8.40458L48.3269 2.10107H49.5876L44.6849 7.56411L50.0079 13.5875H48.7472Z" fill="#3C3C3B"/>
<path d="M51.2686 9.38538C51.2686 7.00406 52.8094 5.04297 55.3308 5.04297C57.8522 5.04297 59.3931 7.00406 59.3931 9.38538C59.3931 11.7667 57.8522 13.7278 55.3308 13.7278C52.8094 13.7278 51.2686 11.7667 51.2686 9.38538ZM58.2724 9.38538C58.2724 7.56437 57.1518 5.88344 55.1907 5.88344C53.2296 5.88344 52.109 7.56437 52.109 9.38538C52.109 11.2064 53.2296 12.8873 55.1907 12.8873C57.2919 12.8873 58.2724 11.2064 58.2724 9.38538Z" fill="#3C3C3B"/>
<path d="M62.4747 12.1869V16.6694H61.6343V5.18299H62.4747V6.44369C63.0351 5.60322 64.1557 4.90283 65.4164 4.90283C67.6576 4.90283 69.1985 6.58377 69.1985 9.24524C69.1985 11.9067 67.6576 13.5877 65.4164 13.5877C64.1557 13.7277 63.1751 13.1674 62.4747 12.1869ZM68.0779 9.38532C68.0779 7.42423 67.0973 5.88338 65.1362 5.88338C64.0156 5.88338 62.895 6.58377 62.3347 7.42423V11.4865C62.7549 12.327 63.8755 13.0273 65.1362 13.0273C67.0973 12.8873 68.0779 11.3464 68.0779 9.38532Z" fill="#3C3C3B"/>
<path d="M77.0429 13.5878V6.02357H72.2803V13.5878H71.4398V5.18311H77.8834V13.4477H77.0429V13.5878Z" fill="#3C3C3B"/>
<path d="M80.1246 9.38538C80.1246 7.00406 81.6655 5.04297 84.1869 5.04297C86.5682 5.04297 88.2491 7.00406 88.2491 9.38538C88.2491 11.7667 86.7083 13.7278 84.1869 13.7278C81.8056 13.7278 80.1246 11.7667 80.1246 9.38538ZM87.2686 9.38538C87.2686 7.56437 86.148 5.88344 84.1869 5.88344C82.2258 5.88344 81.1052 7.56437 81.1052 9.38538C81.1052 11.2064 82.2258 12.8873 84.1869 12.8873C86.148 12.8873 87.2686 11.2064 87.2686 9.38538Z" fill="#3C3C3B"/>
<path d="M91.3308 12.1869V16.6694H90.4904V5.18299H91.3308V6.44369C91.8911 5.60322 93.0118 4.90283 94.2725 4.90283C96.5137 4.90283 98.0546 6.58377 98.0546 9.24524C98.0546 11.9067 96.5137 13.5877 94.2725 13.5877C93.1518 13.7277 92.0312 13.1674 91.3308 12.1869ZM97.074 9.38532C97.074 7.42423 96.0935 5.88338 94.1324 5.88338C93.0118 5.88338 91.8911 6.58377 91.3308 7.42423V11.4865C91.7511 12.327 92.8717 13.0273 94.1324 13.0273C95.9534 12.8873 97.074 11.3464 97.074 9.38532Z" fill="#3C3C3B"/>
<path d="M105.479 13.5877V12.6072C104.778 13.4476 103.798 13.7278 102.677 13.7278C101.276 13.7278 99.7355 12.7472 99.7355 10.9262C99.7355 9.10523 101.136 8.12468 102.677 8.12468C103.798 8.12468 104.778 8.54491 105.479 9.2453V7.70445C105.479 6.44375 104.498 5.74336 103.237 5.74336C102.257 5.74336 101.416 6.16359 100.576 7.00406L100.016 6.44375C100.856 5.4632 101.837 5.04297 103.237 5.04297C105.058 5.04297 106.459 5.88344 106.459 7.70445V13.5877H105.479ZM105.479 11.9068V10.0858C104.918 9.38538 103.938 8.96515 102.957 8.96515C101.556 8.96515 100.716 9.80561 100.716 11.0663C100.716 12.1869 101.556 13.1675 102.957 13.1675C104.078 13.0274 104.918 12.6072 105.479 11.9068Z" fill="#3C3C3B"/>
<path d="M110.802 13.5878V6.02357H108.42V5.18311H114.163V6.02357H111.642V13.5878H110.802Z" fill="#3C3C3B"/>
<path d="M115.984 13.5878V5.18311H116.825V12.0469L121.588 5.18311H122.428V13.4477H121.588V6.44381L116.825 13.4477H115.984V13.5878Z" fill="#3C3C3B"/>
<path d="M125.23 13.5878V5.18311H129.432C130.833 5.18311 131.673 6.02357 131.673 7.28427C131.673 8.26482 130.973 8.96521 130.412 9.24536C131.253 9.52552 131.953 10.366 131.953 11.3465C131.953 12.7473 131.113 13.5878 129.572 13.5878H125.23ZM130.833 7.42435C130.833 6.58388 130.272 6.02357 129.292 6.02357H126.07V8.82513H129.292C130.272 8.82513 130.833 8.26482 130.833 7.42435ZM130.973 11.2065C130.973 10.366 130.412 9.6656 129.432 9.6656H126.21V12.7473H129.432C130.412 12.7473 130.973 12.187 130.973 11.2065Z" fill="#3C3C3B"/>
<path d="M134.615 13.5878V5.18311H135.455V8.82513H140.218V5.18311H141.058V13.4477H140.218V9.6656H135.455V13.5878H134.615Z" fill="#3C3C3B"/>
<path d="M149.183 13.5877V12.6072C148.483 13.4476 147.502 13.7278 146.381 13.7278C144.981 13.7278 143.44 12.7472 143.44 10.9262C143.44 9.10523 144.841 8.12468 146.381 8.12468C147.502 8.12468 148.483 8.54491 149.183 9.2453V7.70445C149.183 6.44375 148.202 5.74336 146.942 5.74336C145.961 5.74336 145.121 6.16359 144.28 7.00406L143.72 6.44375C144.56 5.4632 145.541 5.04297 146.942 5.04297C148.623 5.04297 150.023 5.88344 150.023 7.70445V13.5877H149.183ZM149.183 11.9068V10.0858C148.623 9.38538 147.642 8.96515 146.662 8.96515C145.261 8.96515 144.42 9.80561 144.42 11.0663C144.42 12.1869 145.261 13.1675 146.662 13.1675C147.642 13.0274 148.623 12.6072 149.183 11.9068Z" fill="#3C3C3B"/>
<path d="M152.545 13.5873L154.926 10.2255C153.525 10.0854 152.685 9.24493 152.685 7.84415C152.685 6.44338 153.666 5.32275 155.206 5.32275H159.269V13.5873H158.288V10.0854H155.767L153.525 13.4473H152.545V13.5873ZM158.428 9.38501V6.02314H155.346C154.226 6.02314 153.666 6.72353 153.666 7.70408C153.666 8.68462 154.226 9.38501 155.346 9.38501H158.428Z" fill="#3C3C3B"/>
<path d="M177.059 5.18311V13.4477H166.413V5.18311H167.253V12.7473H171.175V5.18311H172.016V12.7473H175.938V5.18311H177.059Z" fill="#3C3C3B"/>
<path d="M185.603 13.5878L182.241 9.6656L180.7 11.0664V13.5878H179.86V5.18311H180.7V9.94575L185.603 5.18311H186.724L182.802 8.96521L186.724 13.5878H185.603Z" fill="#3C3C3B"/>
<path d="M188.125 9.38538C188.125 7.00406 189.665 5.04297 192.187 5.04297C194.708 5.04297 196.249 7.00406 196.249 9.38538C196.249 11.7667 194.708 13.7278 192.187 13.7278C189.665 13.7278 188.125 11.7667 188.125 9.38538ZM195.129 9.38538C195.129 7.56437 194.008 5.88344 192.047 5.88344C190.086 5.88344 188.965 7.56437 188.965 9.38538C188.965 11.2064 190.086 12.8873 192.047 12.8873C194.008 12.8873 195.129 11.2064 195.129 9.38538Z" fill="#3C3C3B"/>
<path d="M197.37 13.0275C198.21 13.0275 198.771 12.0469 199.051 9.38544L199.611 5.18311H204.934V13.4477H204.093V6.02357H200.451L200.031 9.52552C199.611 12.6072 198.771 13.7279 197.37 13.7279V13.0275Z" fill="#3C3C3B"/>
<path d="M213.058 13.5877V12.6072C212.358 13.4476 211.377 13.7278 210.257 13.7278C208.856 13.7278 207.315 12.7472 207.315 10.9262C207.315 9.10523 208.716 8.12468 210.257 8.12468C211.377 8.12468 212.358 8.54491 213.058 9.2453V7.70445C213.058 6.44375 212.078 5.74336 210.817 5.74336C209.837 5.74336 208.996 6.16359 208.156 7.00406L207.595 6.44375C208.436 5.4632 209.416 5.04297 210.817 5.04297C212.498 5.04297 213.899 5.88344 213.899 7.70445V13.5877H213.058ZM213.058 11.9068V10.0858C212.498 9.38538 211.518 8.96515 210.537 8.96515C209.136 8.96515 208.296 9.80561 208.296 11.0663C208.296 12.1869 209.136 13.1675 210.537 13.1675C211.518 13.0274 212.358 12.6072 213.058 11.9068Z" fill="#3C3C3B"/>
<path d="M46.2257 27.1751H44.2646V32.4981H41.6031V20.0311H44.2646V24.9339H46.2257C46.786 21.8521 49.3074 19.751 52.6693 19.751C56.4514 19.751 59.253 22.4125 59.253 26.1946C59.253 29.9767 56.4514 32.6381 52.6693 32.6381C49.1673 32.7782 46.6459 30.537 46.2257 27.1751ZM56.4514 26.1946C56.4514 23.8132 54.9105 22.1323 52.6693 22.1323C50.288 22.1323 48.8872 23.9533 48.8872 26.1946C48.8872 28.5759 50.428 30.2568 52.6693 30.2568C55.0506 30.3969 56.4514 28.5759 56.4514 26.1946Z" fill="#3C3C3B"/>
<path d="M63.4553 31.3774V36H61.074V23.5331H63.4553V24.6537C64.1557 23.8132 65.1362 23.2529 66.2569 23.2529C68.6382 23.2529 70.3191 24.9339 70.3191 28.0156C70.3191 31.0973 68.6382 32.7782 66.2569 32.7782C65.1362 32.7782 64.1557 32.2179 63.4553 31.3774ZM67.7977 27.8755C67.7977 26.3346 66.8172 25.214 65.5565 25.214C64.8561 25.214 63.8755 25.6343 63.4553 26.1946V29.4164C63.8755 29.9767 64.716 30.3969 65.5565 30.3969C66.8172 30.537 67.7977 29.5564 67.7977 27.8755Z" fill="#3C3C3B"/>
<path d="M72 32.4981V23.3931H74.3813V28.8561L78.1634 23.3931H80.5447V32.4981H78.1634V26.7549L74.2412 32.4981H72Z" fill="#3C3C3B"/>
<path d="M82.2257 27.8754C82.2257 25.0739 84.1868 23.1128 86.9883 23.1128C88.8094 23.1128 89.93 23.9533 90.6304 24.7937L89.0895 26.1945C88.6693 25.4941 87.9689 25.214 87.1284 25.214C85.7276 25.214 84.607 26.3346 84.607 27.8754C84.607 29.4163 85.5876 30.5369 87.1284 30.5369C87.9689 30.5369 88.6693 30.1167 89.0895 29.5564L90.6304 30.9572C90.0701 31.7976 88.9494 32.6381 86.9883 32.6381C84.3269 32.7782 82.2257 30.677 82.2257 27.8754Z" fill="#3C3C3B"/>
<path d="M93.8522 32.4981V25.4942H91.3308V23.3931H98.7549V25.4942H96.2335V32.4981H93.8522Z" fill="#3C3C3B"/>
<path d="M110.942 32.4981L108.56 28.9962L107.44 30.1168V32.4981H105.058V23.3931H107.44V27.4553L110.942 23.3931H113.883L110.241 27.4553L113.883 32.358H110.942V32.4981Z" fill="#3C3C3B"/>
<path d="M114.584 27.8754C114.584 25.354 116.405 23.1128 119.346 23.1128C122.288 23.1128 124.109 25.354 124.109 27.8754C124.109 30.3968 122.288 32.6381 119.346 32.6381C116.405 32.7782 114.584 30.5369 114.584 27.8754ZM121.728 27.8754C121.728 26.4747 120.887 25.214 119.346 25.214C117.806 25.214 117.105 26.4747 117.105 27.8754C117.105 29.2762 117.946 30.5369 119.346 30.5369C120.747 30.5369 121.728 29.4163 121.728 27.8754Z" fill="#3C3C3B"/>
<path d="M134.195 32.4981V26.6149L131.813 32.4981H130.693L128.311 26.6149V32.4981H125.93V23.3931H129.012L131.253 28.8561L133.494 23.3931H136.716V32.4981H134.195Z" fill="#3C3C3B"/>
<path d="M145.121 32.4981V25.4942H141.339V32.4981H138.957V23.3931H147.502V32.4981H145.121Z" fill="#3C3C3B"/>
<path d="M155.346 32.4981V31.5175C154.786 32.2179 153.665 32.6381 152.405 32.6381C151.004 32.6381 149.183 31.6576 149.183 29.6965C149.183 27.5953 150.864 26.7549 152.405 26.7549C153.665 26.7549 154.646 27.1751 155.346 27.8755V26.6148C155.346 25.6343 154.506 25.0739 153.385 25.0739C152.405 25.0739 151.564 25.4942 150.724 26.1946L149.883 24.6537C151.004 23.6732 152.405 23.2529 153.805 23.2529C155.907 23.2529 157.728 24.0934 157.728 26.7549V32.6381H155.346V32.4981ZM155.346 30.2568V29.1362C154.926 28.5759 154.226 28.2957 153.385 28.2957C152.405 28.2957 151.704 28.716 151.704 29.6965C151.704 30.537 152.405 31.0973 153.385 31.0973C154.226 31.0973 154.926 30.8171 155.346 30.2568Z" fill="#3C3C3B"/>
<path d="M160.109 32.4981V23.3931H162.49V26.7549H166.272V23.3931H168.654V32.4981H166.272V28.8561H162.49V32.4981H160.109Z" fill="#3C3C3B"/>
<path d="M170.895 32.4981V23.3931H173.276V28.8561L177.058 23.3931H179.44V32.4981H177.058V26.7549L173.276 32.4981H170.895Z" fill="#3C3C3B"/>
<path d="M181.821 32.4981V23.3931H184.202V28.8561L187.984 23.3931H190.366V32.4981H187.984V26.7549L184.202 32.4981H181.821Z" fill="#3C3C3B"/>
</g>
<defs>
<clipPath id="clip0_131_2031">
<rect width="213.899" height="36" fill="white"/>
</clipPath>
</defs>
</svg>
