<svg width="28" height="28" viewBox="0 0 28 28" fill="none" xmlns="http://www.w3.org/2000/svg">
<path fill-rule="evenodd" clip-rule="evenodd" d="M14.0161 0C21.7054 0 27.9387 6.23614 27.9387 13.9288C27.9387 21.6215 21.7054 27.8576 14.0161 27.8576C6.32692 27.8576 0.0935669 21.6215 0.0935669 13.9288C0.0935669 6.23614 6.32692 0 14.0161 0ZM19.144 12.9451C19.2117 13.3068 19.2461 13.674 19.2467 14.042C19.315 15.4191 18.7972 16.7607 17.8216 17.7346C16.846 18.7084 15.5039 19.2235 14.1275 19.1521C11.2441 19.1521 8.90656 16.8136 8.90656 13.9288C8.90656 11.0441 11.2441 8.7055 14.1275 8.7055C15.4457 8.69031 16.7205 9.17561 17.6952 10.0636L16.1916 11.5435V11.5348C15.6319 11.014 14.8926 10.7301 14.1284 10.7426C12.3719 10.7426 10.948 12.1672 10.948 13.9244C10.948 15.6817 12.3719 17.1063 14.1284 17.1063C15.4934 17.2308 16.7382 16.321 17.0347 14.9822H14.1284V12.9451H19.1449H19.144Z" fill="white"/>
</svg>
