<svg width="25" height="25" viewBox="0 0 25 25" fill="none" xmlns="http://www.w3.org/2000/svg">
<g clip-path="url(#clip0_40_302)">
<path d="M12.2 0C5.5 0 0 5.5 0 12.2C0 18.9 5.5 24.4 12.2 24.4C18.9 24.4 24.4 19 24.4 12.2C24.4 5.4 19 0 12.2 0ZM7.5 16.6L5 13.2H4.3V16.6H2V7.9H4.3V11.2H5L7.2 7.9H10L7 12.1L10.3 16.5H7.5V16.6ZM18.4 16.7C16 16.7 14.4 16.1 14.4 13.5V13.2H13V16.6H10.7V7.8H13V11.1H14.4V11C14.4 8.3 16.1 7.8 18.4 7.8C20.8 7.8 22.4 8.3 22.4 11V13.5C22.4 16.1 20.7 16.7 18.4 16.7Z" fill="black"/>
<path d="M18.4 9.80005C17.2 9.80005 16.8 10 16.8 11.2V13.2C16.8 14.5 17.2 14.7 18.4 14.7C19.6 14.7 20 14.5 20 13.2V11.2C20 9.90005 19.6 9.80005 18.4 9.80005Z" fill="black"/>
</g>
<defs>
<clipPath id="clip0_40_302">
<rect width="24.4" height="24.4" fill="white"/>
</clipPath>
</defs>
</svg>
