<svg width="125" height="14" viewBox="0 0 125 14" fill="none" xmlns="http://www.w3.org/2000/svg">
<path d="M13.3425 0.409058C11.908 0.410626 10.4851 0.665398 9.13927 1.16165C9.09892 1.18015 9.06531 1.21072 9.04307 1.24914C9.02082 1.28756 9.01105 1.33193 9.01509 1.37613L9.24087 2.88131C9.24335 2.89804 9.24932 2.91405 9.25839 2.92832C9.26747 2.94258 9.27945 2.95477 9.29355 2.9641C9.30881 2.97144 9.32553 2.97525 9.34247 2.97525C9.3594 2.97525 9.37612 2.97144 9.39139 2.9641C10.0105 2.78583 10.6385 2.64013 11.2729 2.5276C12.778 2.27172 13.6134 2.33945 14.0349 2.73832C14.1556 2.86648 14.2425 3.02266 14.2879 3.1928C14.3332 3.36294 14.3355 3.54169 14.2945 3.71292L14.2569 3.99891C14.2569 3.99891 12.4318 4.2435 11.2465 4.46551C10.3566 4.58019 9.49834 4.87054 8.72158 5.3197C7.48734 6.12497 7.18254 7.69788 7.4196 8.81924C7.62656 9.80137 8.49204 10.9754 11.446 10.9754H11.6604C16.176 10.9754 16.7668 10.204 16.9662 8.57089L17.2334 6.39591L17.5871 3.52854C17.6962 2.64425 17.5344 1.96692 17.0828 1.46645C16.4431 0.751486 15.2202 0.409058 13.3425 0.409058ZM14.0085 5.95188C14.0085 5.95188 13.9182 6.8023 13.9182 6.81359L13.651 8.96223H13.6134C13.1931 9.07691 12.7583 9.13014 12.3227 9.12028C11.8362 9.16482 11.3512 9.02067 10.9681 8.71764C10.8468 8.58657 10.7533 8.43234 10.6931 8.26421C10.633 8.09608 10.6075 7.91752 10.6181 7.73928C10.6181 6.88132 11.1299 6.34322 12.176 6.14755C13.2221 5.95188 14.0574 5.86157 14.0574 5.86157L14.0085 5.95188Z" fill="#F1361D"/>
<path d="M54.2627 0.412476H53.9315C51.5383 0.412476 49.9127 1.10109 49.1037 2.45576C48.4527 3.53572 48.1403 7.19707 48.1366 7.2347C48.0658 7.81544 48.1276 8.40467 48.3172 8.95813C48.9908 10.7531 51.3276 10.9939 52.6709 10.9788C55.083 10.9788 56.7123 10.2902 57.5063 8.96941C57.7509 8.56302 58.1084 7.42661 58.4395 4.34475V4.23563C58.5182 3.68169 58.4784 3.11737 58.3229 2.57993C57.8036 0.864029 55.828 0.457631 54.2627 0.412476ZM54.8158 7.09547V7.14815C54.7857 7.64988 54.5928 8.12812 54.2664 8.51033C53.9488 8.80118 53.5343 8.96348 53.1037 8.96565C52.7326 9.01037 52.3566 8.94356 52.0237 8.77374C51.8365 8.65607 51.6797 8.49594 51.5659 8.30635C51.4522 8.11676 51.3847 7.90303 51.369 7.68249C51.3464 7.39274 51.606 5.60158 51.7452 4.63826L51.8092 4.19424C51.8613 3.65701 52.1171 3.16013 52.5242 2.80571C52.8479 2.55768 53.2453 2.4252 53.6531 2.42941C54 2.40698 54.3458 2.48819 54.6465 2.66272C54.8193 2.78829 54.9592 2.9538 55.0542 3.14513C55.1492 3.33646 55.1965 3.54792 55.1921 3.7615C55.1996 3.94964 55.0717 5.11239 54.8158 7.09547Z" fill="#F1361D"/>
<path d="M47.8189 0.486775H46.3852C46.0003 0.476442 45.6192 0.564713 45.278 0.743199C44.9369 0.921685 44.647 1.18446 44.436 1.50653L40.801 6.02207L40.8989 5.75114L41.5386 0.626004C41.5416 0.609058 41.5405 0.591621 41.5352 0.575221C41.53 0.558821 41.5208 0.543958 41.5085 0.531931C41.4976 0.518601 41.4838 0.50794 41.4681 0.500766C41.4525 0.493592 41.4354 0.490093 41.4182 0.490538H38.4304C38.3898 0.492366 38.3509 0.50785 38.3202 0.534483C38.2895 0.561117 38.2686 0.597341 38.261 0.637293L37.0117 10.6242C37.0096 10.6402 37.0109 10.6565 37.0154 10.6721C37.0199 10.6876 37.0277 10.7021 37.0381 10.7145C37.0626 10.7342 37.0932 10.7449 37.1246 10.7446H38.6863C39.0697 10.7489 39.4481 10.6564 39.7862 10.4755C40.1243 10.2946 40.4113 10.0312 40.6204 9.70976L44.1726 5.09262L44.056 5.37861L43.4088 10.6091C43.4051 10.6427 43.4146 10.6764 43.4351 10.7032C43.4476 10.7165 43.4628 10.727 43.4797 10.7342C43.4965 10.7413 43.5146 10.7448 43.5329 10.7446H46.5169C46.5581 10.7426 46.5973 10.7265 46.6281 10.6992C46.6589 10.6718 46.6795 10.6347 46.6863 10.5941L47.928 0.599664C47.9314 0.584482 47.9312 0.56871 47.9272 0.553659C47.9233 0.538607 47.9158 0.524708 47.9055 0.513116C47.881 0.493765 47.8501 0.48436 47.8189 0.486775Z" fill="#F1361D"/>
<path d="M69.3033 0.409708L66.2591 0.786003C66.2153 0.793051 66.1748 0.813477 66.1431 0.844473C66.1115 0.875468 66.0902 0.915511 66.0822 0.959099L65.6495 4.45488L65.6269 4.59787H62.7181L63.2224 0.522597C63.2245 0.50654 63.2232 0.490217 63.2187 0.474668C63.2142 0.45912 63.2064 0.444686 63.196 0.432286C63.1839 0.422825 63.17 0.415942 63.1551 0.41206C63.1402 0.408177 63.1247 0.407377 63.1095 0.409708L60.0652 0.786003C60.0215 0.793051 59.981 0.813477 59.9493 0.844473C59.9177 0.875468 59.8964 0.915511 59.8884 0.959099L58.7068 10.6073C58.7049 10.6242 58.7066 10.6413 58.7118 10.6576C58.717 10.6738 58.7255 10.6887 58.7369 10.7014C58.7478 10.7147 58.7616 10.7254 58.7773 10.7325C58.7929 10.7397 58.81 10.7432 58.8272 10.7428H61.815C61.8568 10.7416 61.897 10.726 61.9285 10.6985C61.9601 10.6711 61.9812 10.6335 61.9881 10.5922L62.4698 6.7277V6.69759H65.3823L64.8969 10.6073C64.8949 10.6242 64.8966 10.6413 64.9018 10.6576C64.907 10.6738 64.9156 10.6887 64.927 10.7014C64.9379 10.7147 64.9517 10.7254 64.9673 10.7325C64.983 10.7397 65.0001 10.7432 65.0173 10.7428H65.7699C67.1471 10.7428 68.1593 10.5772 68.3738 8.98547L69.4312 0.522597C69.4346 0.50682 69.4344 0.490471 69.4304 0.474813C69.4265 0.459154 69.4191 0.444604 69.4086 0.432286C69.3945 0.419726 69.3774 0.411043 69.3589 0.407085C69.3405 0.403128 69.3213 0.404032 69.3033 0.409708Z" fill="#F1361D"/>
<path d="M37.1193 2.6881L37.3751 0.614714C37.3773 0.597786 37.3757 0.580589 37.3705 0.564334C37.3653 0.54808 37.3566 0.533165 37.345 0.520641C37.3334 0.507228 37.3189 0.49656 37.3026 0.489404C37.2864 0.482247 37.2687 0.478779 37.251 0.479248H25.9283C25.7215 0.48871 25.5268 0.579298 25.3864 0.731366L22.2218 4.61096H21.7702L22.2782 0.539455C22.2811 0.523974 22.2802 0.508022 22.2756 0.492954C22.2711 0.477886 22.2629 0.464148 22.2519 0.452908C22.2405 0.44213 22.2267 0.434143 22.2117 0.429573C22.1967 0.425003 22.1808 0.423974 22.1653 0.426567L19.1211 0.802862C19.0771 0.809375 19.0363 0.829624 19.0046 0.860713C18.9728 0.891803 18.9517 0.93214 18.9442 0.975957L17.7439 10.6129C17.74 10.6295 17.7404 10.6468 17.745 10.6633C17.7496 10.6797 17.7583 10.6947 17.7702 10.7069C17.782 10.7202 17.7965 10.7307 17.8127 10.7378C17.829 10.745 17.8465 10.7485 17.8643 10.7483H20.8746C20.9156 10.7457 20.9545 10.7294 20.9851 10.7021C21.0158 10.6749 21.0365 10.6382 21.044 10.5978L21.5294 6.70693H21.996L24.1672 10.6016C24.1938 10.6433 24.2298 10.6783 24.2722 10.7037C24.3147 10.7292 24.3624 10.7445 24.4118 10.7483H27.6517C27.7044 10.7483 27.7571 10.722 27.7119 10.6317L24.7467 5.68717L27.2077 2.83862H30.7636L29.7966 10.6129C29.7927 10.6295 29.7931 10.6468 29.7977 10.6633C29.8023 10.6797 29.811 10.6947 29.8229 10.7069C29.8347 10.7202 29.8492 10.7307 29.8655 10.7378C29.8817 10.745 29.8993 10.7485 29.917 10.7483H32.9048C32.9461 10.747 32.9858 10.7312 33.0167 10.7037C33.0476 10.6762 33.068 10.6388 33.0741 10.5978L34.0261 2.83862H36.9462C36.988 2.83746 37.0281 2.82181 37.0597 2.79436C37.0912 2.76691 37.1123 2.72935 37.1193 2.6881Z" fill="#F1361D"/>
<path d="M7.05971 0.483276H4.20363C4.00612 0.491038 3.81959 0.576192 3.68434 0.720342L0.117071 5.05526C0.0518451 5.12901 0.0116228 5.22151 0.00216026 5.31952C-0.00730229 5.41752 0.0144799 5.51601 0.0643897 5.60088L2.83768 10.4927C2.88499 10.5697 2.95067 10.6337 3.02883 10.679C3.10698 10.7243 3.19517 10.7495 3.28547 10.7524H5.75773C5.93459 10.7524 6.02113 10.6395 5.93459 10.5002L3.15377 5.60841L7.18012 0.716579C7.28548 0.581113 7.2328 0.483276 7.05971 0.483276Z" fill="#F1361D"/>
<path d="M77.0821 5.64464L74.3088 0.752807C74.261 0.676292 74.1952 0.612632 74.1172 0.567376C74.0391 0.52212 73.9512 0.496643 73.861 0.493164H71.385C71.2119 0.493164 71.1254 0.606052 71.2082 0.745282L73.9928 5.63711L69.9664 10.5365C69.8573 10.6569 69.91 10.7585 70.0868 10.7585H72.9429C73.1391 10.7497 73.3241 10.6647 73.4584 10.5214L77.0295 6.1865C77.0928 6.11253 77.1319 6.02084 77.1413 5.92388C77.1507 5.82693 77.1301 5.72943 77.0821 5.64464Z" fill="#F1361D"/>
<path d="M81.3219 10.6115L82.5975 0.233303C82.6091 0.167855 82.6433 0.108571 82.6942 0.0658928C82.7452 0.0232148 82.8095 -0.000119368 82.876 4.59221e-07H91.1244C91.1537 0.000355556 91.1827 0.0068433 91.2094 0.0190476C91.2361 0.0312519 91.26 0.0489034 91.2795 0.0708699C91.299 0.0928364 91.3136 0.118633 91.3226 0.146605C91.3315 0.174578 91.3345 0.204108 91.3313 0.233303L90.0519 10.6115C90.0472 10.6744 90.0191 10.7333 89.9731 10.7765C89.9272 10.8197 89.8667 10.844 89.8036 10.8448H88.8215C88.7899 10.8476 88.7582 10.8436 88.7284 10.8329C88.6986 10.8222 88.6715 10.8052 88.649 10.783C88.6264 10.7608 88.609 10.734 88.5978 10.7044C88.5867 10.6747 88.5821 10.6431 88.5844 10.6115L89.7434 1.20414H83.9484L82.7819 10.6115C82.7772 10.6751 82.7485 10.7345 82.7017 10.7777C82.655 10.821 82.5935 10.845 82.5298 10.8448H81.5477C81.5169 10.8466 81.4862 10.8417 81.4575 10.8304C81.4288 10.8192 81.4028 10.802 81.3814 10.7798C81.36 10.7577 81.3436 10.7312 81.3333 10.7022C81.323 10.6731 81.3192 10.6422 81.3219 10.6115Z" fill="black"/>
<path d="M99.6852 6.99827C99.3503 9.71512 98.4698 11.0359 95.7981 11.0359C95.0702 11.0394 94.3451 10.9457 93.642 10.7575L93.6984 11.638L93.4651 13.5195C93.458 13.5759 93.4323 13.6283 93.3921 13.6685C93.3519 13.7087 93.2995 13.7344 93.2431 13.7415L92.2609 13.9447C92.1292 13.9748 92.054 13.8732 92.069 13.7415L93.1979 4.59751C93.2694 3.95028 93.3861 3.70193 94.1349 3.43852C95.0883 3.12893 96.0827 2.96404 97.085 2.94934C98.0822 2.94934 98.7294 3.16759 99.1547 3.58152C99.6401 4.04812 99.8019 4.77061 99.8019 5.66242C99.7909 6.10971 99.752 6.55586 99.6852 6.99827ZM98.1161 4.56364C97.8376 4.10833 97.3221 4.02178 96.6109 4.02178C95.9269 4.05853 95.2485 4.16571 94.5864 4.34163L93.9204 9.78285C94.528 9.94368 95.1545 10.0222 95.7831 10.0162C97.3823 10.0162 97.9994 9.31248 98.2779 7.0058C98.3318 6.59778 98.3607 6.18685 98.3644 5.77531C98.3926 5.35641 98.3067 4.93771 98.1161 4.56364Z" fill="black"/>
<path d="M107.804 5.48967L107.333 9.32035C107.201 10.3627 106.923 10.596 105.881 10.8255C105.239 10.9643 104.584 11.0337 103.928 11.0325C103.183 11.0812 102.437 10.9656 101.741 10.6938C101.435 10.5433 101.18 10.3046 101.009 10.0083C100.839 9.71193 100.761 9.3715 100.786 9.0306C100.787 8.53185 100.887 8.03827 101.079 7.57811C101.55 6.58093 102.475 6.44922 103.589 6.28742L106.407 5.8321C106.461 5.4919 106.495 5.14891 106.509 4.80482C106.516 4.66942 106.479 4.53542 106.402 4.42376C106.325 4.31211 106.213 4.22909 106.084 4.18769C105.676 4.06461 105.249 4.01493 104.823 4.04094C103.926 4.07678 103.035 4.21053 102.167 4.43981C102.113 4.45321 102.059 4.46326 102.005 4.46992C101.972 4.47095 101.939 4.45895 101.915 4.43646C101.89 4.41397 101.875 4.38277 101.873 4.3495L101.813 3.59691C101.809 3.54858 101.823 3.50053 101.852 3.46175C101.881 3.42296 101.924 3.3961 101.971 3.38619C103.005 3.10267 104.071 2.95467 105.143 2.94592C106.201 2.94592 106.859 3.09268 107.269 3.34103C107.466 3.45361 107.629 3.61876 107.738 3.81808C107.847 4.0174 107.898 4.24306 107.886 4.46992C107.89 4.74085 107.83 5.26766 107.804 5.48967ZM102.43 7.90172C102.277 8.19652 102.202 8.52552 102.212 8.85751C102.204 9.01653 102.235 9.17506 102.3 9.32021C102.365 9.46536 102.464 9.59304 102.588 9.69288C102.964 10.0014 103.559 10.0315 104.093 10.0315C104.713 10.0393 105.331 9.95557 105.926 9.78319L106.302 6.87444L103.645 7.29965C103.119 7.36738 102.693 7.43888 102.43 7.90172Z" fill="black"/>
<path d="M109.149 7.85246C109.136 6.64705 109.434 5.45874 110.014 4.40184C110.748 3.1977 112.125 2.94934 113.344 2.94934C115.226 2.94934 116.501 3.55141 116.501 5.20711C116.501 6.33599 115.854 6.96817 114.695 7.08858V7.32188C115.047 7.38116 115.365 7.56682 115.589 7.84397C115.814 8.12113 115.929 8.47071 115.914 8.82706C115.914 10.4414 114.409 11.0434 112.58 11.0434C109.442 11.0359 109.149 9.3614 109.149 7.85246ZM114.609 8.68784C114.609 7.82236 114.108 7.58529 112.874 7.58529C112.641 7.58529 112.377 7.58529 112.084 7.6154L110.526 7.69065C110.507 7.82654 110.498 7.96363 110.499 8.10082C110.499 9.34635 110.718 10.0387 112.701 10.0387C113.815 10.0387 114.609 9.66996 114.609 8.68784ZM110.635 6.7725L112.396 6.68218C114.187 6.59564 115.139 6.34728 115.139 5.15819C115.139 4.30776 114.466 3.9691 113.216 3.9691C111.218 3.97663 110.763 5.29742 110.635 6.7725Z" fill="black"/>
<path d="M124.433 6.99862C124.17 9.21499 123.568 11.0363 120.456 11.0363C119.225 11.0363 118.461 10.7578 118.006 10.2837C117.551 9.80954 117.359 9.06448 117.359 8.24415C117.364 7.82574 117.399 7.40823 117.464 6.99485C117.728 4.76719 118.33 2.94592 121.442 2.94592C122.627 2.94592 123.391 3.20933 123.861 3.66465C124.332 4.11996 124.554 4.89137 124.554 5.72298C124.541 6.15035 124.501 6.57646 124.433 6.99862ZM122.702 4.36455C122.304 4.07256 121.812 3.93849 121.321 3.98826C119.327 3.98826 119.105 5.14725 118.872 6.99862C118.811 7.42256 118.777 7.84986 118.77 8.27802C118.72 8.73228 118.845 9.1885 119.12 9.55366C119.321 9.71936 119.553 9.84358 119.802 9.91915C120.051 9.99471 120.313 10.0201 120.572 9.99392C122.571 9.99392 122.789 8.83494 123.026 6.98357C123.084 6.54546 123.117 6.10455 123.127 5.66277C123.152 5.42981 123.126 5.19436 123.053 4.9719C122.98 4.74945 122.86 4.54503 122.702 4.37208V4.36455Z" fill="black"/>
</svg>
