<svg width="18" height="18" viewBox="0 0 18 18" fill="none" xmlns="http://www.w3.org/2000/svg">
<path fill-rule="evenodd" clip-rule="evenodd" d="M8 9.30824C8.00079 9.68923 7.68751 9.99883 7.3 10H1.7C1.51385 9.99963 1.33547 9.92651 1.20418 9.79676C1.07288 9.66701 0.999431 9.49126 1 9.30824V1.69176C0.999622 1.50867 1.07323 1.33293 1.20464 1.2032C1.33605 1.07347 1.5145 1.00037 1.70072 1L7.30072 1.00918C7.68794 1.01073 8.00079 1.32022 8 1.70094V9.30824Z" stroke="white" stroke-width="1.04615" stroke-linecap="round" stroke-linejoin="round"/>
<path fill-rule="evenodd" clip-rule="evenodd" d="M17 5.28739C16.9972 5.68352 16.6839 6.00244 16.3 5.99998H10.7C10.5156 6.00136 10.3381 5.92704 10.2068 5.79338C10.0756 5.65972 10.0011 5.47769 10 5.28739V1.72224C10.0024 1.32652 10.315 1.0076 10.6986 1.00965L16.2986 1.00002C16.6829 0.997144 16.9968 1.31607 17 1.71261V5.28739Z" stroke="white" stroke-width="1.04615" stroke-linecap="round" stroke-linejoin="round"/>
<path fill-rule="evenodd" clip-rule="evenodd" d="M8 16.2852C7.99886 16.4759 7.92432 16.6584 7.79277 16.7925C7.66123 16.9265 7.48345 17.0012 7.29856 17L1.69856 16.9904C1.31462 16.992 1.00198 16.6724 1 16.2763V12.7141C1.00095 12.5236 1.07526 12.3413 1.20655 12.2074C1.33785 12.0734 1.51537 11.9988 1.7 12H7.3C7.68434 11.998 7.99763 12.3175 8 12.7141V16.2852Z" stroke="white" stroke-width="1.04615" stroke-linecap="round" stroke-linejoin="round"/>
<path fill-rule="evenodd" clip-rule="evenodd" d="M10.7007 17C10.5144 16.9996 10.3358 16.9264 10.2044 16.7966C10.073 16.6667 9.99943 16.4907 10 16.3075V8.69247C9.99943 8.50938 10.0729 8.33356 10.2041 8.2037C10.3354 8.07383 10.5138 8.00056 10.7 8H16.3C16.4862 8.00056 16.6646 8.07383 16.7959 8.2037C16.9271 8.33356 17.0006 8.50938 17 8.69247V16.2984C17.0008 16.6792 16.6881 16.9889 16.3007 16.9908L10.7007 17Z" stroke="white" stroke-width="1.04615" stroke-linecap="round" stroke-linejoin="round"/>
</svg>
