<svg width="22" height="16" viewBox="0 0 22 16" fill="none" xmlns="http://www.w3.org/2000/svg">
<path d="M10.7977 9.9564L1 5.43472L10.6357 1L20.4334 5.60863L16.8706 7.17383L10.7977 9.9564Z" stroke="white" stroke-miterlimit="10" stroke-linecap="round" stroke-linejoin="round"/>
<path d="M4.72437 7.17407V12.0436C4.72437 12.0436 5.45312 15 10.5544 15C15.6556 15 16.7893 12.0436 16.7893 12.0436V7.26103" stroke="white" stroke-miterlimit="10" stroke-linecap="round" stroke-linejoin="round"/>
<path d="M10.7166 5.60864H20.4332V9.26076" stroke="white" stroke-miterlimit="10" stroke-linecap="round" stroke-linejoin="round"/>
<path d="M20.3521 10.7389C20.7099 10.7389 20.9999 10.4275 20.9999 10.0433C20.9999 9.65911 20.7099 9.34766 20.3521 9.34766C19.9944 9.34766 19.7043 9.65911 19.7043 10.0433C19.7043 10.4275 19.9944 10.7389 20.3521 10.7389Z" stroke="white" stroke-miterlimit="10" stroke-linecap="round" stroke-linejoin="round"/>
</svg>
