<svg width="18" height="18" viewBox="0 0 18 18" fill="none" xmlns="http://www.w3.org/2000/svg">
<path d="M9.70293 17H8.36402C7.79498 17 7.35983 16.5667 7.35983 16V14.7667C6.92469 14.6333 6.52301 14.4667 6.12134 14.2667L5.25105 15.1333C4.88285 15.5 4.21339 15.5 3.84519 15.1333L2.90795 14.2C2.70711 14 2.60669 13.7667 2.60669 13.5C2.60669 13.2333 2.70711 12.9667 2.90795 12.8L3.77824 11.9333C3.57741 11.5333 3.37657 11.1333 3.27615 10.7H2.00418C1.43515 10.7 1 10.2667 1 9.7V8.36667C1 8.1 1.10042 7.83333 1.30126 7.66667C1.50209 7.46667 1.7364 7.36667 2.00418 7.36667H3.24268C3.37657 6.93333 3.54393 6.53333 3.74477 6.13333L2.87448 5.26667C2.4728 4.86667 2.4728 4.23333 2.87448 3.86667L3.81172 2.93333C4.17992 2.56667 4.84937 2.56667 5.21757 2.93333L6.08787 3.8C6.48954 3.6 6.89121 3.4 7.32636 3.3V2C7.32636 1.43333 7.76151 1 8.33054 1H9.66946C10.2385 1 10.6736 1.43333 10.6736 2V3.23333C11.1088 3.36667 11.5105 3.53333 11.9121 3.73333L12.7824 2.86667C13.1506 2.5 13.8201 2.5 14.1883 2.86667L15.1255 3.8C15.3264 4 15.4268 4.23333 15.4268 4.5C15.4268 4.76667 15.3264 5.03333 15.1255 5.2L14.2552 6.06667C14.4561 6.46667 14.6569 6.86667 14.7573 7.3H15.9958C16.5649 7.3 17 7.73333 17 8.3V9.63333C17 9.9 16.8996 10.1667 16.6987 10.3333C16.4979 10.5 16.2636 10.6333 15.9958 10.6333H14.7573C14.6234 11.0667 14.4561 11.4667 14.2552 11.8667L15.1255 12.7333C15.5272 13.1333 15.5272 13.7667 15.1255 14.1333L14.1883 15.0667C13.8201 15.4333 13.1506 15.4333 12.7824 15.0667L11.9121 14.2C11.5105 14.4 11.1088 14.6 10.6736 14.7V15.9333C10.7071 16.5667 10.272 17 9.70293 17Z" stroke="white" stroke-miterlimit="10"/>
<path d="M9.03332 12.3334C7.19231 12.3334 5.68604 10.8334 5.68604 9.00008C5.68604 7.16675 7.19231 5.66675 9.03332 5.66675C10.8743 5.66675 12.3806 7.16675 12.3806 9.00008C12.3806 10.8334 10.8743 12.3334 9.03332 12.3334Z" stroke="white" stroke-miterlimit="10"/>
</svg>
