<svg width="25" height="25" viewBox="0 0 25 25" fill="none" xmlns="http://www.w3.org/2000/svg">
<g clip-path="url(#clip0_40_300)">
<path d="M12.2 0C5.5 0 0 5.5 0 12.2C0 18.9 5.5 24.4 12.2 24.4C18.9 24.4 24.4 19 24.4 12.2C24.4 5.4 19 0 12.2 0ZM20.1 16.7H20.4C20.7 16.7 20.7 16.7 20.7 17C20.7 17.3 20.7 17.3 20.4 17.3C20.2 17.3 19.6 17.2 18.6 17.2C17.6 17.2 17 17.3 16.8 17.3C16.6 17.3 16.5 17.3 16.5 17C16.5 16.7 16.5 16.7 16.8 16.7H17C17.3 16.7 17.3 16.5 17.3 15.9V10.6H14.8V16C14.8 16.5 14.8 16.7 15.1 16.8H15.3C15.6 16.8 15.6 16.8 15.6 17.1C15.6 17.4 15.6 17.4 15.3 17.4C15.1 17.4 14.5 17.3 13.5 17.3C12.5 17.3 11.9 17.4 11.7 17.4C11.4 17.4 11.4 17.4 11.4 17.1C11.4 16.8 11.4 16.9 11.7 16.8H12C12.5 16.7 12.5 16.5 12.5 15.9V11.6C12.5 11 12.5 10.8 12 10.7H11.8C11.7 10.8 11.7 10.9 11.6 11C10.8 12.6 9.9 14.4 9.4 15.5C8.6 16.9 7.9 17.9 6.8 17.9C6 17.9 5.6 17.6 5.6 16.8C5.6 16 6 15.9 6.4 15.9C6.7 15.9 7.4 16.2 7.7 16.2C8.3 16.2 8.6 15.7 8.8 15.1C8.5 14.5 5.3 8.2 5.3 8.2C5.1 7.2 4.8 6.8 4.3 6.7H3.9C3.7 6.7 3.7 6.6 3.7 6.3C3.7 6 3.8 6 4 6C4.2 6 5 6.1 6.4 6.1C7.9 6.1 8.7 6 8.9 6C9.1 6 9.2 6 9.2 6.3C9.2 6.7 9.1 6.6 8.9 6.7H8.7C8.3 6.7 8.1 6.9 8.1 7.3C8.1 7.7 8.3 8.1 8.6 8.7L10.4 12.6L11.9 9.1C12.3 8.1 12.4 7.5 12.4 7.2C12.4 6.9 12.2 6.7 11.9 6.7H11.6C11.4 6.7 11.4 6.6 11.4 6.4V6.3C11.4 6 11.4 6 11.7 6C11.8 6 12.3 6.1 13.3 6.1C14.3 6.1 14.6 6 14.7 6C15 6 15 6 15 6.3C15 6.6 15 6.6 14.7 6.7H14.5C14.2 6.7 14 6.9 12.5 10C13.1 10 14.2 10.1 15 10.1H17.5C18.7 10.1 20.3 10 20.5 10C20.8 10 20.8 10 20.8 10.3C20.8 10.6 20.8 10.5 20.5 10.6H20.2C19.7 10.7 19.7 10.9 19.7 11.5V15.8C19.6 16.4 19.6 16.7 20.1 16.7Z" fill="#B6964A"/>
</g>
<defs>
<clipPath id="clip0_40_300">
<rect width="24.4" height="24.4" fill="white"/>
</clipPath>
</defs>
</svg>
