<svg width="229" height="36" viewBox="0 0 229 36" fill="none" xmlns="http://www.w3.org/2000/svg">
<g clip-path="url(#clip0_123_6)">
<path d="M0.285714 34C9 34 16 26.4286 16 17C16.1429 7.57143 9 0 0.428571 0H0V34H0.285714Z" fill="#62358C"/>
<path d="M34 34L18 17L34 0V34Z" fill="#62358C"/>
<path d="M42.2857 13.4286V0.714355H49C51.4286 0.714355 52.7143 2.28578 52.7143 4.00007C52.7143 5.5715 51.7143 6.71436 50.5714 7.00007C52 7.14293 53 8.5715 53 10.1429C53 12.0001 51.7143 13.5715 49.2857 13.5715H42.2857V13.4286ZM50 4.42864C50 3.5715 49.4286 3.00007 48.5714 3.00007H45.1429V5.71435H48.5714C49.4286 5.71435 50 5.14293 50 4.42864ZM50.2857 9.5715C50.2857 8.71435 49.7143 8.14293 48.5714 8.14293H45V11.1429H48.5714C49.5714 11.0001 50.2857 10.5715 50.2857 9.5715Z" fill="#3C3C3B"/>
<path d="M54.4286 8.71456C54.4286 6.00028 56.4286 3.85742 59.2857 3.85742C62 3.85742 63.8571 5.85742 63.8571 9.00028V9.57171H57C57.1429 10.7146 58.1429 11.7146 59.7143 11.7146C60.4286 11.7146 61.5714 11.4288 62.1429 10.8574L63.2857 12.4289C62.4286 13.286 60.8571 13.7146 59.4286 13.7146C56.5714 13.7146 54.4286 11.7146 54.4286 8.71456ZM59.1429 5.85742C57.5714 5.85742 57 7.00028 56.8571 7.85742H61.4286C61.4286 7.00028 60.7143 5.85742 59.1429 5.85742Z" fill="#3C3C3B"/>
<path d="M65 8.42864C65 4.00007 66.5714 1.85721 69.8571 1.42864C71.4286 1.14293 72 1.00007 72 0.714355H74.5714C74.5714 2.5715 72.2857 3.00007 70.7143 3.14293C68.5714 3.42864 67.5714 4.42864 67.4286 5.42864C68.1429 4.42864 69.2857 3.85721 70.5714 3.85721C73.2857 3.85721 75 6.14293 75 8.71436C75 11.2858 73.1429 13.5715 70.1429 13.5715C66.7143 13.7144 65 11.4286 65 8.42864ZM72.2857 8.71436C72.2857 7.28578 71.4286 6.00007 69.8571 6.00007C68.2857 6.00007 67.5714 7.28578 67.5714 8.71436C67.5714 10.1429 68.4286 11.4286 69.8571 11.4286C71.4286 11.4286 72.2857 10.2858 72.2857 8.71436Z" fill="#3C3C3B"/>
<path d="M76.5714 13.4288V4.14307H79V9.71449L82.8571 4.14307H85.2857V13.4288H82.8571V7.57164L79 13.4288H76.5714Z" fill="#3C3C3B"/>
<path d="M87.7143 13.4288V4.14307H90.1429V7.57164H94V4.14307H96.4286V13.4288H94V9.71449H90.1429V13.4288H87.7143Z" fill="#3C3C3B"/>
<path d="M104.286 13.4286V12.4286C103.714 13.1429 102.571 13.5714 101.286 13.5714C99.8572 13.5714 98 12.5714 98 10.5714C98 8.42857 99.7143 7.57143 101.286 7.57143C102.571 7.57143 103.571 8 104.286 8.71429V7.42857C104.286 6.42857 103.429 5.85714 102.286 5.85714C101.286 5.85714 100.429 6.28571 99.5714 7L98.7143 5.42857C99.8571 4.42857 101.286 4 102.714 4C104.857 4 106.714 4.85714 106.714 7.57143V13.5714H104.286V13.4286ZM104.286 11.1429V10C103.857 9.42857 103.143 9.14286 102.286 9.14286C101.286 9.14286 100.571 9.57143 100.571 10.5714C100.571 11.4286 101.286 12 102.286 12C103.143 12 104 11.7143 104.286 11.1429Z" fill="#3C3C3B"/>
<path d="M111.571 12.286V17.0003H109.143V4.14314H111.571V5.28599C112.286 4.42885 113.286 3.85742 114.429 3.85742C116.857 4.00028 118.571 5.71456 118.571 8.71456C118.571 11.8574 116.857 13.5717 114.429 13.5717C113.429 13.7146 112.286 13.1431 111.571 12.286ZM116 8.71456C116 7.14314 115 6.00028 113.714 6.00028C113 6.00028 112 6.42885 111.571 7.00028V10.286C112 11.0003 112.857 11.4289 113.714 11.4289C115.143 11.4289 116 10.4289 116 8.71456Z" fill="#3C3C3B"/>
<path d="M122.714 4.14307V7.28592H125.857C128 7.28592 129.143 8.71449 129.143 10.2859C129.143 12.0002 128 13.2859 125.857 13.2859H120.286V4.14307H122.714ZM122.714 9.42878V11.4288H125.571C126.286 11.4288 126.714 11.0002 126.714 10.4288C126.714 9.85735 126.286 9.42878 125.571 9.42878H122.714ZM130.286 13.4288V4.14307H132.714V13.4288H130.286Z" fill="#3C3C3B"/>
<path d="M41.4286 32.0004C42.2857 31.8576 42.8571 31.2861 43.1429 28.5718L43.7143 24.2861H49.1429V32.0004H50.1429V35.0004H49.2857V32.8576H42.4286V35.0004H41.4286V32.0004ZM44.1429 28.5718C43.8571 30.5718 43.4286 31.429 42.8571 31.8576H48.2857V25.0004H44.5714L44.1429 28.5718Z" fill="#3C3C3B"/>
<path d="M51.1429 32.1431C52 32.1431 52.5714 31.1431 52.8571 28.4288L53.4286 24.1431H58.8571V32.5716H58V24.8574H54.2857L53.8571 28.5716C53.4286 31.7145 52.5714 32.8573 51.1429 32.8573V32.1431Z" fill="#3C3C3B"/>
<path d="M61.4286 32.7147L63.8571 29.2861C62.4286 29.1433 61.5714 28.1433 61.5714 26.8576C61.5714 25.429 62.5714 24.2861 64.1429 24.2861H68.2857V32.7147H67.4286V29.2861H64.8571L62.5714 32.7147H61.4286ZM67.4286 28.429V25.0004H64.2857C63.1429 25.0004 62.5714 25.7147 62.5714 26.7147C62.5714 27.7147 63.1429 28.429 64.2857 28.429H67.4286Z" fill="#3C3C3B"/>
<path d="M78.2857 28.7145H76.5714V32.7145H75.7143V24.2859H76.5714V28.0002H78.2857C78.5714 25.8574 80 24.1431 82.2857 24.1431C84.8571 24.1431 86.2857 26.1431 86.2857 28.5716C86.2857 31.0002 84.7143 33.0002 82.2857 33.0002C80 33.0002 78.4286 31.1431 78.2857 28.7145ZM85.5714 28.4288C85.5714 26.5716 84.4286 24.8574 82.4286 24.8574C80.4286 24.8574 79.2857 26.5716 79.2857 28.4288C79.2857 30.2859 80.4286 32.0002 82.4286 32.0002C84.4286 32.1431 85.5714 30.4288 85.5714 28.4288Z" fill="#3C3C3B"/>
<path d="M89.7143 31.4291V36.0005H88.8571V24.2862H89.7143V25.5719C90.2857 24.7148 91.4286 24.0005 92.7143 24.0005C95 24.0005 96.5714 25.7148 96.5714 28.4291C96.5714 31.1433 95 32.8576 92.7143 32.8576C91.5714 33.0005 90.4286 32.2862 89.7143 31.4291ZM95.5714 28.4291C95.5714 26.4291 94.5714 24.8576 92.5714 24.8576C91.4286 24.8576 90.2857 25.5719 89.7143 26.4291V30.5719C90.1429 31.4291 91.2857 32.1433 92.5714 32.1433C94.4286 32.1433 95.5714 30.5719 95.5714 28.4291Z" fill="#3C3C3B"/>
<path d="M98.8571 32.7147V24.2861H99.7143V31.2861L104.571 24.2861H105.429V32.7147H104.571V25.5718L99.7143 32.7147H98.8571Z" fill="#3C3C3B"/>
<path d="M107.857 28.4291C107.857 26.0005 109.429 24.0005 112 24.0005C113.429 24.0005 114.286 24.5719 115 25.4291L114.286 26.0005C113.714 25.1433 112.857 24.8576 112 24.8576C110 24.8576 108.857 26.4291 108.857 28.4291C108.857 30.4291 110 32.0005 112 32.0005C113 32.0005 113.714 31.7148 114.286 30.8576L114.857 31.4291C114.143 32.2862 113.286 32.8576 111.857 32.8576C109.429 33.0005 107.857 31.0005 107.857 28.4291Z" fill="#3C3C3B"/>
<path d="M118.429 32.7147V25.0004H116V24.2861H121.857V25.1433H119.286V32.8576H118.429V32.7147Z" fill="#3C3C3B"/>
<path d="M123.286 28.4291C123.286 26.0005 124.857 24.0005 127.429 24.0005C130 24.0005 131.571 26.0005 131.571 28.4291C131.571 30.8576 130 32.8576 127.429 32.8576C124.857 33.0005 123.286 31.0005 123.286 28.4291ZM130.571 28.4291C130.571 26.5719 129.429 24.8576 127.429 24.8576C125.429 24.8576 124.286 26.5719 124.286 28.4291C124.286 30.2862 125.429 32.0005 127.429 32.0005C129.429 32.1433 130.571 30.4291 130.571 28.4291Z" fill="#3C3C3B"/>
<path d="M133.857 32.7147V24.2861H138.143C139.571 24.2861 140.429 25.1433 140.429 26.429C140.429 27.429 139.714 28.1433 139.143 28.429C140 28.7147 140.714 29.5718 140.714 30.429C140.714 31.8576 139.857 32.7147 138.286 32.7147H133.857ZM139.571 26.5718C139.571 25.7147 139 25.1433 138 25.1433H134.714V28.0004H138C139 28.0004 139.571 27.2861 139.571 26.5718ZM139.714 30.429C139.714 29.5718 139.143 28.8576 138.143 28.8576H134.857V32.0004H138.143C139.143 31.8576 139.714 31.2861 139.714 30.429Z" fill="#3C3C3B"/>
<path d="M142.429 28.8571V28H146.714V28.8571H142.429Z" fill="#3C3C3B"/>
<path d="M154.286 32.7147V25.0004H149.429V32.7147H148.571V24.2861H155.143V32.7147H154.286Z" fill="#3C3C3B"/>
<path d="M159 31.4291V36.0005H158.143V24.2862H159V25.5719C159.571 24.7148 160.714 24.0005 162 24.0005C164.286 24.0005 165.857 25.7148 165.857 28.4291C165.857 31.1433 164.286 32.8576 162 32.8576C160.714 33.0005 159.714 32.2862 159 31.4291ZM164.714 28.4291C164.714 26.4291 163.571 24.8576 161.714 24.8576C160.571 24.8576 159.429 25.5719 158.857 26.4291V30.5719C159.286 31.4291 160.429 32.1433 161.714 32.1433C163.714 32.1433 164.714 30.5719 164.714 28.4291Z" fill="#3C3C3B"/>
<path d="M173.429 32.7146V31.7146C172.714 32.5717 171.714 32.8574 170.571 32.8574C169.143 32.8574 167.571 31.8574 167.571 30.0003C167.571 28.1431 169 27.1431 170.571 27.1431C171.714 27.1431 172.714 27.5717 173.429 28.286V26.5717C173.429 25.286 172.429 24.5717 171.143 24.5717C170.143 24.5717 169.286 25.0003 168.429 25.8574L167.857 25.286C168.714 24.286 169.714 23.8574 171.143 23.8574C172.857 23.8574 174.286 24.7146 174.286 26.5717V32.5717H173.429V32.7146ZM173.429 31.1431V29.286C172.857 28.5717 171.857 28.1431 170.857 28.1431C169.429 28.1431 168.571 29.0003 168.571 30.286C168.571 31.4288 169.429 32.4288 170.857 32.4288C171.857 32.286 172.857 31.8574 173.429 31.1431Z" fill="#3C3C3B"/>
<path d="M183 32.7147L179.571 28.7147L178 30.1433V32.7147H177.143V24.2861H178V29.1433L183 24.2861H184.143L180.143 28.1433L184.143 32.8576H183V32.7147Z" fill="#3C3C3B"/>
<path d="M187.571 32.7147V25.0004H185.143V24.2861H191V25.1433H188.571V32.8576H187.571V32.7147Z" fill="#3C3C3B"/>
<path d="M192.857 32.7147V24.2861H193.714V31.2861L198.571 24.2861H199.429V32.7147H198.571V25.5718L193.714 32.7147H192.857Z" fill="#3C3C3B"/>
<path d="M208.286 32.7147L204.857 28.7147L203.286 30.1433V32.7147H202.429V24.2861H203.286V29.1433L208.286 24.2861H209.429L205.429 28.1433L209.429 32.8576H208.286V32.7147Z" fill="#3C3C3B"/>
<path d="M210.714 28.4291C210.714 26.0005 212.286 24.0005 214.714 24.0005C217.286 24.0005 218.857 26.0005 218.857 28.4291C218.857 30.8576 217.286 32.8576 214.714 32.8576C212.429 33.0005 210.714 31.0005 210.714 28.4291ZM218 28.4291C218 26.5719 216.857 24.8576 214.857 24.8576C212.857 24.8576 211.714 26.5719 211.714 28.4291C211.714 30.2862 212.857 32.0005 214.857 32.0005C216.857 32.1433 218 30.4291 218 28.4291Z" fill="#3C3C3B"/>
<path d="M221.286 32.7147V24.2861H225.571C227 24.2861 227.857 25.1433 227.857 26.429C227.857 27.429 227.143 28.1433 226.571 28.429C227.429 28.7147 228.143 29.5718 228.143 30.429C228.143 31.8576 227.286 32.7147 225.714 32.7147H221.286ZM227 26.5718C227 25.7147 226.429 25.1433 225.429 25.1433H222.143V28.0004H225.429C226.429 28.0004 227 27.2861 227 26.5718ZM227.143 30.429C227.143 29.5718 226.571 28.8576 225.571 28.8576H222.286V32.0004H225.571C226.571 31.8576 227.143 31.2861 227.143 30.429Z" fill="#3C3C3B"/>
</g>
<defs>
<clipPath id="clip0_123_6">
<rect width="228.143" height="36" fill="white"/>
</clipPath>
</defs>
</svg>
