<svg width="18" height="18" viewBox="0 0 18 18" fill="none" xmlns="http://www.w3.org/2000/svg">
<path fill-rule="evenodd" clip-rule="evenodd" d="M8.66493 11.4705C8.26534 11.4705 7.86883 11.4496 7.48543 11.3329C7.06887 11.2057 6.72559 10.9885 6.59676 10.5622C6.40468 9.92255 6.59676 9.00019 7.53249 8.65134C7.90349 8.52243 8.28741 8.43119 8.67804 8.37909C9.05141 8.32107 9.42632 8.27123 9.80046 8.2147C9.82835 8.21053 9.85261 8.19402 9.86603 8.17007C9.88034 8.06754 9.88396 7.96387 9.87683 7.86064C9.85651 7.68666 9.72756 7.54254 9.55206 7.49765C9.32064 7.4188 9.07687 7.43368 8.83773 7.4545C8.40904 7.49871 7.98535 7.58012 7.57183 7.69774C7.46769 7.72526 7.4592 7.71856 7.44378 7.61294C7.41292 7.40764 7.38206 7.2016 7.34735 6.99704C7.33898 6.9683 7.34325 6.93751 7.35916 6.9119C7.37507 6.88629 7.40121 6.86812 7.43143 6.86167C7.82412 6.72047 8.23314 6.62581 8.6495 6.57975C8.96456 6.54594 9.28134 6.52931 9.59835 6.52991C9.9779 6.52249 10.3557 6.58198 10.713 6.70546C11.0988 6.84828 11.3657 7.09077 11.4482 7.49616C11.4953 7.72526 11.4582 7.95213 11.4305 8.17826C11.379 8.59381 11.3258 9.00912 11.2708 9.42418C11.2222 9.7961 11.1774 10.168 11.1204 10.5399C11.0842 10.8897 10.8249 11.1801 10.4716 11.2667C10.2 11.3417 9.92233 11.3947 9.64154 11.4251C9.31909 11.4526 8.99124 11.4526 8.66493 11.4705ZM9.75018 9.05609C9.37758 9.12155 9.02119 9.16916 8.67019 9.25024C8.34928 9.32462 8.1302 9.52099 8.09317 9.85721C8.05614 10.1934 8.18574 10.5036 8.59228 10.5817C8.89635 10.6344 9.20885 10.6202 9.50641 10.54C9.54045 10.5218 9.56381 10.4894 9.56967 10.4523C9.61518 10.1354 9.65529 9.81704 9.69618 9.49942C9.71701 9.35958 9.73166 9.22123 9.75018 9.05609Z" fill="#F1361D"/>
<path fill-rule="evenodd" clip-rule="evenodd" d="M5.7577 6.53103C5.97482 6.53103 6.19194 6.53103 6.40905 6.53103C6.45036 6.5366 6.49079 6.54716 6.52941 6.56245C6.51674 6.59821 6.49985 6.63241 6.47907 6.66436C5.91635 7.34072 5.35284 8.01606 4.78854 8.69038C4.71932 8.77313 4.65245 8.85896 4.58008 8.93941C4.54254 8.97317 4.5384 9.02954 4.57064 9.06815C4.99963 9.80274 5.42705 10.5379 5.85289 11.2735C5.94965 11.4405 5.93155 11.4696 5.73253 11.4696C5.38011 11.4696 5.02454 11.4696 4.67527 11.4696C4.54054 11.4791 4.41356 11.4074 4.3551 11.2888C3.92349 10.5348 3.48899 9.78231 3.05161 9.03137C2.97417 8.93143 2.98494 8.79101 3.07678 8.7034C3.64317 8.02704 4.20957 7.35068 4.77596 6.67433C4.85337 6.57927 4.97242 6.52555 5.09691 6.5295C5.31718 6.53027 5.53744 6.53103 5.7577 6.53103Z" fill="#F1361D"/>
<path fill-rule="evenodd" clip-rule="evenodd" d="M12.234 11.4678C12.0168 11.4678 11.7996 11.4678 11.5824 11.4678C11.5441 11.4624 11.5065 11.4524 11.4707 11.4378C11.4814 11.4015 11.497 11.3666 11.5171 11.3343C12.1466 10.5771 12.7783 9.82117 13.412 9.06652C13.4529 9.02798 13.4567 8.96528 13.4206 8.92234C12.9836 8.17383 12.5482 7.42454 12.1144 6.67449C12.0585 6.57709 12.0853 6.53031 12.2002 6.52954C12.5936 6.52954 12.987 6.52954 13.3805 6.52954C13.479 6.52525 13.5711 6.57701 13.6166 6.66222L14.959 8.98523C15.0239 9.08195 15.0108 9.20973 14.9275 9.292C14.351 9.97251 13.7768 10.6561 13.205 11.3427C13.1309 11.4284 13.02 11.4754 12.9052 11.4701C12.6809 11.4701 12.4575 11.4678 12.234 11.4678Z" fill="#F1361D"/>
<path fill-rule="evenodd" clip-rule="evenodd" d="M9 17C13.4183 17 17 13.4183 17 9C17 4.58172 13.4183 1 9 1C4.58172 1 1 4.58172 1 9C1 13.4183 4.58172 17 9 17Z" stroke="#F1361D" stroke-width="1.0625" stroke-linecap="round" stroke-linejoin="round"/>
</svg>
