<svg width="18" height="18" viewBox="0 0 18 18" fill="none" xmlns="http://www.w3.org/2000/svg">
<path fill-rule="evenodd" clip-rule="evenodd" d="M8.66487 11.4705C8.26527 11.4705 7.86877 11.4496 7.48537 11.3329C7.06881 11.2057 6.72552 10.9885 6.5967 10.5622C6.40461 9.92255 6.5967 9.00019 7.53243 8.65134C7.90343 8.52243 8.28735 8.43119 8.67798 8.37909C9.05135 8.32107 9.42626 8.27123 9.8004 8.2147C9.82829 8.21053 9.85255 8.19402 9.86597 8.17007C9.88028 8.06754 9.8839 7.96387 9.87677 7.86064C9.85644 7.68666 9.7275 7.54254 9.552 7.49765C9.32057 7.4188 9.07681 7.43368 8.83767 7.4545C8.40897 7.49871 7.98529 7.58012 7.57177 7.69774C7.46763 7.72526 7.45914 7.71856 7.44371 7.61294C7.41286 7.40764 7.382 7.2016 7.34729 6.99704C7.33892 6.9683 7.34319 6.93751 7.3591 6.9119C7.37501 6.88629 7.40115 6.86812 7.43137 6.86167C7.82405 6.72047 8.23307 6.62581 8.64944 6.57975C8.9645 6.54594 9.28128 6.52931 9.59828 6.52991C9.97784 6.52249 10.3556 6.58198 10.713 6.70546C11.0987 6.84828 11.3656 7.09077 11.4481 7.49616C11.4952 7.72526 11.4582 7.95213 11.4304 8.17826C11.379 8.59381 11.3257 9.00912 11.2707 9.42418C11.2221 9.7961 11.1774 10.168 11.1203 10.5399C11.0841 10.8897 10.8248 11.1801 10.4715 11.2667C10.1999 11.3417 9.92227 11.3947 9.64148 11.4251C9.31903 11.4526 8.99118 11.4526 8.66487 11.4705ZM9.75012 9.05609C9.37752 9.12155 9.02113 9.16916 8.67013 9.25024C8.34922 9.32462 8.13014 9.52099 8.09311 9.85721C8.05608 10.1934 8.18568 10.5036 8.59222 10.5817C8.89629 10.6344 9.20879 10.6202 9.50635 10.54C9.54039 10.5218 9.56375 10.4894 9.5696 10.4523C9.61512 10.1354 9.65523 9.81704 9.69612 9.49942C9.71694 9.35958 9.7316 9.22123 9.75012 9.05609Z" fill="#F1361D"/>
<path fill-rule="evenodd" clip-rule="evenodd" d="M5.7577 6.53103C5.97482 6.53103 6.19194 6.53103 6.40905 6.53103C6.45036 6.5366 6.49079 6.54716 6.52941 6.56245C6.51674 6.59821 6.49985 6.63241 6.47907 6.66436C5.91635 7.34072 5.35284 8.01606 4.78854 8.69038C4.71932 8.77313 4.65245 8.85896 4.58008 8.93941C4.54254 8.97317 4.5384 9.02954 4.57064 9.06815C4.99963 9.80274 5.42705 10.5379 5.85289 11.2735C5.94965 11.4405 5.93155 11.4696 5.73253 11.4696C5.38011 11.4696 5.02454 11.4696 4.67527 11.4696C4.54054 11.4791 4.41356 11.4074 4.3551 11.2888C3.92349 10.5348 3.48899 9.78231 3.05161 9.03137C2.97417 8.93143 2.98494 8.79101 3.07678 8.7034C3.64317 8.02704 4.20957 7.35068 4.77596 6.67433C4.85337 6.57927 4.97242 6.52555 5.09691 6.5295C5.31718 6.53027 5.53744 6.53103 5.7577 6.53103Z" fill="#F1361D"/>
<path fill-rule="evenodd" clip-rule="evenodd" d="M12.2339 11.4678C12.0167 11.4678 11.7996 11.4678 11.5824 11.4678C11.544 11.4624 11.5064 11.4524 11.4706 11.4378C11.4813 11.4015 11.4969 11.3666 11.5171 11.3343C12.1466 10.5771 12.7782 9.82117 13.4119 9.06652C13.4528 9.02798 13.4566 8.96528 13.4206 8.92234C12.9836 8.17383 12.5482 7.42454 12.1143 6.67449C12.0585 6.57709 12.0852 6.53031 12.2001 6.52954C12.5935 6.52954 12.987 6.52954 13.3804 6.52954C13.4789 6.52525 13.571 6.57701 13.6165 6.66222L14.9589 8.98523C15.0239 9.08195 15.0108 9.20973 14.9275 9.292C14.3509 9.97251 13.7768 10.6561 13.205 11.3427C13.1308 11.4284 13.02 11.4754 12.9052 11.4701C12.6809 11.4701 12.4574 11.4678 12.2339 11.4678Z" fill="#F1361D"/>
<path fill-rule="evenodd" clip-rule="evenodd" d="M9 17C13.4183 17 17 13.4183 17 9C17 4.58172 13.4183 1 9 1C4.58172 1 1 4.58172 1 9C1 13.4183 4.58172 17 9 17Z" stroke="#F1361D" stroke-width="1.0625" stroke-linecap="round" stroke-linejoin="round"/>
</svg>
