<svg width="19" height="17" viewBox="0 0 19 17" fill="none" xmlns="http://www.w3.org/2000/svg">
<path d="M16.4449 15.7935H2.08512C1.50639 15.7935 1 15.2871 1 14.7084V4.9423C1 4.3274 1.50639 3.85718 2.08512 3.85718H16.4449C17.0236 3.85718 17.53 4.3274 17.53 4.9423V14.7084C17.53 15.2871 17.0598 15.7935 16.4449 15.7935Z" stroke="white" stroke-miterlimit="10" stroke-linecap="round" stroke-linejoin="round"/>
<path d="M6.06421 3.85748V1.43405C6.06421 1.21702 6.24506 1 6.49826 1H12.1047C12.3217 1 12.5388 1.18085 12.5388 1.43405V3.85748" stroke="white" stroke-miterlimit="10" stroke-linecap="round" stroke-linejoin="round"/>
<path d="M7.54504 9.86292V8.56077C7.54504 8.45226 7.65356 8.34375 7.76207 8.34375H10.7281C10.8366 8.34375 10.9451 8.45226 10.9451 8.56077V9.86292" stroke="white" stroke-miterlimit="10" stroke-linecap="round" stroke-linejoin="round"/>
<path d="M10.9812 11.1287V12.4308C10.9812 12.5393 10.8726 12.6478 10.7641 12.6478H7.79814C7.68963 12.6478 7.58112 12.5393 7.58112 12.4308V11.1287" stroke="white" stroke-miterlimit="10" stroke-linecap="round" stroke-linejoin="round"/>
<path d="M1 9.82446C1 9.82446 9.35543 12.6458 17.53 9.82446" stroke="white" stroke-miterlimit="10" stroke-linecap="round" stroke-linejoin="round"/>
<path d="M1 8.56055C1 8.56055 9.35543 11.3819 17.53 8.56055" stroke="white" stroke-miterlimit="10" stroke-linecap="round" stroke-linejoin="round"/>
</svg>
