<svg width="18" height="18" viewBox="0 0 18 18" fill="none" xmlns="http://www.w3.org/2000/svg">
<path d="M9.00006 13.1055C11.2092 13.1055 13.0001 11.3146 13.0001 9.10547C13.0001 6.89633 11.2092 5.10547 9.00006 5.10547C6.79092 5.10547 5.00006 6.89633 5.00006 9.10547C5.00006 11.3146 6.79092 13.1055 9.00006 13.1055Z" stroke="white" stroke-miterlimit="10" stroke-linecap="round" stroke-linejoin="round"/>
<path d="M14.0526 15.2105C12.6842 16.3684 10.8947 17 9 17C4.57895 17 1 13.4211 1 9C1 4.57895 4.57895 1 9 1C13.4211 1 17 4.57895 17 9C17 9 17.2105 13 14.5789 13C12.3684 13 13 9.21053 13 9.21053" stroke="white" stroke-miterlimit="10" stroke-linecap="round" stroke-linejoin="round"/>
</svg>
